M48
;FILE_FORMAT=2:4
INCH,LZ
FMAT,2
ICI,OFF
;TYPE=PLATED
T1C.014
T2C.04
T3C.05118
T4C.0748
;TYPE=NON_PLATED
T5C.07874
T6C.10236
T7C.1378
%
M72
G90
G93X0Y0
T1C.014F0S0
X045157Y035827
X047677Y035039
X049843Y036102
X051417Y036102
X052598Y035394
X059843Y034291
X060512Y031378
X063346Y031181
X066024Y032638
X06752Y033268
X07122Y035669
X072008Y035709
X074488Y035157
X075276Y035157
X079331Y033819
X082677Y03311
X083346Y034724
X083701Y032953
X074488Y037362
X072598Y040079
X07248Y037362
X070551Y038031
X070551Y040591
X070551Y041142
X070236Y039055
X068661Y037362
X067953Y040394
X065276Y041102
X063858Y040512
X063268Y039449
X062795Y039449
X062795Y037913
X062756Y036693
X062283Y039449
X062283Y037913
X062205Y036929
X058268Y037559
X058071Y040157
X057756Y037323
X05626Y038858
X05626Y040433
X055315Y040197
X054803Y038976
X054252Y037795
X054252Y038228
X054094Y038937
X053465Y039843
X048858Y037992
X048858Y039055
X048858Y040236
X047205Y039173
X045472Y040669
X038071Y040039
X044843Y041614
X048858Y042402
X048858Y04126
X052953Y042283
X05315Y042874
X055276Y043228
X055354Y04189
X056024Y042835
X05622Y041535
X057165Y042795
X058661Y042874
X059094Y043307
X059134Y041929
X061457Y04122
X061457Y042008
X065866Y042126
X068425Y041614
X068425Y042795
X069173Y041654
X069764Y041181
X069843Y043386
X070551Y043504
X072598Y042835
X084488Y043228
X084488Y043661
X084843Y042913
X089213Y044803
X088543Y044803
X085551Y044961
X085039Y044961
X084528Y044961
X072638Y045591
X070236Y044567
X069843Y044291
X065945Y045866
X065945Y045394
X065945Y044961
X063386Y044488
X063386Y044961
X063386Y045433
X063386Y045906
X063386Y044016
X062913Y044488
X062913Y044961
X062913Y045433
X062913Y045906
X062913Y044016
X062441Y045906
X062441Y045433
X062441Y044488
X062441Y044961
X062441Y044016
X061969Y044961
X061969Y045906
X061969Y044488
X061969Y044016
X061969Y045433
X059567Y044488
X059252Y044173
X059252Y04374
X055512Y044764
X055394Y045827
X054803Y044646
X053465Y045591
X05311Y044409
X052717Y046142
X052165Y045591
X048858Y04378
X048858Y044961
X048858Y045945
X048858Y050118
X048858Y04874
X048898Y047717
X050787Y050433
X052165Y046732
X052165Y047953
X052165Y049094
X052362Y050354
X05311Y047598
X055354Y048583
X055433Y047441
X055984Y049646
X056024Y04748
X059488Y048701
X060945Y04752
X061535Y051026
X061969Y049921
X061969Y049409
X062598Y05063
X062835Y050236
X062992Y047362
X06378Y047362
X064055Y048465
X064606Y049055
X065945Y046339
X066063Y048504
X066063Y048976
X066732Y050236
X068583Y048898
X069094Y049921
X069331Y046339
X069331Y04752
X07Y050748
X070236Y050079
X070236Y04748
X070551Y049016
X070551Y04626
X070591Y050787
X070591Y051142
X072441Y051142
X072638Y04626
X072717Y048386
X072717Y049134
X085039Y049488
X086299Y046339
X086811Y046339
X087441Y05
X087677Y048543
X090118Y050866
X091024Y050433
X088898Y052165
X088898Y051693
X088425Y052165
X088425Y051693
X080236Y052598
X080236Y053465
X080236Y053031
X079803Y053031
X079803Y052598
X079803Y053465
X079134Y052323
X078465Y052323
X074803Y052795
X074567Y053386
X072441Y051614
X071339Y052559
X068976Y05189
X068543Y051535
X068071Y052244
X066811Y053504
X06563Y051339
X06315Y052756
X062874Y053543
X062677Y051693
X062323Y052441
X062087Y05311
X06185Y052717
X061102Y052205
X060394Y052953
X060394Y052559
X060394Y052165
X059173Y051654
X058858Y053622
X058701Y052205
X058701Y052638
X058701Y05311
X05685Y052835
X055669Y05189
X055276Y05189
X054016Y052638
X053898Y053189
X053228Y05126
X049685Y05126
X049016Y053504
X047598Y051693
X047244Y052205
X046575Y055197
X056102Y054961
X056575Y055906
X056575Y055394
X058819Y054921
X058819Y054449
X058819Y055394
X058819Y055866
X059291Y055866
X059291Y054921
X059291Y055394
X059291Y054449
X059764Y054921
X059764Y055394
X059764Y055866
X059764Y054449
X060236Y054449
X060236Y054921
X060236Y055394
X060236Y055866
X062717Y054252
X064134Y054016
X067638Y053819
X067638Y054331
X06815Y053819
X069528Y055394
X069528Y055945
X069567Y05374
X070039Y05374
X070039Y055945
X070039Y055394
X070551Y05374
X070945Y054094
X071378Y054528
X072047Y054528
X082953Y055787
X083543Y055787
X084134Y055787
X084724Y055787
X085315Y055787
X085315Y056378
X085315Y056969
X085315Y057559
X085315Y05815
X084724Y056378
X084724Y056969
X084724Y057559
X084724Y05815
X084134Y056969
X084134Y056378
X084134Y057559
X084134Y05815
X083543Y056969
X083543Y057559
X083543Y05815
X083543Y056378
X082953Y056969
X082953Y057559
X082953Y05815
X082953Y056378
X079134Y05689
X073228Y05811
X072795Y05811
X072402Y057795
X071929Y057795
X070748Y058071
X070591Y058543
X070079Y058543
X070039Y056457
X069528Y056457
X068465Y058622
X068228Y057638
X067992Y058307
X06685Y057165
X066496Y05685
X065472Y057598
X065Y057953
X063268Y057087
X060236Y056339
X059882Y057244
X059764Y056339
X059291Y056339
X059094Y057244
X058819Y056339
X055354Y057953
X054252Y057756
X052008Y058386
X051417Y056181
X050984Y057756
X049528Y058622
X049094Y057362
X047047Y057362
X046575Y056378
X035039Y058543
X034528Y058543
X034016Y058543
X047598Y059134
X047598Y060315
X057913Y059961
X058819Y061102
X060079Y058937
X061693Y061063
X062244Y059764
X065Y05874
X066732Y059488
X068858Y058937
X070079Y058976
X071378Y059646
X071811Y059567
X071811Y06
X072244Y060197
X07311Y060197
X073622Y06
X073622Y059567
X075551Y059291
X075551Y059724
X079409Y060354
X079409Y060827
X079882Y060354
X079882Y060827
X082953Y05874
X082953Y059331
X083543Y059331
X083543Y05874
X084134Y05874
X084134Y059331
X084724Y059331
X084724Y05874
X085315Y05874
X085315Y059331
X079882Y061299
X079409Y061299
X071535Y061693
X069173Y061496
X067992Y061535
X067165Y061457
X062323Y062441
X059961Y062953
X059961Y063386
X059488Y063386
X059488Y062953
X056929Y062283
X056614Y063622
X056614Y06311
X05626Y063346
X05626Y065984
X047598Y061496
X035039Y06437
X034528Y06437
X034016Y06437
X05626Y066417
X057165Y067047
X057402Y067402
X057638Y067047
X062913Y068228
X067165Y068701
X074449Y066969
X074449Y066457
X074921Y066457
X074921Y066969
X075394Y066457
X075394Y066969
X075866Y066969
X075866Y066457
T2C.04F0S0
X04811Y038661
X04811Y039661
X04811Y040661
X049882Y034921
X050882Y034921
X051882Y034921
X070157Y032126
X070157Y03315
X070157Y034173
X078819Y040039
X078819Y041039
X080984Y040039
X080984Y041039
X080984Y042039
X080984Y043039
X080984Y044039
X080984Y045039
X078819Y042039
X078819Y043039
X078819Y044039
X078819Y045039
X076378Y045622
X076366Y041642
X076366Y043642
X076366Y042642
X076366Y044642
X075378Y044622
X075378Y045622
X075366Y042642
X075366Y041642
X075366Y043642
X04811Y041661
X04811Y042795
X04811Y043795
X04811Y044795
X04811Y045795
X04811Y046929
X04811Y047929
X04811Y048929
X04811Y049929
X04811Y050929
X075378Y046622
X075378Y047622
X075378Y048622
X075378Y050622
X075378Y049622
X076378Y047622
X076378Y048622
X076378Y046622
X076378Y050622
X076378Y049622
X079016Y048504
X079016Y046929
X080016Y046929
X080016Y048504
X081016Y048504
X081016Y046929
X082016Y048504
X082016Y046929
X083016Y048504
X083016Y046929
X084016Y046929
X084016Y048504
X06563Y060815
X06563Y059815
X065433Y054247
X065433Y056147
X063661Y060815
X063661Y059815
X06074Y060118
X05974Y060118
X05874Y060118
X057Y059134
X056Y059134
X055Y059134
X052882Y052835
X052472Y059134
X051882Y052835
X051472Y059134
X050882Y052835
X050472Y059134
X049882Y052835
X050118Y063957
X050433Y066909
X052244Y063268
X052244Y067402
X058709Y062087
X059709Y062087
X060709Y062087
X064146Y062087
X065146Y062087
T3C.05118F0S0
X039646Y055197
X041024Y055787
X042598Y055787
X043976Y055197
X043976Y056378
X043976Y057559
X043976Y05874
X043976Y059921
X043976Y061102
X042598Y05815
X042598Y059331
X042598Y060512
X042598Y056969
X041024Y060512
X041024Y056969
X041024Y05815
X041024Y059331
X039646Y05874
X039646Y061102
X039646Y056378
X039646Y057559
X039646Y059921
X039646Y063465
X039646Y062284
X039646Y064646
X041024Y061693
X041024Y062874
X041024Y064055
X042598Y062874
X042598Y061693
X042598Y064055
X043976Y063465
X043976Y062284
X043976Y064646
T4C.0748F0S0
X04063Y034764
X04063Y037087
X04063Y044606
X042992Y034764
X042992Y037087
X042992Y044606
X042992Y046929
X04063Y046929
T5C.07874F0S0
X042106Y065728
T6C.10236F0S0
X041811Y051595
X041811Y068248
T7C.1378F0S0
X032756Y032756
X065039Y03748
X078622Y03748
X090236Y032756
X083543Y066614
X078622Y066614
X065039Y066614
X032756Y066614
M30
