M48
;FILE_FORMAT=2:4
INCH,LZ
FMAT,2
ICI,OFF
;TYPE=PLATED
T1C.04
T2C.05
T3C.052
;TYPE=NON_PLATED
T4C.1378
%
M72
G90
G93X0Y0
T1C.04F0S0
X055787Y042961
X055787Y043961
X056969Y03639
X056969Y03739
X055787Y044961
T2C.05F0S0
X037874Y032165
X037874Y036417
X053032Y035315
X053032Y032165
T3C.052F0S0
X0325Y0385
X0325Y0405
X063071Y037315
X063071Y035315
X063071Y045551
X052087Y044567
X047283Y044567
X046496Y046929
X0325Y0425
X0325Y0445
X0325Y0465
X047283Y049291
X052087Y049291
X063071Y049551
X063071Y047551
T4C.1378F0S0
X032559Y032362
X059528Y032362
X059528Y052835
X032598Y052835
M30
