*
*
G04 PADS VX.2.2 Build Number: 7607494 generated Gerber (RS-274-X) file*
G04 PC Version=2.1*
*
%IN "L9.pcb"*%
*
%MOIN*%
*
%FSLAX35Y35*%
*
*
*
*
G04 PC Standard Apertures*
*
*
G04 Thermal Relief Aperture macro.*
%AMTER*
1,1,$1,0,0*
1,0,$1-$2,0,0*
21,0,$3,$4,0,0,45*
21,0,$3,$4,0,0,135*
%
*
*
G04 Annular Aperture macro.*
%AMANN*
1,1,$1,0,0*
1,0,$2,0,0*
%
*
*
G04 Odd Aperture macro.*
%AMODD*
1,1,$1,0,0*
1,0,$1-0.005,0,0*
%
*
*
G04 PC Custom Aperture Macros*
*
*
*
*
*
*
G04 PC Aperture Table*
*
%ADD010C,0.001*%
%ADD011C,0.01*%
%ADD012C,0.005*%
%ADD050C,0.04*%
%ADD053C,0.08*%
%ADD055C,0.008*%
%ADD058C,0.12*%
%ADD067C,0.1*%
%ADD069R,0.08X0.08*%
%ADD070R,0.12X0.12*%
%ADD114R,0.07087X0.09449*%
%ADD115R,0.03937X0.04331*%
%ADD116C,0.1378*%
%ADD117R,0.03937X0.07874*%
%ADD118R,0.07087X0.05512*%
%ADD119R,0.05X0.036*%
%ADD120R,0.04331X0.03937*%
%ADD121R,0.04724X0.07087*%
%ADD122C,0.032*%
%ADD123C,0.06*%
*
*
*
*
G04 PC Circuitry*
G04 Layer Name L9.pcb - circuitry*
%LPD*%
*
*
G04 PC Custom Flashes*
G04 Layer Name L9.pcb - flashes*
%LPD*%
*
*
G04 PC Circuitry*
G04 Layer Name L9.pcb - circuitry*
%LPD*%
*
G54D10*
G01X300000Y548031D02*
X300003D01*
X654331D02*
X654333D01*
X300000Y300000D02*
X300003D01*
X300000Y548031D02*
X300003D01*
G54D11*
X300000Y555906D02*
X316685D01*
X300000D02*
X310000Y558406D01*
Y553406*
X300000Y555906*
X654331D02*
X364049D01*
X654331D02*
X644331Y553406D01*
Y558406*
X654331Y555906*
X300000Y553031D02*
Y560906D01*
X654331Y553031D02*
Y560906D01*
X322640Y558312D02*
X322412Y557375D01*
X321958Y556750*
X321276Y556437*
X321049*
X320367Y556750*
X319912Y557375*
X319685Y558312*
Y558625*
X319912Y559562*
X320367Y560187*
X321049Y560500*
X321276*
X321958Y560187*
X322412Y559562*
X322640Y558312*
Y556750*
X322412Y555187*
X321958Y554250*
X321276Y553937*
X320821*
X320140Y554250*
X319912Y554875*
X326049Y560500D02*
X325367Y560187D01*
X324912Y559250*
X324685Y557687*
Y556750*
X324912Y555187*
X325367Y554250*
X326049Y553937*
X326503*
X327185Y554250*
X327640Y555187*
X327867Y556750*
Y557687*
X327640Y559250*
X327185Y560187*
X326503Y560500*
X326049*
X330140Y554562D02*
X329912Y554250D01*
X330140Y553937*
X330367Y554250*
X330140Y554562*
X333776Y560500D02*
X333094Y560187D01*
X332640Y559250*
X332412Y557687*
Y556750*
X332640Y555187*
X333094Y554250*
X333776Y553937*
X334230*
X334912Y554250*
X335367Y555187*
X335594Y556750*
Y557687*
X335367Y559250*
X334912Y560187*
X334230Y560500*
X333776*
X339003D02*
X338321Y560187D01*
X337867Y559250*
X337640Y557687*
Y556750*
X337867Y555187*
X338321Y554250*
X339003Y553937*
X339458*
X340140Y554250*
X340594Y555187*
X340821Y556750*
Y557687*
X340594Y559250*
X340140Y560187*
X339458Y560500*
X339003*
X344230D02*
X343549Y560187D01*
X343094Y559250*
X342867Y557687*
Y556750*
X343094Y555187*
X343549Y554250*
X344230Y553937*
X344685*
X345367Y554250*
X345821Y555187*
X346049Y556750*
Y557687*
X345821Y559250*
X345367Y560187*
X344685Y560500*
X344230*
X348094Y558312D02*
Y553937D01*
Y557062D02*
X348776Y558000D01*
X349230Y558312*
X349912*
X350367Y558000*
X350594Y557062*
Y553937*
Y557062D02*
X351276Y558000D01*
X351730Y558312*
X352412*
X352867Y558000*
X353094Y557062*
Y553937*
X355140Y558312D02*
Y553937D01*
Y557062D02*
X355821Y558000D01*
X356276Y558312*
X356958*
X357412Y558000*
X357640Y557062*
Y553937*
Y557062D02*
X358321Y558000D01*
X358776Y558312*
X359458*
X359912Y558000*
X360140Y557062*
Y553937*
X292126Y300000D02*
Y484008D01*
Y300000D02*
X289626Y310000D01*
X294626*
X292126Y300000*
Y548031D02*
Y531372D01*
Y548031D02*
X294626Y538031D01*
X289626*
X292126Y548031*
X295000Y300000D02*
X287126D01*
X295000Y548031D02*
X287126D01*
X288469Y489735D02*
X287844Y489508D01*
X287532Y488826*
Y488372*
X287844Y487690*
X288782Y487235*
X290344Y487008*
X291907*
X293157Y487235*
X293782Y487690*
X294094Y488372*
Y488599*
X293782Y489281*
X293157Y489735*
X292219Y489962*
X291907*
X290969Y489735*
X290344Y489281*
X290032Y488599*
Y488372*
X290344Y487690*
X290969Y487235*
X291907Y487008*
X287532Y492462D02*
Y494962D01*
X290032Y493599*
Y494281*
X290344Y494735*
X290657Y494962*
X291594Y495190*
X292219*
X293157Y494962*
X293782Y494508*
X294094Y493826*
Y493144*
X293782Y492462*
X293469Y492235*
X292844Y492008*
X293469Y497462D02*
X293782Y497235D01*
X294094Y497462*
X293782Y497690*
X293469Y497462*
X287532Y501099D02*
X287844Y500417D01*
X288782Y499962*
X290344Y499735*
X291282*
X292844Y499962*
X293782Y500417*
X294094Y501099*
Y501553*
X293782Y502235*
X292844Y502690*
X291282Y502917*
X290344*
X288782Y502690*
X287844Y502235*
X287532Y501553*
Y501099*
Y506326D02*
X287844Y505644D01*
X288782Y505190*
X290344Y504962*
X291282*
X292844Y505190*
X293782Y505644*
X294094Y506326*
Y506781*
X293782Y507462*
X292844Y507917*
X291282Y508144*
X290344*
X288782Y507917*
X287844Y507462*
X287532Y506781*
Y506326*
Y511553D02*
X287844Y510872D01*
X288782Y510417*
X290344Y510190*
X291282*
X292844Y510417*
X293782Y510872*
X294094Y511553*
Y512008*
X293782Y512690*
X292844Y513144*
X291282Y513372*
X290344*
X288782Y513144*
X287844Y512690*
X287532Y512008*
Y511553*
X289719Y515417D02*
X294094D01*
X290969D02*
X290032Y516099D01*
X289719Y516553*
Y517235*
X290032Y517690*
X290969Y517917*
X294094*
X290969D02*
X290032Y518599D01*
X289719Y519053*
Y519735*
X290032Y520190*
X290969Y520417*
X294094*
X289719Y522462D02*
X294094D01*
X290969D02*
X290032Y523144D01*
X289719Y523599*
Y524281*
X290032Y524735*
X290969Y524962*
X294094*
X290969D02*
X290032Y525644D01*
X289719Y526099*
Y526781*
X290032Y527235*
X290969Y527462*
X294094*
G54D12*
X544091Y540196D02*
G75*
G03X544017Y540373I-250J0D01*
G01X540682Y543708*
G03X540506Y543781I-176J-177*
G01X352309*
G03X352133Y543708I0J-250*
G01X348552Y540127*
G03X348478Y539950I176J-177*
G01Y521353*
X312134Y485009*
G03X312061Y484832I177J-177*
G01Y463593*
G03X312134Y463416I250J-0*
G01X315778Y459772*
G03X315955Y459699I177J177*
G01X338686*
G03X338863Y459772I0J250*
G01X342507Y463416*
G03X342580Y463593I-177J177*
G01Y475777*
X387526Y520722*
X494924*
X510818Y504828*
Y491090*
G03X510892Y490914I250J0*
G01X514597Y487208*
G03X514774Y487135I177J177*
G01X534496*
G03X534592Y487154I0J250*
G01X536220Y487478D02*
G03X534592Y487154I0J-4250D01*
G01X536220Y487478D02*
X540157D01*
X540396Y487472D02*
G03X540157Y487478I-238J-4244D01*
G01X540396Y487472D02*
G03X540587Y487545I14J249D01*
G01X544017Y490975*
G03X544091Y491152I-176J177*
G01Y540196*
X530065Y447431D02*
G03X529992Y447607I-250J-0D01*
G01X524379Y453220*
G03X524202Y453293I-177J-177*
G01X516743*
G03X516566Y453220I-0J-250*
G01X510953Y447607*
G03X510880Y447431I177J-176*
G01Y435723*
X507407Y432250*
X314597*
G03X314420Y432177I-0J-250*
G01X312134Y429891*
G03X312061Y429714I177J-177*
G01Y418317*
G03X312134Y418141I250J0*
G01X313952Y416323*
G03X314128Y416250I176J177*
G01X520124*
G03X520300Y416323I-0J250*
G01X529992Y426015*
G03X530065Y426191I-177J176*
G01Y447431*
X384396Y380502D02*
G03X384322Y380678I-250J-0D01*
G01X354324Y410677*
G03X354147Y410750I-177J-177*
G01X314750*
G03X314574Y410677I0J-250*
G01X312134Y408237*
G03X312061Y408061I177J-176*
G01Y398263*
G03X312134Y398086I250J0*
G01X313810Y396411*
G03X313987Y396338I177J177*
G01X345010*
X368360Y372987*
Y362510*
G03X368433Y362333I250J0*
G01X372865Y357902*
G03X373042Y357829I177J177*
G01X381387*
G03X381564Y357902I0J250*
G01X384322Y360660*
G03X384396Y360837I-176J177*
G01Y380502*
X386610Y323661D02*
G03X386537Y323838I-250J0D01*
G01X345245Y365130*
G03X345068Y365203I-177J-177*
G01X335822*
X334199Y366826*
Y385423*
G03X334126Y385600I-250J-0*
G01X328548Y391177*
G03X328372Y391250I-176J-177*
G01X320917*
G03X320741Y391178I-0J-250*
G01X314073Y384584*
G03X313999Y384406I176J-178*
G01Y361200*
G03X314072Y361023I250J-0*
G01X327589Y347506*
G03X327766Y347433I177J177*
G01X335475*
X371561Y311347*
G03X371738Y311274I177J177*
G01X383897*
G03X384074Y311347I0J250*
G01X386537Y313810*
G03X386610Y313987I-177J177*
G01Y323661*
X637398Y461063D02*
G03X637324Y461239I-250J-0D01*
G01X636584Y461980*
G03X636407Y462053I-177J-177*
G01X616250*
G03X616074Y461980I0J-250*
G01X608765Y454671*
X589380*
G03X589204Y454598I0J-250*
G01X587725Y453119*
G03X587652Y452943I177J-176*
G01Y447131*
G03X587725Y446955I250J0*
G01X589007Y445673*
G03X589183Y445599I176J176*
G01X636333*
G03X636510Y445673I0J250*
G01X637324Y446487*
G03X637398Y446664I-176J177*
G01Y461063*
X636364Y389163D02*
G03X636291Y389340I-250J-0D01*
G01X632253Y393378*
G03X632076Y393451I-177J-177*
G01X606250*
G03X606000Y393201I-0J-250*
G01Y392501*
X605580Y390660D02*
G03X606000Y392501I-3830J1841D01*
G01X605580Y390660D02*
G03X605555Y390551I225J-109D01*
G01X605555*
G03X605580Y390443I250J0*
G01X606000Y388601D02*
G03X605580Y390443I-4250J0D01*
G01X606000Y388601D02*
Y388295D01*
G03X606250Y388045I250J0*
G01X622544*
X623872Y386718*
Y369892*
G03X623945Y369715I250J0*
G01X626408Y367252*
G03X626585Y367179I177J177*
G01X633651*
G03X633828Y367252I0J250*
G01X636291Y369715*
G03X636364Y369892I-177J177*
G01Y389163*
X470838Y471274D02*
G03X470764Y471451I-250J0D01*
G01X456443Y485772*
Y507765*
G03X456370Y507942I-250J0*
G01X452332Y511980*
G03X452155Y512053I-177J-177*
G01X397746*
G03X397570Y511980I0J-250*
G01X367449Y481859*
G03X367376Y481683I177J-176*
G01Y461511*
X357190Y451325*
X314380*
G03X314204Y451252I0J-250*
G01X312134Y449182*
G03X312061Y449005I177J-177*
G01Y441613*
G03X312134Y441436I250J-0*
G01X314204Y439367*
G03X314380Y439293I176J176*
G01X363899*
G03X364076Y439367I0J250*
G01X364076D02*
X382614Y457904D01*
G03X382687Y458081I-177J177*
G01Y479371*
X405802Y502486*
X440135*
X444092Y498529*
Y481057*
G03X444165Y480880I250J0*
G01X461841Y463205*
G03X462018Y463131I177J176*
G01X467226*
G03X467403Y463205I0J250*
G01X470764Y466566*
G03X470838Y466743I-176J177*
G01Y471274*
X650081Y502614D02*
G03X649831Y502864I-250J0D01*
G01X625439*
G03X625263Y502791I0J-250*
G01X623622Y501151*
G03X623549Y500974I177J-177*
G01Y490829*
G03X623622Y490652I250J0*
G01X625227Y489048*
G03X625404Y488974I177J176*
G01X639615*
X642659Y485930*
Y362999*
X639080Y359420*
X606810*
X602948Y363282*
Y371878*
G03X602624Y372117I-250J0*
G01X601378Y371931D02*
G03X602624Y372117I0J4250D01*
G01X601378Y371931D02*
X599852D01*
G03X599827Y371929I-0J-250*
G01X598598D02*
G03X599827I615J6220D01*
G01X598598D02*
G03X598573Y371931I-25J-248D01*
G01X597047*
X595725Y372142D02*
G03X597047Y371931I1322J4039D01*
G01X595725Y372142D02*
G03X595470Y372081I-78J-238D01*
G01X595407Y372017*
G03X595333Y371840I176J-177*
G01Y371751*
X591442Y367860*
X578110*
G03X577933Y367787I0J-250*
G01X576997Y366850*
X573815Y365532D02*
G03X576997Y366850I-0J4500D01*
G01X573815Y365532D02*
X565596D01*
G03X565419Y365459I-0J-250*
G01X529631Y329671*
X435293*
X425304Y339660*
Y347394*
G03X425230Y347571I-250J-0*
G01X425167Y347634*
G03X424990Y347708I-177J-176*
G01X423233*
G03X422983Y347458I-0J-250*
G01Y345276*
X422952Y344661D02*
G03X422983Y345276I-6219J615D01*
G01X422952Y344661D02*
G03X422951Y344636I249J-25D01*
G01Y343110*
X421729Y340128D02*
G03X422951Y343110I-3028J2982D01*
G01X421729Y340128D02*
G03X421657Y339953I178J-175D01*
G01Y339513*
X420576Y338431*
X412593*
X404474Y346550*
Y390261*
X412463Y398250*
X541887*
G03X542064Y398323I0J250*
G01X549283Y405542*
G03X549356Y405719I-177J177*
G01Y415852*
X558558Y425053*
X561210*
G03X561387Y425126I0J250*
G01X563063Y426802*
G03X563136Y426979I-177J177*
G01Y431289*
G03X563063Y431466I-250J-0*
G01X562177Y432352*
G03X561879Y432393I-177J-177*
G01X557874Y431356D02*
G03X561879Y432393I0J8250D01*
G01X557874Y431356D02*
X551052D01*
G03X550878Y431285I0J-250*
G01X538454Y419177*
G03X538378Y418998I174J-179*
G01Y409524*
X534293Y405440*
X405935*
G03X405758Y405366I-0J-250*
G01X396386Y395995*
G03X396313Y395818I177J-177*
G01Y340441*
G03X396386Y340264I250J-0*
G01X405936Y330714*
G03X406113Y330641I177J177*
G01X415928*
X432466Y314103*
G03X432643Y314030I177J177*
G01X545068*
G03X545245Y314103I0J250*
G01X575487Y344344*
X647216*
G03X647393Y344418I0J250*
G01X650007Y347032*
G03X650081Y347209I-176J177*
G01Y502614*
X601333Y398226D02*
G03X601260Y398403I-250J0D01*
G01X600363Y399299*
G03X600187Y399372I-176J-177*
G01X580621*
X579309Y400684*
Y453762*
G03X579236Y453938I-250J-0*
G01X579104Y454071*
G03X578927Y454144I-177J-177*
G01X554081*
G03X553904Y454071I-0J-250*
G01X553346Y453513*
G03X553273Y453336I177J-177*
G01Y448656*
G03X553346Y448479I250J-0*
G01X553895Y447930*
G03X554072Y447856I177J176*
G01X557874*
X563403Y445730D02*
G03X557874Y447856I-5529J-6124D01*
G01X563403Y445730D02*
G03X563570Y445665I167J185D01*
G01X570322*
X572577Y443411*
Y416546*
X563874Y407844*
G03X563801Y407667I177J-177*
G01Y400519*
X562702Y399419*
X550144*
G03X549967Y399346I0J-250*
G01X543017Y392396*
X420160*
G03X419983Y392323I-0J-250*
G01X409126Y381466*
G03X409053Y381289I177J-177*
G01Y362553*
G03X409126Y362377I250J0*
G01X409479Y362024*
G03X409656Y361950I177J176*
G01X415652*
G03X415828Y362024I-0J250*
G01X416040Y362235*
G03X416113Y362412I-177J177*
G01Y376654*
X419975Y380516*
X545118*
G03X545294Y380589I-0J250*
G01X554621Y389915*
X562604*
X564226Y388293*
Y379227*
X563096Y378096*
X548239*
G03X548062Y378023I-0J-250*
G01X533962Y363923*
X528554*
G03X528377Y363850I-0J-250*
G01X523945Y359418*
G03X523872Y359242I177J-176*
G01Y349420*
G03X523945Y349243I250J-0*
G01X525572Y347616*
G03X525749Y347543I177J177*
G01X536849*
G03X537026Y347616I0J250*
G01X559443Y370032*
X563525*
G03X563702Y370106I-0J250*
G01X564638Y371042*
X567820Y372360D02*
G03X564638Y371042I0J-4500D01*
G01X567820Y372360D02*
X575289D01*
G03X575539Y372610I0J250*
G01Y390456*
X577062Y391978*
X594086*
G03X594234Y392027I0J250*
G01X596750Y392851D02*
G03X594234Y392027I-0J-4250D01*
G01X596750Y392851D02*
X597650D01*
G03X597711Y392859I-0J250*
G01X600252Y392970D02*
G03X597711Y392859I-1002J-6169D01*
G01X600252Y392970D02*
G03X600539Y393175I40J247D01*
G01X601288Y394996D02*
G03X600539Y393175I3686J-2580D01*
G01X601288Y394996D02*
G03X601333Y395140I-205J144D01*
G01Y398226*
X348478Y539798D02*
X544091D01*
X348478Y539348D02*
X544091D01*
X348478Y538898D02*
X544091D01*
X348478Y538448D02*
X544091D01*
X348478Y537998D02*
X544091D01*
X348478Y537548D02*
X544091D01*
X348478Y537098D02*
X544091D01*
X348478Y536648D02*
X544091D01*
X348478Y536198D02*
X544091D01*
X348478Y535748D02*
X544091D01*
X348478Y535298D02*
X544091D01*
X348478Y534848D02*
X544091D01*
X348478Y534398D02*
X544091D01*
X348478Y533948D02*
X544091D01*
X348478Y533498D02*
X544091D01*
X348478Y533048D02*
X544091D01*
X348478Y532598D02*
X544091D01*
X348478Y532148D02*
X544091D01*
X348478Y531698D02*
X544091D01*
X348478Y531248D02*
X544091D01*
X348478Y530798D02*
X544091D01*
X348478Y530348D02*
X544091D01*
X348478Y529898D02*
X544091D01*
X348478Y529448D02*
X544091D01*
X348478Y528998D02*
X544091D01*
X348478Y528548D02*
X544091D01*
X348478Y528098D02*
X544091D01*
X348478Y527648D02*
X544091D01*
X348478Y527198D02*
X544091D01*
X348478Y526748D02*
X544091D01*
X348478Y526298D02*
X544091D01*
X348478Y525848D02*
X544091D01*
X348478Y525398D02*
X544091D01*
X348478Y524948D02*
X544091D01*
X348478Y524498D02*
X544091D01*
X348478Y524048D02*
X544091D01*
X348478Y523598D02*
X544091D01*
X348478Y523148D02*
X544091D01*
X348478Y522698D02*
X544091D01*
X348478Y522248D02*
X544091D01*
X348478Y521798D02*
X544091D01*
X348473Y521348D02*
X544091D01*
X348023Y520898D02*
X544091D01*
X495199Y520448D02*
X544091D01*
X495649Y519998D02*
X544091D01*
X496099Y519548D02*
X544091D01*
X496549Y519098D02*
X544091D01*
X496999Y518648D02*
X544091D01*
X497449Y518198D02*
X544091D01*
X497899Y517748D02*
X544091D01*
X498349Y517298D02*
X544091D01*
X498799Y516848D02*
X544091D01*
X499249Y516398D02*
X544091D01*
X499699Y515948D02*
X544091D01*
X500149Y515498D02*
X544091D01*
X500599Y515048D02*
X544091D01*
X501049Y514598D02*
X544091D01*
X501499Y514148D02*
X544091D01*
X501949Y513698D02*
X544091D01*
X502399Y513248D02*
X544091D01*
X502849Y512798D02*
X544091D01*
X503299Y512348D02*
X544091D01*
X503749Y511898D02*
X544091D01*
X504199Y511448D02*
X544091D01*
X504649Y510998D02*
X544091D01*
X505099Y510548D02*
X544091D01*
X505549Y510098D02*
X544091D01*
X505999Y509648D02*
X544091D01*
X506449Y509198D02*
X544091D01*
X506899Y508748D02*
X544091D01*
X507349Y508298D02*
X544091D01*
X507799Y507848D02*
X544091D01*
X508249Y507398D02*
X544091D01*
X508699Y506948D02*
X544091D01*
X509149Y506498D02*
X544091D01*
X509599Y506048D02*
X544091D01*
X510049Y505598D02*
X544091D01*
X510499Y505148D02*
X544091D01*
X510818Y504698D02*
X544091D01*
X510818Y504248D02*
X544091D01*
X510818Y503798D02*
X544091D01*
X510818Y503348D02*
X544091D01*
X510818Y502898D02*
X544091D01*
X510818Y502448D02*
X544091D01*
X510818Y501998D02*
X544091D01*
X510818Y501548D02*
X544091D01*
X510818Y501098D02*
X544091D01*
X510818Y500648D02*
X544091D01*
X510818Y500198D02*
X544091D01*
X510818Y499748D02*
X544091D01*
X510818Y499298D02*
X544091D01*
X510818Y498848D02*
X544091D01*
X510818Y498398D02*
X544091D01*
X510818Y497948D02*
X544091D01*
X510818Y497498D02*
X544091D01*
X510818Y497048D02*
X544091D01*
X510818Y496598D02*
X544091D01*
X510818Y496148D02*
X544091D01*
X510818Y495698D02*
X544091D01*
X510818Y495248D02*
X544091D01*
X510818Y494798D02*
X544091D01*
X510818Y494348D02*
X544091D01*
X510818Y493898D02*
X544091D01*
X510818Y493448D02*
X544091D01*
X510818Y492998D02*
X544091D01*
X510818Y492548D02*
X544091D01*
X510818Y492098D02*
X544091D01*
X510818Y491648D02*
X544091D01*
X510818Y491198D02*
X544091D01*
X348672Y540248D02*
X544085D01*
X511058Y490748D02*
X543790D01*
X349122Y540698D02*
X543693D01*
X511508Y490298D02*
X543340D01*
X349572Y541148D02*
X543243D01*
X511958Y489848D02*
X542890D01*
X350022Y541598D02*
X542793D01*
X512408Y489398D02*
X542440D01*
X350472Y542048D02*
X542343D01*
X512858Y488948D02*
X541990D01*
X350922Y542498D02*
X541893D01*
X513308Y488498D02*
X541540D01*
X351372Y542948D02*
X541443D01*
X513758Y488048D02*
X541090D01*
X351822Y543398D02*
X540993D01*
X514208Y487598D02*
X540640D01*
X514695Y487148D02*
X534575D01*
X347573Y520448D02*
X387251D01*
X347123Y519998D02*
X386801D01*
X346673Y519548D02*
X386351D01*
X346223Y519098D02*
X385901D01*
X345773Y518648D02*
X385451D01*
X345323Y518198D02*
X385001D01*
X344873Y517748D02*
X384551D01*
X344423Y517298D02*
X384101D01*
X343973Y516848D02*
X383651D01*
X343523Y516398D02*
X383201D01*
X343073Y515948D02*
X382751D01*
X342623Y515498D02*
X382301D01*
X342173Y515048D02*
X381851D01*
X341723Y514598D02*
X381401D01*
X341273Y514148D02*
X380951D01*
X340823Y513698D02*
X380501D01*
X340373Y513248D02*
X380051D01*
X339923Y512798D02*
X379601D01*
X339473Y512348D02*
X379151D01*
X339023Y511898D02*
X378701D01*
X338573Y511448D02*
X378251D01*
X338123Y510998D02*
X377801D01*
X337673Y510548D02*
X377351D01*
X337223Y510098D02*
X376901D01*
X336773Y509648D02*
X376451D01*
X336323Y509198D02*
X376001D01*
X335873Y508748D02*
X375551D01*
X335423Y508298D02*
X375101D01*
X334973Y507848D02*
X374651D01*
X334523Y507398D02*
X374201D01*
X334073Y506948D02*
X373751D01*
X333623Y506498D02*
X373301D01*
X333173Y506048D02*
X372851D01*
X332723Y505598D02*
X372401D01*
X332273Y505148D02*
X371951D01*
X331823Y504698D02*
X371501D01*
X331373Y504248D02*
X371051D01*
X330923Y503798D02*
X370601D01*
X330473Y503348D02*
X370151D01*
X330023Y502898D02*
X369701D01*
X329573Y502448D02*
X369251D01*
X329123Y501998D02*
X368801D01*
X328673Y501548D02*
X368351D01*
X328223Y501098D02*
X367901D01*
X327773Y500648D02*
X367451D01*
X327323Y500198D02*
X367001D01*
X326873Y499748D02*
X366551D01*
X326423Y499298D02*
X366101D01*
X325973Y498848D02*
X365651D01*
X325523Y498398D02*
X365201D01*
X325073Y497948D02*
X364751D01*
X324623Y497498D02*
X364301D01*
X324173Y497048D02*
X363851D01*
X323723Y496598D02*
X363401D01*
X323273Y496148D02*
X362951D01*
X322823Y495698D02*
X362501D01*
X322373Y495248D02*
X362051D01*
X321923Y494798D02*
X361601D01*
X321473Y494348D02*
X361151D01*
X321023Y493898D02*
X360701D01*
X320573Y493448D02*
X360251D01*
X320123Y492998D02*
X359801D01*
X319673Y492548D02*
X359351D01*
X319223Y492098D02*
X358901D01*
X318773Y491648D02*
X358451D01*
X318323Y491198D02*
X358001D01*
X317873Y490748D02*
X357551D01*
X317423Y490298D02*
X357101D01*
X316973Y489848D02*
X356651D01*
X316523Y489398D02*
X356201D01*
X316073Y488948D02*
X355751D01*
X315623Y488498D02*
X355301D01*
X315173Y488048D02*
X354851D01*
X314723Y487598D02*
X354401D01*
X314273Y487148D02*
X353951D01*
X313823Y486698D02*
X353501D01*
X313373Y486248D02*
X353051D01*
X312923Y485798D02*
X352601D01*
X312473Y485348D02*
X352151D01*
X312070Y484898D02*
X351701D01*
X312061Y484448D02*
X351251D01*
X312061Y483998D02*
X350801D01*
X312061Y483548D02*
X350351D01*
X312061Y483098D02*
X349901D01*
X312061Y482648D02*
X349451D01*
X312061Y482198D02*
X349001D01*
X312061Y481748D02*
X348551D01*
X312061Y481298D02*
X348101D01*
X312061Y480848D02*
X347651D01*
X312061Y480398D02*
X347201D01*
X312061Y479948D02*
X346751D01*
X312061Y479498D02*
X346301D01*
X312061Y479048D02*
X345851D01*
X312061Y478598D02*
X345401D01*
X312061Y478148D02*
X344951D01*
X312061Y477698D02*
X344501D01*
X312061Y477248D02*
X344051D01*
X312061Y476798D02*
X343601D01*
X312061Y476348D02*
X343151D01*
X312061Y475898D02*
X342701D01*
X312061Y475448D02*
X342580D01*
X312061Y474998D02*
X342580D01*
X312061Y474548D02*
X342580D01*
X312061Y474098D02*
X342580D01*
X312061Y473648D02*
X342580D01*
X312061Y473198D02*
X342580D01*
X312061Y472748D02*
X342580D01*
X312061Y472298D02*
X342580D01*
X312061Y471848D02*
X342580D01*
X312061Y471398D02*
X342580D01*
X312061Y470948D02*
X342580D01*
X312061Y470498D02*
X342580D01*
X312061Y470048D02*
X342580D01*
X312061Y469598D02*
X342580D01*
X312061Y469148D02*
X342580D01*
X312061Y468698D02*
X342580D01*
X312061Y468248D02*
X342580D01*
X312061Y467798D02*
X342580D01*
X312061Y467348D02*
X342580D01*
X312061Y466898D02*
X342580D01*
X312061Y466448D02*
X342580D01*
X312061Y465998D02*
X342580D01*
X312061Y465548D02*
X342580D01*
X312061Y465098D02*
X342580D01*
X312061Y464648D02*
X342580D01*
X312061Y464198D02*
X342580D01*
X312061Y463748D02*
X342580D01*
X312253Y463298D02*
X342388D01*
X312703Y462848D02*
X341938D01*
X313153Y462398D02*
X341488D01*
X313603Y461948D02*
X341038D01*
X314053Y461498D02*
X340588D01*
X314503Y461048D02*
X340138D01*
X314953Y460598D02*
X339688D01*
X315403Y460148D02*
X339238D01*
X510880Y447299D02*
X530065D01*
X510880Y446849D02*
X530065D01*
X510880Y446399D02*
X530065D01*
X510880Y445949D02*
X530065D01*
X510880Y445499D02*
X530065D01*
X510880Y445049D02*
X530065D01*
X510880Y444599D02*
X530065D01*
X510880Y444149D02*
X530065D01*
X510880Y443699D02*
X530065D01*
X510880Y443249D02*
X530065D01*
X510880Y442799D02*
X530065D01*
X510880Y442349D02*
X530065D01*
X510880Y441899D02*
X530065D01*
X510880Y441449D02*
X530065D01*
X510880Y440999D02*
X530065D01*
X510880Y440549D02*
X530065D01*
X510880Y440099D02*
X530065D01*
X510880Y439649D02*
X530065D01*
X510880Y439199D02*
X530065D01*
X510880Y438749D02*
X530065D01*
X510880Y438299D02*
X530065D01*
X510880Y437849D02*
X530065D01*
X510880Y437399D02*
X530065D01*
X510880Y436949D02*
X530065D01*
X510880Y436499D02*
X530065D01*
X510880Y436049D02*
X530065D01*
X510755Y435599D02*
X530065D01*
X510305Y435149D02*
X530065D01*
X509855Y434699D02*
X530065D01*
X509405Y434249D02*
X530065D01*
X508955Y433799D02*
X530065D01*
X508505Y433349D02*
X530065D01*
X508055Y432899D02*
X530065D01*
X507605Y432449D02*
X530065D01*
X314242Y431999D02*
X530065D01*
X313792Y431549D02*
X530065D01*
X313342Y431099D02*
X530065D01*
X312892Y430649D02*
X530065D01*
X312442Y430199D02*
X530065D01*
X312063Y429749D02*
X530065D01*
X312061Y429299D02*
X530065D01*
X312061Y428849D02*
X530065D01*
X312061Y428399D02*
X530065D01*
X312061Y427949D02*
X530065D01*
X312061Y427499D02*
X530065D01*
X312061Y427049D02*
X530065D01*
X312061Y426599D02*
X530065D01*
X312061Y426149D02*
X530061D01*
X511094Y447749D02*
X529851D01*
X312061Y425699D02*
X529676D01*
X511544Y448199D02*
X529401D01*
X312061Y425249D02*
X529226D01*
X511994Y448649D02*
X528951D01*
X312061Y424799D02*
X528776D01*
X512444Y449099D02*
X528501D01*
X312061Y424349D02*
X528326D01*
X512894Y449549D02*
X528051D01*
X312061Y423899D02*
X527876D01*
X513344Y449999D02*
X527601D01*
X312061Y423449D02*
X527426D01*
X513794Y450449D02*
X527151D01*
X312061Y422999D02*
X526976D01*
X514244Y450899D02*
X526701D01*
X312061Y422549D02*
X526526D01*
X514694Y451349D02*
X526251D01*
X312061Y422099D02*
X526076D01*
X515144Y451799D02*
X525801D01*
X312061Y421649D02*
X525626D01*
X515594Y452249D02*
X525351D01*
X312061Y421199D02*
X525176D01*
X516044Y452699D02*
X524901D01*
X312061Y420749D02*
X524726D01*
X516494Y453149D02*
X524451D01*
X312061Y420299D02*
X524276D01*
X312061Y419849D02*
X523826D01*
X312061Y419399D02*
X523376D01*
X312061Y418949D02*
X522926D01*
X312061Y418499D02*
X522476D01*
X312226Y418049D02*
X522026D01*
X312676Y417599D02*
X521576D01*
X313126Y417149D02*
X521126D01*
X313576Y416699D02*
X520676D01*
X361020Y380327D02*
X384396D01*
X361470Y379877D02*
X384396D01*
X361920Y379427D02*
X384396D01*
X362370Y378977D02*
X384396D01*
X362820Y378527D02*
X384396D01*
X363270Y378077D02*
X384396D01*
X363720Y377627D02*
X384396D01*
X364170Y377177D02*
X384396D01*
X364620Y376727D02*
X384396D01*
X365070Y376277D02*
X384396D01*
X365520Y375827D02*
X384396D01*
X365970Y375377D02*
X384396D01*
X366420Y374927D02*
X384396D01*
X366870Y374477D02*
X384396D01*
X367320Y374027D02*
X384396D01*
X367770Y373577D02*
X384396D01*
X368220Y373127D02*
X384396D01*
X368360Y372677D02*
X384396D01*
X368360Y372227D02*
X384396D01*
X368360Y371777D02*
X384396D01*
X368360Y371327D02*
X384396D01*
X368360Y370877D02*
X384396D01*
X368360Y370427D02*
X384396D01*
X368360Y369977D02*
X384396D01*
X368360Y369527D02*
X384396D01*
X368360Y369077D02*
X384396D01*
X368360Y368627D02*
X384396D01*
X368360Y368177D02*
X384396D01*
X368360Y367727D02*
X384396D01*
X368360Y367277D02*
X384396D01*
X368360Y366827D02*
X384396D01*
X368360Y366377D02*
X384396D01*
X368360Y365927D02*
X384396D01*
X368360Y365477D02*
X384396D01*
X368360Y365027D02*
X384396D01*
X368360Y364577D02*
X384396D01*
X368360Y364127D02*
X384396D01*
X368360Y363677D02*
X384396D01*
X368360Y363227D02*
X384396D01*
X368360Y362777D02*
X384396D01*
X368440Y362327D02*
X384396D01*
X368890Y361877D02*
X384396D01*
X369340Y361427D02*
X384396D01*
X369790Y360977D02*
X384396D01*
X360570Y380777D02*
X384223D01*
X370240Y360527D02*
X384190D01*
X360120Y381227D02*
X383773D01*
X370690Y360077D02*
X383740D01*
X359670Y381677D02*
X383323D01*
X371140Y359627D02*
X383290D01*
X359220Y382127D02*
X382873D01*
X371590Y359177D02*
X382840D01*
X358770Y382577D02*
X382423D01*
X372040Y358727D02*
X382390D01*
X358320Y383027D02*
X381973D01*
X372490Y358277D02*
X381940D01*
X357870Y383477D02*
X381523D01*
X357420Y383927D02*
X381073D01*
X356970Y384377D02*
X380623D01*
X356520Y384827D02*
X380173D01*
X356070Y385277D02*
X379723D01*
X355620Y385727D02*
X379273D01*
X355170Y386177D02*
X378823D01*
X354720Y386627D02*
X378373D01*
X354270Y387077D02*
X377923D01*
X353820Y387527D02*
X377473D01*
X353370Y387977D02*
X377023D01*
X352920Y388427D02*
X376573D01*
X352470Y388877D02*
X376123D01*
X352020Y389327D02*
X375673D01*
X351570Y389777D02*
X375223D01*
X351120Y390227D02*
X374773D01*
X350670Y390677D02*
X374323D01*
X350220Y391127D02*
X373873D01*
X349770Y391577D02*
X373423D01*
X349320Y392027D02*
X372973D01*
X348870Y392477D02*
X372523D01*
X348420Y392927D02*
X372073D01*
X347970Y393377D02*
X371623D01*
X347520Y393827D02*
X371173D01*
X347070Y394277D02*
X370723D01*
X346620Y394727D02*
X370273D01*
X346170Y395177D02*
X369823D01*
X345720Y395627D02*
X369373D01*
X345270Y396077D02*
X368923D01*
X313693Y396527D02*
X368473D01*
X313243Y396977D02*
X368023D01*
X312793Y397427D02*
X367573D01*
X312343Y397877D02*
X367123D01*
X312061Y398327D02*
X366673D01*
X312061Y398777D02*
X366223D01*
X312061Y399227D02*
X365773D01*
X312061Y399677D02*
X365323D01*
X312061Y400127D02*
X364873D01*
X312061Y400577D02*
X364423D01*
X312061Y401027D02*
X363973D01*
X312061Y401477D02*
X363523D01*
X312061Y401927D02*
X363073D01*
X312061Y402377D02*
X362623D01*
X312061Y402827D02*
X362173D01*
X312061Y403277D02*
X361723D01*
X312061Y403727D02*
X361273D01*
X312061Y404177D02*
X360823D01*
X312061Y404627D02*
X360373D01*
X312061Y405077D02*
X359923D01*
X312061Y405527D02*
X359473D01*
X312061Y405977D02*
X359023D01*
X312061Y406427D02*
X358573D01*
X312061Y406877D02*
X358123D01*
X312061Y407327D02*
X357673D01*
X312061Y407777D02*
X357223D01*
X312125Y408227D02*
X356773D01*
X312574Y408677D02*
X356323D01*
X313024Y409127D02*
X355873D01*
X313474Y409577D02*
X355423D01*
X313924Y410027D02*
X354973D01*
X314374Y410477D02*
X354523D01*
X359485Y323422D02*
X386610D01*
X359935Y322972D02*
X386610D01*
X360385Y322522D02*
X386610D01*
X360835Y322072D02*
X386610D01*
X361285Y321622D02*
X386610D01*
X361735Y321172D02*
X386610D01*
X362185Y320722D02*
X386610D01*
X362635Y320272D02*
X386610D01*
X363085Y319822D02*
X386610D01*
X363535Y319372D02*
X386610D01*
X363985Y318922D02*
X386610D01*
X364435Y318472D02*
X386610D01*
X364885Y318022D02*
X386610D01*
X365335Y317572D02*
X386610D01*
X365785Y317122D02*
X386610D01*
X366235Y316672D02*
X386610D01*
X366685Y316222D02*
X386610D01*
X367135Y315772D02*
X386610D01*
X367585Y315322D02*
X386610D01*
X368035Y314872D02*
X386610D01*
X368485Y314422D02*
X386610D01*
X368935Y313972D02*
X386610D01*
X359035Y323872D02*
X386502D01*
X369385Y313522D02*
X386249D01*
X358585Y324322D02*
X386052D01*
X369835Y313072D02*
X385799D01*
X358135Y324772D02*
X385602D01*
X370285Y312622D02*
X385349D01*
X357685Y325222D02*
X385152D01*
X370735Y312172D02*
X384899D01*
X357235Y325672D02*
X384702D01*
X371185Y311722D02*
X384449D01*
X356785Y326122D02*
X384252D01*
X356335Y326572D02*
X383802D01*
X355885Y327022D02*
X383352D01*
X355435Y327472D02*
X382902D01*
X354985Y327922D02*
X382452D01*
X354535Y328372D02*
X382002D01*
X354085Y328822D02*
X381552D01*
X353635Y329272D02*
X381102D01*
X353185Y329722D02*
X380652D01*
X352735Y330172D02*
X380202D01*
X352285Y330622D02*
X379752D01*
X351835Y331072D02*
X379302D01*
X351385Y331522D02*
X378852D01*
X350935Y331972D02*
X378402D01*
X350485Y332422D02*
X377952D01*
X350035Y332872D02*
X377502D01*
X349585Y333322D02*
X377052D01*
X349135Y333772D02*
X376602D01*
X348685Y334222D02*
X376152D01*
X348235Y334672D02*
X375702D01*
X347785Y335122D02*
X375252D01*
X347335Y335572D02*
X374802D01*
X346885Y336022D02*
X374352D01*
X346435Y336472D02*
X373902D01*
X345985Y336922D02*
X373452D01*
X345535Y337372D02*
X373002D01*
X345085Y337822D02*
X372552D01*
X344635Y338272D02*
X372102D01*
X344185Y338722D02*
X371652D01*
X343735Y339172D02*
X371202D01*
X343285Y339622D02*
X370752D01*
X342835Y340072D02*
X370302D01*
X342385Y340522D02*
X369852D01*
X341935Y340972D02*
X369402D01*
X341485Y341422D02*
X368952D01*
X341035Y341872D02*
X368502D01*
X340585Y342322D02*
X368052D01*
X340135Y342772D02*
X367602D01*
X339685Y343222D02*
X367152D01*
X339235Y343672D02*
X366702D01*
X338785Y344122D02*
X366252D01*
X338335Y344572D02*
X365802D01*
X337885Y345022D02*
X365352D01*
X337435Y345472D02*
X364902D01*
X336985Y345922D02*
X364452D01*
X336535Y346372D02*
X364002D01*
X336085Y346822D02*
X363552D01*
X335635Y347272D02*
X363102D01*
X327373Y347722D02*
X362652D01*
X326923Y348172D02*
X362202D01*
X326473Y348622D02*
X361752D01*
X326023Y349072D02*
X361302D01*
X325573Y349522D02*
X360852D01*
X325123Y349972D02*
X360402D01*
X324673Y350422D02*
X359952D01*
X324223Y350872D02*
X359502D01*
X323773Y351322D02*
X359052D01*
X323323Y351772D02*
X358602D01*
X322873Y352222D02*
X358152D01*
X322423Y352672D02*
X357702D01*
X321973Y353122D02*
X357252D01*
X321523Y353572D02*
X356802D01*
X321073Y354022D02*
X356352D01*
X320623Y354472D02*
X355902D01*
X320173Y354922D02*
X355452D01*
X319723Y355372D02*
X355002D01*
X319273Y355822D02*
X354552D01*
X318823Y356272D02*
X354102D01*
X318373Y356722D02*
X353652D01*
X317923Y357172D02*
X353202D01*
X317473Y357622D02*
X352752D01*
X317023Y358072D02*
X352302D01*
X316573Y358522D02*
X351852D01*
X316123Y358972D02*
X351402D01*
X315673Y359422D02*
X350952D01*
X315223Y359872D02*
X350502D01*
X314773Y360322D02*
X350052D01*
X314323Y360772D02*
X349602D01*
X313999Y361222D02*
X349152D01*
X313999Y361672D02*
X348702D01*
X313999Y362122D02*
X348252D01*
X313999Y362572D02*
X347802D01*
X313999Y363022D02*
X347352D01*
X313999Y363472D02*
X346902D01*
X313999Y363922D02*
X346452D01*
X313999Y364372D02*
X346002D01*
X313999Y364822D02*
X345552D01*
X313999Y365272D02*
X335752D01*
X313999Y365722D02*
X335302D01*
X313999Y366172D02*
X334852D01*
X313999Y366622D02*
X334402D01*
X314567Y385072D02*
X334199D01*
X314112Y384622D02*
X334199D01*
X313999Y384172D02*
X334199D01*
X313999Y383722D02*
X334199D01*
X313999Y383272D02*
X334199D01*
X313999Y382822D02*
X334199D01*
X313999Y382372D02*
X334199D01*
X313999Y381922D02*
X334199D01*
X313999Y381472D02*
X334199D01*
X313999Y381022D02*
X334199D01*
X313999Y380572D02*
X334199D01*
X313999Y380122D02*
X334199D01*
X313999Y379672D02*
X334199D01*
X313999Y379222D02*
X334199D01*
X313999Y378772D02*
X334199D01*
X313999Y378322D02*
X334199D01*
X313999Y377872D02*
X334199D01*
X313999Y377422D02*
X334199D01*
X313999Y376972D02*
X334199D01*
X313999Y376522D02*
X334199D01*
X313999Y376072D02*
X334199D01*
X313999Y375622D02*
X334199D01*
X313999Y375172D02*
X334199D01*
X313999Y374722D02*
X334199D01*
X313999Y374272D02*
X334199D01*
X313999Y373822D02*
X334199D01*
X313999Y373372D02*
X334199D01*
X313999Y372922D02*
X334199D01*
X313999Y372472D02*
X334199D01*
X313999Y372022D02*
X334199D01*
X313999Y371572D02*
X334199D01*
X313999Y371122D02*
X334199D01*
X313999Y370672D02*
X334199D01*
X313999Y370222D02*
X334199D01*
X313999Y369772D02*
X334199D01*
X313999Y369322D02*
X334199D01*
X313999Y368872D02*
X334199D01*
X313999Y368422D02*
X334199D01*
X313999Y367972D02*
X334199D01*
X313999Y367522D02*
X334199D01*
X313999Y367072D02*
X334199D01*
X315022Y385522D02*
X334178D01*
X315477Y385972D02*
X333753D01*
X315932Y386422D02*
X333303D01*
X316387Y386872D02*
X332853D01*
X316842Y387322D02*
X332403D01*
X317297Y387772D02*
X331953D01*
X317752Y388222D02*
X331503D01*
X318207Y388672D02*
X331053D01*
X318662Y389122D02*
X330603D01*
X319117Y389572D02*
X330153D01*
X319572Y390022D02*
X329703D01*
X320028Y390472D02*
X329253D01*
X320483Y390922D02*
X328803D01*
X614992Y460898D02*
X637398D01*
X614542Y460448D02*
X637398D01*
X614092Y459998D02*
X637398D01*
X613642Y459548D02*
X637398D01*
X613192Y459098D02*
X637398D01*
X612742Y458648D02*
X637398D01*
X612292Y458198D02*
X637398D01*
X611842Y457748D02*
X637398D01*
X611392Y457298D02*
X637398D01*
X610942Y456848D02*
X637398D01*
X610492Y456398D02*
X637398D01*
X610042Y455948D02*
X637398D01*
X609592Y455498D02*
X637398D01*
X609142Y455048D02*
X637398D01*
X589204Y454598D02*
X637398D01*
X588754Y454148D02*
X637398D01*
X588304Y453698D02*
X637398D01*
X587854Y453248D02*
X637398D01*
X587652Y452798D02*
X637398D01*
X587652Y452348D02*
X637398D01*
X587652Y451898D02*
X637398D01*
X587652Y451448D02*
X637398D01*
X587652Y450998D02*
X637398D01*
X587652Y450548D02*
X637398D01*
X587652Y450098D02*
X637398D01*
X587652Y449648D02*
X637398D01*
X587652Y449198D02*
X637398D01*
X587652Y448748D02*
X637398D01*
X587652Y448298D02*
X637398D01*
X587652Y447848D02*
X637398D01*
X587652Y447398D02*
X637398D01*
X587731Y446948D02*
X637398D01*
X588181Y446498D02*
X637335D01*
X615442Y461348D02*
X637216D01*
X588631Y446048D02*
X636885D01*
X615892Y461798D02*
X636766D01*
X605996Y388778D02*
X636364D01*
X606000Y388328D02*
X636364D01*
X622712Y387878D02*
X636364D01*
X623162Y387428D02*
X636364D01*
X623612Y386978D02*
X636364D01*
X623872Y386528D02*
X636364D01*
X623872Y386078D02*
X636364D01*
X623872Y385628D02*
X636364D01*
X623872Y385178D02*
X636364D01*
X623872Y384728D02*
X636364D01*
X623872Y384278D02*
X636364D01*
X623872Y383828D02*
X636364D01*
X623872Y383378D02*
X636364D01*
X623872Y382928D02*
X636364D01*
X623872Y382478D02*
X636364D01*
X623872Y382028D02*
X636364D01*
X623872Y381578D02*
X636364D01*
X623872Y381128D02*
X636364D01*
X623872Y380678D02*
X636364D01*
X623872Y380228D02*
X636364D01*
X623872Y379778D02*
X636364D01*
X623872Y379328D02*
X636364D01*
X623872Y378878D02*
X636364D01*
X623872Y378428D02*
X636364D01*
X623872Y377978D02*
X636364D01*
X623872Y377528D02*
X636364D01*
X623872Y377078D02*
X636364D01*
X623872Y376628D02*
X636364D01*
X623872Y376178D02*
X636364D01*
X623872Y375728D02*
X636364D01*
X623872Y375278D02*
X636364D01*
X623872Y374828D02*
X636364D01*
X623872Y374378D02*
X636364D01*
X623872Y373928D02*
X636364D01*
X623872Y373478D02*
X636364D01*
X623872Y373028D02*
X636364D01*
X623872Y372578D02*
X636364D01*
X623872Y372128D02*
X636364D01*
X623872Y371678D02*
X636364D01*
X623872Y371228D02*
X636364D01*
X623872Y370778D02*
X636364D01*
X623872Y370328D02*
X636364D01*
X623872Y369878D02*
X636364D01*
X605953Y389228D02*
X636356D01*
X624233Y369428D02*
X636003D01*
X605861Y389678D02*
X635953D01*
X624683Y368978D02*
X635553D01*
X605716Y390128D02*
X635503D01*
X625133Y368528D02*
X635103D01*
X605557Y390578D02*
X635053D01*
X625583Y368078D02*
X634653D01*
X605736Y391028D02*
X634603D01*
X626033Y367628D02*
X634203D01*
X605875Y391478D02*
X634153D01*
X605961Y391928D02*
X633703D01*
X605998Y392378D02*
X633253D01*
X606000Y392828D02*
X632803D01*
X606012Y393278D02*
X632353D01*
X453804Y471242D02*
X470838D01*
X454254Y470792D02*
X470838D01*
X454704Y470342D02*
X470838D01*
X455154Y469892D02*
X470838D01*
X455604Y469442D02*
X470838D01*
X456054Y468992D02*
X470838D01*
X456504Y468542D02*
X470838D01*
X456954Y468092D02*
X470838D01*
X457404Y467642D02*
X470838D01*
X457854Y467192D02*
X470838D01*
X458304Y466742D02*
X470838D01*
X453354Y471692D02*
X470523D01*
X458754Y466292D02*
X470491D01*
X452904Y472142D02*
X470073D01*
X459204Y465842D02*
X470041D01*
X452454Y472592D02*
X469623D01*
X459654Y465392D02*
X469591D01*
X452004Y473042D02*
X469173D01*
X460104Y464942D02*
X469141D01*
X451554Y473492D02*
X468723D01*
X460554Y464492D02*
X468691D01*
X451104Y473942D02*
X468273D01*
X461004Y464042D02*
X468241D01*
X450654Y474392D02*
X467823D01*
X461454Y463592D02*
X467791D01*
X450204Y474842D02*
X467373D01*
X461946Y463142D02*
X467298D01*
X449754Y475292D02*
X466923D01*
X449304Y475742D02*
X466473D01*
X448854Y476192D02*
X466023D01*
X448404Y476642D02*
X465573D01*
X447954Y477092D02*
X465123D01*
X447504Y477542D02*
X464673D01*
X447054Y477992D02*
X464223D01*
X446604Y478442D02*
X463773D01*
X446154Y478892D02*
X463323D01*
X445704Y479342D02*
X462873D01*
X445254Y479792D02*
X462423D01*
X444804Y480242D02*
X461973D01*
X444354Y480692D02*
X461523D01*
X444092Y481142D02*
X461073D01*
X444092Y481592D02*
X460623D01*
X444092Y482042D02*
X460173D01*
X444092Y482492D02*
X459723D01*
X444092Y482942D02*
X459273D01*
X444092Y483392D02*
X458823D01*
X444092Y483842D02*
X458373D01*
X444092Y484292D02*
X457923D01*
X444092Y484742D02*
X457473D01*
X444092Y485192D02*
X457023D01*
X444092Y485642D02*
X456573D01*
X393282Y507692D02*
X456443D01*
X392832Y507242D02*
X456443D01*
X392382Y506792D02*
X456443D01*
X391932Y506342D02*
X456443D01*
X391482Y505892D02*
X456443D01*
X391032Y505442D02*
X456443D01*
X390582Y504992D02*
X456443D01*
X390132Y504542D02*
X456443D01*
X389682Y504092D02*
X456443D01*
X389232Y503642D02*
X456443D01*
X388782Y503192D02*
X456443D01*
X388332Y502742D02*
X456443D01*
X440329Y502292D02*
X456443D01*
X440779Y501842D02*
X456443D01*
X441229Y501392D02*
X456443D01*
X441679Y500942D02*
X456443D01*
X442129Y500492D02*
X456443D01*
X442579Y500042D02*
X456443D01*
X443029Y499592D02*
X456443D01*
X443479Y499142D02*
X456443D01*
X443929Y498692D02*
X456443D01*
X444092Y498242D02*
X456443D01*
X444092Y497792D02*
X456443D01*
X444092Y497342D02*
X456443D01*
X444092Y496892D02*
X456443D01*
X444092Y496442D02*
X456443D01*
X444092Y495992D02*
X456443D01*
X444092Y495542D02*
X456443D01*
X444092Y495092D02*
X456443D01*
X444092Y494642D02*
X456443D01*
X444092Y494192D02*
X456443D01*
X444092Y493742D02*
X456443D01*
X444092Y493292D02*
X456443D01*
X444092Y492842D02*
X456443D01*
X444092Y492392D02*
X456443D01*
X444092Y491942D02*
X456443D01*
X444092Y491492D02*
X456443D01*
X444092Y491042D02*
X456443D01*
X444092Y490592D02*
X456443D01*
X444092Y490142D02*
X456443D01*
X444092Y489692D02*
X456443D01*
X444092Y489242D02*
X456443D01*
X444092Y488792D02*
X456443D01*
X444092Y488342D02*
X456443D01*
X444092Y487892D02*
X456443D01*
X444092Y487442D02*
X456443D01*
X444092Y486992D02*
X456443D01*
X444092Y486542D02*
X456443D01*
X444092Y486092D02*
X456443D01*
X393732Y508142D02*
X456170D01*
X394182Y508592D02*
X455720D01*
X394632Y509042D02*
X455270D01*
X395082Y509492D02*
X454820D01*
X395532Y509942D02*
X454370D01*
X395982Y510392D02*
X453920D01*
X396432Y510842D02*
X453470D01*
X396882Y511292D02*
X453020D01*
X397332Y511742D02*
X452570D01*
X387882Y502292D02*
X405608D01*
X387432Y501842D02*
X405158D01*
X386982Y501392D02*
X404708D01*
X386532Y500942D02*
X404258D01*
X386082Y500492D02*
X403808D01*
X385632Y500042D02*
X403358D01*
X385182Y499592D02*
X402908D01*
X384732Y499142D02*
X402458D01*
X384282Y498692D02*
X402008D01*
X383832Y498242D02*
X401558D01*
X383382Y497792D02*
X401108D01*
X382932Y497342D02*
X400658D01*
X382482Y496892D02*
X400208D01*
X382032Y496442D02*
X399758D01*
X381582Y495992D02*
X399308D01*
X381132Y495542D02*
X398858D01*
X380682Y495092D02*
X398408D01*
X380232Y494642D02*
X397958D01*
X379782Y494192D02*
X397508D01*
X379332Y493742D02*
X397058D01*
X378882Y493292D02*
X396608D01*
X378432Y492842D02*
X396158D01*
X377982Y492392D02*
X395708D01*
X377532Y491942D02*
X395258D01*
X377082Y491492D02*
X394808D01*
X376632Y491042D02*
X394358D01*
X376182Y490592D02*
X393908D01*
X375732Y490142D02*
X393458D01*
X375282Y489692D02*
X393008D01*
X374832Y489242D02*
X392558D01*
X374382Y488792D02*
X392108D01*
X373932Y488342D02*
X391658D01*
X373482Y487892D02*
X391208D01*
X373032Y487442D02*
X390758D01*
X372582Y486992D02*
X390308D01*
X372132Y486542D02*
X389858D01*
X371682Y486092D02*
X389408D01*
X371232Y485642D02*
X388958D01*
X370782Y485192D02*
X388508D01*
X370332Y484742D02*
X388058D01*
X369882Y484292D02*
X387608D01*
X369432Y483842D02*
X387158D01*
X368982Y483392D02*
X386708D01*
X368532Y482942D02*
X386258D01*
X368082Y482492D02*
X385808D01*
X367632Y482042D02*
X385358D01*
X367376Y481592D02*
X384908D01*
X367376Y481142D02*
X384458D01*
X367376Y480692D02*
X384008D01*
X367376Y480242D02*
X383558D01*
X367376Y479792D02*
X383108D01*
X367376Y479342D02*
X382687D01*
X367376Y478892D02*
X382687D01*
X367376Y478442D02*
X382687D01*
X367376Y477992D02*
X382687D01*
X367376Y477542D02*
X382687D01*
X367376Y477092D02*
X382687D01*
X367376Y476642D02*
X382687D01*
X367376Y476192D02*
X382687D01*
X367376Y475742D02*
X382687D01*
X367376Y475292D02*
X382687D01*
X367376Y474842D02*
X382687D01*
X367376Y474392D02*
X382687D01*
X367376Y473942D02*
X382687D01*
X367376Y473492D02*
X382687D01*
X367376Y473042D02*
X382687D01*
X367376Y472592D02*
X382687D01*
X367376Y472142D02*
X382687D01*
X367376Y471692D02*
X382687D01*
X367376Y471242D02*
X382687D01*
X367376Y470792D02*
X382687D01*
X367376Y470342D02*
X382687D01*
X367376Y469892D02*
X382687D01*
X367376Y469442D02*
X382687D01*
X367376Y468992D02*
X382687D01*
X367376Y468542D02*
X382687D01*
X367376Y468092D02*
X382687D01*
X367376Y467642D02*
X382687D01*
X367376Y467192D02*
X382687D01*
X367376Y466742D02*
X382687D01*
X367376Y466292D02*
X382687D01*
X367376Y465842D02*
X382687D01*
X367376Y465392D02*
X382687D01*
X367376Y464942D02*
X382687D01*
X367376Y464492D02*
X382687D01*
X367376Y464042D02*
X382687D01*
X367376Y463592D02*
X382687D01*
X367376Y463142D02*
X382687D01*
X367376Y462692D02*
X382687D01*
X367376Y462242D02*
X382687D01*
X367376Y461792D02*
X382687D01*
X367207Y461342D02*
X382687D01*
X366757Y460892D02*
X382687D01*
X366307Y460442D02*
X382687D01*
X365857Y459992D02*
X382687D01*
X365407Y459542D02*
X382687D01*
X364957Y459092D02*
X382687D01*
X364507Y458642D02*
X382687D01*
X364057Y458192D02*
X382687D01*
X363607Y457742D02*
X382451D01*
X363157Y457292D02*
X382001D01*
X362707Y456842D02*
X381551D01*
X362257Y456392D02*
X381101D01*
X361807Y455942D02*
X380651D01*
X361357Y455492D02*
X380201D01*
X360907Y455042D02*
X379751D01*
X360457Y454592D02*
X379301D01*
X360007Y454142D02*
X378851D01*
X359557Y453692D02*
X378401D01*
X359107Y453242D02*
X377951D01*
X358657Y452792D02*
X377501D01*
X358207Y452342D02*
X377051D01*
X357757Y451892D02*
X376601D01*
X357307Y451442D02*
X376151D01*
X313944Y450992D02*
X375701D01*
X313494Y450542D02*
X375251D01*
X313044Y450092D02*
X374801D01*
X312594Y449642D02*
X374351D01*
X312144Y449192D02*
X373901D01*
X312061Y448742D02*
X373451D01*
X312061Y448292D02*
X373001D01*
X312061Y447842D02*
X372551D01*
X312061Y447392D02*
X372101D01*
X312061Y446942D02*
X371651D01*
X312061Y446492D02*
X371201D01*
X312061Y446042D02*
X370751D01*
X312061Y445592D02*
X370301D01*
X312061Y445142D02*
X369851D01*
X312061Y444692D02*
X369401D01*
X312061Y444242D02*
X368951D01*
X312061Y443792D02*
X368501D01*
X312061Y443342D02*
X368051D01*
X312061Y442892D02*
X367601D01*
X312061Y442442D02*
X367151D01*
X312061Y441992D02*
X366701D01*
X312071Y441542D02*
X366251D01*
X312478Y441092D02*
X365801D01*
X312928Y440642D02*
X365351D01*
X313378Y440192D02*
X364901D01*
X313828Y439742D02*
X364451D01*
X625050Y502578D02*
X650081D01*
X624600Y502128D02*
X650081D01*
X624150Y501678D02*
X650081D01*
X623700Y501228D02*
X650081D01*
X623549Y500778D02*
X650081D01*
X623549Y500328D02*
X650081D01*
X623549Y499878D02*
X650081D01*
X623549Y499428D02*
X650081D01*
X623549Y498978D02*
X650081D01*
X623549Y498528D02*
X650081D01*
X623549Y498078D02*
X650081D01*
X623549Y497628D02*
X650081D01*
X623549Y497178D02*
X650081D01*
X623549Y496728D02*
X650081D01*
X623549Y496278D02*
X650081D01*
X623549Y495828D02*
X650081D01*
X623549Y495378D02*
X650081D01*
X623549Y494928D02*
X650081D01*
X623549Y494478D02*
X650081D01*
X623549Y494028D02*
X650081D01*
X623549Y493578D02*
X650081D01*
X623549Y493128D02*
X650081D01*
X623549Y492678D02*
X650081D01*
X623549Y492228D02*
X650081D01*
X623549Y491778D02*
X650081D01*
X623549Y491328D02*
X650081D01*
X623549Y490878D02*
X650081D01*
X623846Y490428D02*
X650081D01*
X624296Y489978D02*
X650081D01*
X624746Y489528D02*
X650081D01*
X625196Y489078D02*
X650081D01*
X639961Y488628D02*
X650081D01*
X640411Y488178D02*
X650081D01*
X640861Y487728D02*
X650081D01*
X641311Y487278D02*
X650081D01*
X641761Y486828D02*
X650081D01*
X642211Y486378D02*
X650081D01*
X642659Y485928D02*
X650081D01*
X642659Y485478D02*
X650081D01*
X642659Y485028D02*
X650081D01*
X642659Y484578D02*
X650081D01*
X642659Y484128D02*
X650081D01*
X642659Y483678D02*
X650081D01*
X642659Y483228D02*
X650081D01*
X642659Y482778D02*
X650081D01*
X642659Y482328D02*
X650081D01*
X642659Y481878D02*
X650081D01*
X642659Y481428D02*
X650081D01*
X642659Y480978D02*
X650081D01*
X642659Y480528D02*
X650081D01*
X642659Y480078D02*
X650081D01*
X642659Y479628D02*
X650081D01*
X642659Y479178D02*
X650081D01*
X642659Y478728D02*
X650081D01*
X642659Y478278D02*
X650081D01*
X642659Y477828D02*
X650081D01*
X642659Y477378D02*
X650081D01*
X642659Y476928D02*
X650081D01*
X642659Y476478D02*
X650081D01*
X642659Y476028D02*
X650081D01*
X642659Y475578D02*
X650081D01*
X642659Y475128D02*
X650081D01*
X642659Y474678D02*
X650081D01*
X642659Y474228D02*
X650081D01*
X642659Y473778D02*
X650081D01*
X642659Y473328D02*
X650081D01*
X642659Y472878D02*
X650081D01*
X642659Y472428D02*
X650081D01*
X642659Y471978D02*
X650081D01*
X642659Y471528D02*
X650081D01*
X642659Y471078D02*
X650081D01*
X642659Y470628D02*
X650081D01*
X642659Y470178D02*
X650081D01*
X642659Y469728D02*
X650081D01*
X642659Y469278D02*
X650081D01*
X642659Y468828D02*
X650081D01*
X642659Y468378D02*
X650081D01*
X642659Y467928D02*
X650081D01*
X642659Y467478D02*
X650081D01*
X642659Y467028D02*
X650081D01*
X642659Y466578D02*
X650081D01*
X642659Y466128D02*
X650081D01*
X642659Y465678D02*
X650081D01*
X642659Y465228D02*
X650081D01*
X642659Y464778D02*
X650081D01*
X642659Y464328D02*
X650081D01*
X642659Y463878D02*
X650081D01*
X642659Y463428D02*
X650081D01*
X642659Y462978D02*
X650081D01*
X642659Y462528D02*
X650081D01*
X642659Y462078D02*
X650081D01*
X642659Y461628D02*
X650081D01*
X642659Y461178D02*
X650081D01*
X642659Y460728D02*
X650081D01*
X642659Y460278D02*
X650081D01*
X642659Y459828D02*
X650081D01*
X642659Y459378D02*
X650081D01*
X642659Y458928D02*
X650081D01*
X642659Y458478D02*
X650081D01*
X642659Y458028D02*
X650081D01*
X642659Y457578D02*
X650081D01*
X642659Y457128D02*
X650081D01*
X642659Y456678D02*
X650081D01*
X642659Y456228D02*
X650081D01*
X642659Y455778D02*
X650081D01*
X642659Y455328D02*
X650081D01*
X642659Y454878D02*
X650081D01*
X642659Y454428D02*
X650081D01*
X642659Y453978D02*
X650081D01*
X642659Y453528D02*
X650081D01*
X642659Y453078D02*
X650081D01*
X642659Y452628D02*
X650081D01*
X642659Y452178D02*
X650081D01*
X642659Y451728D02*
X650081D01*
X642659Y451278D02*
X650081D01*
X642659Y450828D02*
X650081D01*
X642659Y450378D02*
X650081D01*
X642659Y449928D02*
X650081D01*
X642659Y449478D02*
X650081D01*
X642659Y449028D02*
X650081D01*
X642659Y448578D02*
X650081D01*
X642659Y448128D02*
X650081D01*
X642659Y447678D02*
X650081D01*
X642659Y447228D02*
X650081D01*
X642659Y446778D02*
X650081D01*
X642659Y446328D02*
X650081D01*
X642659Y445878D02*
X650081D01*
X642659Y445428D02*
X650081D01*
X642659Y444978D02*
X650081D01*
X642659Y444528D02*
X650081D01*
X642659Y444078D02*
X650081D01*
X642659Y443628D02*
X650081D01*
X642659Y443178D02*
X650081D01*
X642659Y442728D02*
X650081D01*
X642659Y442278D02*
X650081D01*
X642659Y441828D02*
X650081D01*
X642659Y441378D02*
X650081D01*
X642659Y440928D02*
X650081D01*
X642659Y440478D02*
X650081D01*
X642659Y440028D02*
X650081D01*
X642659Y439578D02*
X650081D01*
X642659Y439128D02*
X650081D01*
X642659Y438678D02*
X650081D01*
X642659Y438228D02*
X650081D01*
X642659Y437778D02*
X650081D01*
X642659Y437328D02*
X650081D01*
X642659Y436878D02*
X650081D01*
X642659Y436428D02*
X650081D01*
X642659Y435978D02*
X650081D01*
X642659Y435528D02*
X650081D01*
X642659Y435078D02*
X650081D01*
X642659Y434628D02*
X650081D01*
X642659Y434178D02*
X650081D01*
X642659Y433728D02*
X650081D01*
X642659Y433278D02*
X650081D01*
X642659Y432828D02*
X650081D01*
X642659Y432378D02*
X650081D01*
X642659Y431928D02*
X650081D01*
X642659Y431478D02*
X650081D01*
X642659Y431028D02*
X650081D01*
X642659Y430578D02*
X650081D01*
X642659Y430128D02*
X650081D01*
X642659Y429678D02*
X650081D01*
X642659Y429228D02*
X650081D01*
X642659Y428778D02*
X650081D01*
X642659Y428328D02*
X650081D01*
X642659Y427878D02*
X650081D01*
X642659Y427428D02*
X650081D01*
X642659Y426978D02*
X650081D01*
X642659Y426528D02*
X650081D01*
X642659Y426078D02*
X650081D01*
X642659Y425628D02*
X650081D01*
X642659Y425178D02*
X650081D01*
X642659Y424728D02*
X650081D01*
X642659Y424278D02*
X650081D01*
X642659Y423828D02*
X650081D01*
X642659Y423378D02*
X650081D01*
X642659Y422928D02*
X650081D01*
X642659Y422478D02*
X650081D01*
X642659Y422028D02*
X650081D01*
X642659Y421578D02*
X650081D01*
X642659Y421128D02*
X650081D01*
X642659Y420678D02*
X650081D01*
X642659Y420228D02*
X650081D01*
X642659Y419778D02*
X650081D01*
X642659Y419328D02*
X650081D01*
X642659Y418878D02*
X650081D01*
X642659Y418428D02*
X650081D01*
X642659Y417978D02*
X650081D01*
X642659Y417528D02*
X650081D01*
X642659Y417078D02*
X650081D01*
X642659Y416628D02*
X650081D01*
X642659Y416178D02*
X650081D01*
X642659Y415728D02*
X650081D01*
X642659Y415278D02*
X650081D01*
X642659Y414828D02*
X650081D01*
X642659Y414378D02*
X650081D01*
X642659Y413928D02*
X650081D01*
X642659Y413478D02*
X650081D01*
X642659Y413028D02*
X650081D01*
X642659Y412578D02*
X650081D01*
X642659Y412128D02*
X650081D01*
X642659Y411678D02*
X650081D01*
X642659Y411228D02*
X650081D01*
X642659Y410778D02*
X650081D01*
X642659Y410328D02*
X650081D01*
X642659Y409878D02*
X650081D01*
X642659Y409428D02*
X650081D01*
X642659Y408978D02*
X650081D01*
X642659Y408528D02*
X650081D01*
X642659Y408078D02*
X650081D01*
X642659Y407628D02*
X650081D01*
X642659Y407178D02*
X650081D01*
X642659Y406728D02*
X650081D01*
X642659Y406278D02*
X650081D01*
X642659Y405828D02*
X650081D01*
X642659Y405378D02*
X650081D01*
X642659Y404928D02*
X650081D01*
X642659Y404478D02*
X650081D01*
X642659Y404028D02*
X650081D01*
X642659Y403578D02*
X650081D01*
X642659Y403128D02*
X650081D01*
X642659Y402678D02*
X650081D01*
X642659Y402228D02*
X650081D01*
X642659Y401778D02*
X650081D01*
X642659Y401328D02*
X650081D01*
X642659Y400878D02*
X650081D01*
X642659Y400428D02*
X650081D01*
X642659Y399978D02*
X650081D01*
X642659Y399528D02*
X650081D01*
X642659Y399078D02*
X650081D01*
X642659Y398628D02*
X650081D01*
X642659Y398178D02*
X650081D01*
X642659Y397728D02*
X650081D01*
X642659Y397278D02*
X650081D01*
X642659Y396828D02*
X650081D01*
X642659Y396378D02*
X650081D01*
X642659Y395928D02*
X650081D01*
X642659Y395478D02*
X650081D01*
X642659Y395028D02*
X650081D01*
X642659Y394578D02*
X650081D01*
X642659Y394128D02*
X650081D01*
X642659Y393678D02*
X650081D01*
X642659Y393228D02*
X650081D01*
X642659Y392778D02*
X650081D01*
X642659Y392328D02*
X650081D01*
X642659Y391878D02*
X650081D01*
X642659Y391428D02*
X650081D01*
X642659Y390978D02*
X650081D01*
X642659Y390528D02*
X650081D01*
X642659Y390078D02*
X650081D01*
X642659Y389628D02*
X650081D01*
X642659Y389178D02*
X650081D01*
X642659Y388728D02*
X650081D01*
X642659Y388278D02*
X650081D01*
X642659Y387828D02*
X650081D01*
X642659Y387378D02*
X650081D01*
X642659Y386928D02*
X650081D01*
X642659Y386478D02*
X650081D01*
X642659Y386028D02*
X650081D01*
X642659Y385578D02*
X650081D01*
X642659Y385128D02*
X650081D01*
X642659Y384678D02*
X650081D01*
X642659Y384228D02*
X650081D01*
X642659Y383778D02*
X650081D01*
X642659Y383328D02*
X650081D01*
X642659Y382878D02*
X650081D01*
X642659Y382428D02*
X650081D01*
X642659Y381978D02*
X650081D01*
X642659Y381528D02*
X650081D01*
X642659Y381078D02*
X650081D01*
X642659Y380628D02*
X650081D01*
X642659Y380178D02*
X650081D01*
X642659Y379728D02*
X650081D01*
X642659Y379278D02*
X650081D01*
X642659Y378828D02*
X650081D01*
X642659Y378378D02*
X650081D01*
X642659Y377928D02*
X650081D01*
X642659Y377478D02*
X650081D01*
X642659Y377028D02*
X650081D01*
X642659Y376578D02*
X650081D01*
X642659Y376128D02*
X650081D01*
X642659Y375678D02*
X650081D01*
X642659Y375228D02*
X650081D01*
X642659Y374778D02*
X650081D01*
X642659Y374328D02*
X650081D01*
X642659Y373878D02*
X650081D01*
X642659Y373428D02*
X650081D01*
X642659Y372978D02*
X650081D01*
X642659Y372528D02*
X650081D01*
X642659Y372078D02*
X650081D01*
X642659Y371628D02*
X650081D01*
X642659Y371178D02*
X650081D01*
X642659Y370728D02*
X650081D01*
X642659Y370278D02*
X650081D01*
X642659Y369828D02*
X650081D01*
X642659Y369378D02*
X650081D01*
X642659Y368928D02*
X650081D01*
X642659Y368478D02*
X650081D01*
X642659Y368028D02*
X650081D01*
X642659Y367578D02*
X650081D01*
X642659Y367128D02*
X650081D01*
X642659Y366678D02*
X650081D01*
X642659Y366228D02*
X650081D01*
X642659Y365778D02*
X650081D01*
X642659Y365328D02*
X650081D01*
X642659Y364878D02*
X650081D01*
X642659Y364428D02*
X650081D01*
X642659Y363978D02*
X650081D01*
X642659Y363528D02*
X650081D01*
X642659Y363078D02*
X650081D01*
X642288Y362628D02*
X650081D01*
X641838Y362178D02*
X650081D01*
X641388Y361728D02*
X650081D01*
X640938Y361278D02*
X650081D01*
X640488Y360828D02*
X650081D01*
X640038Y360378D02*
X650081D01*
X639588Y359928D02*
X650081D01*
X639138Y359478D02*
X650081D01*
X558988Y359028D02*
X650081D01*
X558538Y358578D02*
X650081D01*
X558088Y358128D02*
X650081D01*
X557638Y357678D02*
X650081D01*
X557188Y357228D02*
X650081D01*
X556738Y356778D02*
X650081D01*
X556288Y356328D02*
X650081D01*
X555838Y355878D02*
X650081D01*
X555388Y355428D02*
X650081D01*
X554938Y354978D02*
X650081D01*
X554488Y354528D02*
X650081D01*
X554038Y354078D02*
X650081D01*
X553588Y353628D02*
X650081D01*
X553138Y353178D02*
X650081D01*
X552688Y352728D02*
X650081D01*
X552238Y352278D02*
X650081D01*
X551788Y351828D02*
X650081D01*
X551338Y351378D02*
X650081D01*
X550888Y350928D02*
X650081D01*
X550438Y350478D02*
X650081D01*
X549988Y350028D02*
X650081D01*
X549538Y349578D02*
X650081D01*
X549088Y349128D02*
X650081D01*
X548638Y348678D02*
X650081D01*
X548188Y348228D02*
X650081D01*
X547738Y347778D02*
X650081D01*
X547288Y347328D02*
X650081D01*
X546838Y346878D02*
X649853D01*
X546388Y346428D02*
X649403D01*
X545938Y345978D02*
X648953D01*
X545488Y345528D02*
X648503D01*
X545038Y345078D02*
X648053D01*
X544588Y344628D02*
X647603D01*
X559438Y359478D02*
X606752D01*
X559888Y359928D02*
X606302D01*
X560338Y360378D02*
X605852D01*
X560788Y360828D02*
X605402D01*
X561238Y361278D02*
X604952D01*
X561688Y361728D02*
X604502D01*
X562138Y362178D02*
X604052D01*
X562588Y362628D02*
X603602D01*
X563038Y363078D02*
X603152D01*
X595210Y371628D02*
X602948D01*
X594760Y371178D02*
X602948D01*
X594310Y370728D02*
X602948D01*
X593860Y370278D02*
X602948D01*
X593410Y369828D02*
X602948D01*
X592960Y369378D02*
X602948D01*
X592510Y368928D02*
X602948D01*
X592060Y368478D02*
X602948D01*
X591610Y368028D02*
X602948D01*
X577724Y367578D02*
X602948D01*
X577274Y367128D02*
X602948D01*
X576815Y366678D02*
X602948D01*
X576218Y366228D02*
X602948D01*
X575282Y365778D02*
X602948D01*
X565288Y365328D02*
X602948D01*
X564838Y364878D02*
X602948D01*
X564388Y364428D02*
X602948D01*
X563938Y363978D02*
X602948D01*
X563488Y363528D02*
X602948D01*
X602488Y372078D02*
X602848D01*
X595468D02*
X595937D01*
X544138Y344178D02*
X575321D01*
X543688Y343728D02*
X574871D01*
X543238Y343278D02*
X574421D01*
X542788Y342828D02*
X573971D01*
X542338Y342378D02*
X573521D01*
X541888Y341928D02*
X573071D01*
X541438Y341478D02*
X572621D01*
X540988Y341028D02*
X572171D01*
X540538Y340578D02*
X571721D01*
X540088Y340128D02*
X571271D01*
X539638Y339678D02*
X570821D01*
X539188Y339228D02*
X570371D01*
X538738Y338778D02*
X569921D01*
X538288Y338328D02*
X569471D01*
X537838Y337878D02*
X569021D01*
X537388Y337428D02*
X568571D01*
X536938Y336978D02*
X568121D01*
X536488Y336528D02*
X567671D01*
X536038Y336078D02*
X567221D01*
X535588Y335628D02*
X566771D01*
X535138Y335178D02*
X566321D01*
X534688Y334728D02*
X565871D01*
X534238Y334278D02*
X565421D01*
X533788Y333828D02*
X564971D01*
X533338Y333378D02*
X564521D01*
X532888Y332928D02*
X564071D01*
X532438Y332478D02*
X563621D01*
X531988Y332028D02*
X563171D01*
X550614Y431028D02*
X563136D01*
X550152Y430578D02*
X563136D01*
X549691Y430128D02*
X563136D01*
X549229Y429678D02*
X563136D01*
X548767Y429228D02*
X563136D01*
X548305Y428778D02*
X563136D01*
X547844Y428328D02*
X563136D01*
X547382Y427878D02*
X563136D01*
X546920Y427428D02*
X563136D01*
X546458Y426978D02*
X563136D01*
X559287Y431478D02*
X563050D01*
X545997Y426528D02*
X562789D01*
X531538Y331578D02*
X562721D01*
X560892Y431928D02*
X562600D01*
X545535Y426078D02*
X562339D01*
X531088Y331128D02*
X562271D01*
X561851Y432378D02*
X562145D01*
X545073Y425628D02*
X561889D01*
X530638Y330678D02*
X561821D01*
X544611Y425178D02*
X561439D01*
X530188Y330228D02*
X561371D01*
X529738Y329778D02*
X560921D01*
X417240Y329328D02*
X560471D01*
X417690Y328878D02*
X560021D01*
X418140Y328428D02*
X559571D01*
X418590Y327978D02*
X559121D01*
X419040Y327528D02*
X558671D01*
X544150Y424728D02*
X558233D01*
X419490Y327078D02*
X558221D01*
X543688Y424278D02*
X557783D01*
X419940Y326628D02*
X557771D01*
X543226Y423828D02*
X557333D01*
X420390Y326178D02*
X557321D01*
X542764Y423378D02*
X556883D01*
X420840Y325728D02*
X556871D01*
X542303Y422928D02*
X556433D01*
X421290Y325278D02*
X556421D01*
X541841Y422478D02*
X555983D01*
X421740Y324828D02*
X555971D01*
X541379Y422028D02*
X555533D01*
X422190Y324378D02*
X555521D01*
X540917Y421578D02*
X555083D01*
X422640Y323928D02*
X555071D01*
X540456Y421128D02*
X554633D01*
X423090Y323478D02*
X554621D01*
X539994Y420678D02*
X554183D01*
X423540Y323028D02*
X554171D01*
X539532Y420228D02*
X553733D01*
X423990Y322578D02*
X553721D01*
X539070Y419778D02*
X553283D01*
X424440Y322128D02*
X553271D01*
X538609Y419328D02*
X552833D01*
X424890Y321678D02*
X552821D01*
X538378Y418878D02*
X552383D01*
X425340Y321228D02*
X552371D01*
X538378Y418428D02*
X551933D01*
X425790Y320778D02*
X551921D01*
X538378Y417978D02*
X551483D01*
X426240Y320328D02*
X551471D01*
X538378Y417528D02*
X551033D01*
X426690Y319878D02*
X551021D01*
X538378Y417078D02*
X550583D01*
X427140Y319428D02*
X550571D01*
X538378Y416628D02*
X550133D01*
X427590Y318978D02*
X550121D01*
X538378Y416178D02*
X549683D01*
X428040Y318528D02*
X549671D01*
X538378Y415728D02*
X549356D01*
X538378Y415278D02*
X549356D01*
X538378Y414828D02*
X549356D01*
X538378Y414378D02*
X549356D01*
X538378Y413928D02*
X549356D01*
X538378Y413478D02*
X549356D01*
X538378Y413028D02*
X549356D01*
X538378Y412578D02*
X549356D01*
X538378Y412128D02*
X549356D01*
X538378Y411678D02*
X549356D01*
X538378Y411228D02*
X549356D01*
X538378Y410778D02*
X549356D01*
X538378Y410328D02*
X549356D01*
X538378Y409878D02*
X549356D01*
X538282Y409428D02*
X549356D01*
X537832Y408978D02*
X549356D01*
X537382Y408528D02*
X549356D01*
X536932Y408078D02*
X549356D01*
X536482Y407628D02*
X549356D01*
X536032Y407178D02*
X549356D01*
X535582Y406728D02*
X549356D01*
X535132Y406278D02*
X549356D01*
X534682Y405828D02*
X549356D01*
X428490Y318078D02*
X549221D01*
X405771Y405378D02*
X549119D01*
X428940Y317628D02*
X548771D01*
X405320Y404928D02*
X548669D01*
X429390Y317178D02*
X548321D01*
X404870Y404478D02*
X548219D01*
X429840Y316728D02*
X547871D01*
X404420Y404028D02*
X547769D01*
X430290Y316278D02*
X547421D01*
X403970Y403578D02*
X547319D01*
X430740Y315828D02*
X546971D01*
X403520Y403128D02*
X546869D01*
X431190Y315378D02*
X546521D01*
X403070Y402678D02*
X546419D01*
X431640Y314928D02*
X546071D01*
X402620Y402228D02*
X545969D01*
X432090Y314478D02*
X545621D01*
X402170Y401778D02*
X545519D01*
X401720Y401328D02*
X545069D01*
X401270Y400878D02*
X544619D01*
X400820Y400428D02*
X544169D01*
X400370Y399978D02*
X543719D01*
X399920Y399528D02*
X543269D01*
X399470Y399078D02*
X542819D01*
X399020Y398628D02*
X542369D01*
X416790Y329778D02*
X435186D01*
X416340Y330228D02*
X434736D01*
X405981Y330678D02*
X434286D01*
X405522Y331128D02*
X433836D01*
X405072Y331578D02*
X433386D01*
X404622Y332028D02*
X432936D01*
X404172Y332478D02*
X432486D01*
X403722Y332928D02*
X432036D01*
X403272Y333378D02*
X431586D01*
X402822Y333828D02*
X431136D01*
X402372Y334278D02*
X430686D01*
X401922Y334728D02*
X430236D01*
X401472Y335178D02*
X429786D01*
X401022Y335628D02*
X429336D01*
X400572Y336078D02*
X428886D01*
X400122Y336528D02*
X428436D01*
X399672Y336978D02*
X427986D01*
X399222Y337428D02*
X427536D01*
X398772Y337878D02*
X427086D01*
X398322Y338328D02*
X426636D01*
X420923Y338778D02*
X426186D01*
X421373Y339228D02*
X425736D01*
X422983Y347328D02*
X425304D01*
X422983Y346878D02*
X425304D01*
X422983Y346428D02*
X425304D01*
X422983Y345978D02*
X425304D01*
X422983Y345528D02*
X425304D01*
X422980Y345078D02*
X425304D01*
X422951Y344628D02*
X425304D01*
X422951Y344178D02*
X425304D01*
X422951Y343728D02*
X425304D01*
X422951Y343278D02*
X425304D01*
X422942Y342828D02*
X425304D01*
X422888Y342378D02*
X425304D01*
X422784Y341928D02*
X425304D01*
X422625Y341478D02*
X425304D01*
X422406Y341028D02*
X425304D01*
X422115Y340578D02*
X425304D01*
X421730Y340128D02*
X425304D01*
X421657Y339678D02*
X425304D01*
X398570Y398178D02*
X412392D01*
X397872Y338778D02*
X412246D01*
X398120Y397728D02*
X411942D01*
X397422Y339228D02*
X411796D01*
X397670Y397278D02*
X411492D01*
X396972Y339678D02*
X411346D01*
X397220Y396828D02*
X411042D01*
X396522Y340128D02*
X410896D01*
X396770Y396378D02*
X410592D01*
X396313Y340578D02*
X410446D01*
X396339Y395928D02*
X410142D01*
X396313Y341028D02*
X409996D01*
X396313Y395478D02*
X409692D01*
X396313Y341478D02*
X409546D01*
X396313Y395028D02*
X409242D01*
X396313Y341928D02*
X409096D01*
X396313Y394578D02*
X408792D01*
X396313Y342378D02*
X408646D01*
X396313Y394128D02*
X408342D01*
X396313Y342828D02*
X408196D01*
X396313Y393678D02*
X407892D01*
X396313Y343278D02*
X407746D01*
X396313Y393228D02*
X407442D01*
X396313Y343728D02*
X407296D01*
X396313Y392778D02*
X406992D01*
X396313Y344178D02*
X406846D01*
X396313Y392328D02*
X406542D01*
X396313Y344628D02*
X406396D01*
X396313Y391878D02*
X406092D01*
X396313Y345078D02*
X405946D01*
X396313Y391428D02*
X405642D01*
X396313Y345528D02*
X405496D01*
X396313Y390978D02*
X405192D01*
X396313Y345978D02*
X405046D01*
X396313Y390528D02*
X404742D01*
X396313Y346428D02*
X404596D01*
X396313Y390078D02*
X404474D01*
X396313Y389628D02*
X404474D01*
X396313Y389178D02*
X404474D01*
X396313Y388728D02*
X404474D01*
X396313Y388278D02*
X404474D01*
X396313Y387828D02*
X404474D01*
X396313Y387378D02*
X404474D01*
X396313Y386928D02*
X404474D01*
X396313Y386478D02*
X404474D01*
X396313Y386028D02*
X404474D01*
X396313Y385578D02*
X404474D01*
X396313Y385128D02*
X404474D01*
X396313Y384678D02*
X404474D01*
X396313Y384228D02*
X404474D01*
X396313Y383778D02*
X404474D01*
X396313Y383328D02*
X404474D01*
X396313Y382878D02*
X404474D01*
X396313Y382428D02*
X404474D01*
X396313Y381978D02*
X404474D01*
X396313Y381528D02*
X404474D01*
X396313Y381078D02*
X404474D01*
X396313Y380628D02*
X404474D01*
X396313Y380178D02*
X404474D01*
X396313Y379728D02*
X404474D01*
X396313Y379278D02*
X404474D01*
X396313Y378828D02*
X404474D01*
X396313Y378378D02*
X404474D01*
X396313Y377928D02*
X404474D01*
X396313Y377478D02*
X404474D01*
X396313Y377028D02*
X404474D01*
X396313Y376578D02*
X404474D01*
X396313Y376128D02*
X404474D01*
X396313Y375678D02*
X404474D01*
X396313Y375228D02*
X404474D01*
X396313Y374778D02*
X404474D01*
X396313Y374328D02*
X404474D01*
X396313Y373878D02*
X404474D01*
X396313Y373428D02*
X404474D01*
X396313Y372978D02*
X404474D01*
X396313Y372528D02*
X404474D01*
X396313Y372078D02*
X404474D01*
X396313Y371628D02*
X404474D01*
X396313Y371178D02*
X404474D01*
X396313Y370728D02*
X404474D01*
X396313Y370278D02*
X404474D01*
X396313Y369828D02*
X404474D01*
X396313Y369378D02*
X404474D01*
X396313Y368928D02*
X404474D01*
X396313Y368478D02*
X404474D01*
X396313Y368028D02*
X404474D01*
X396313Y367578D02*
X404474D01*
X396313Y367128D02*
X404474D01*
X396313Y366678D02*
X404474D01*
X396313Y366228D02*
X404474D01*
X396313Y365778D02*
X404474D01*
X396313Y365328D02*
X404474D01*
X396313Y364878D02*
X404474D01*
X396313Y364428D02*
X404474D01*
X396313Y363978D02*
X404474D01*
X396313Y363528D02*
X404474D01*
X396313Y363078D02*
X404474D01*
X396313Y362628D02*
X404474D01*
X396313Y362178D02*
X404474D01*
X396313Y361728D02*
X404474D01*
X396313Y361278D02*
X404474D01*
X396313Y360828D02*
X404474D01*
X396313Y360378D02*
X404474D01*
X396313Y359928D02*
X404474D01*
X396313Y359478D02*
X404474D01*
X396313Y359028D02*
X404474D01*
X396313Y358578D02*
X404474D01*
X396313Y358128D02*
X404474D01*
X396313Y357678D02*
X404474D01*
X396313Y357228D02*
X404474D01*
X396313Y356778D02*
X404474D01*
X396313Y356328D02*
X404474D01*
X396313Y355878D02*
X404474D01*
X396313Y355428D02*
X404474D01*
X396313Y354978D02*
X404474D01*
X396313Y354528D02*
X404474D01*
X396313Y354078D02*
X404474D01*
X396313Y353628D02*
X404474D01*
X396313Y353178D02*
X404474D01*
X396313Y352728D02*
X404474D01*
X396313Y352278D02*
X404474D01*
X396313Y351828D02*
X404474D01*
X396313Y351378D02*
X404474D01*
X396313Y350928D02*
X404474D01*
X396313Y350478D02*
X404474D01*
X396313Y350028D02*
X404474D01*
X396313Y349578D02*
X404474D01*
X396313Y349128D02*
X404474D01*
X396313Y348678D02*
X404474D01*
X396313Y348228D02*
X404474D01*
X396313Y347778D02*
X404474D01*
X396313Y347328D02*
X404474D01*
X396313Y346878D02*
X404474D01*
X548563Y397941D02*
X601333D01*
X548113Y397491D02*
X601333D01*
X547663Y397041D02*
X601333D01*
X547213Y396591D02*
X601333D01*
X546763Y396141D02*
X601333D01*
X546313Y395691D02*
X601333D01*
X545863Y395241D02*
X601333D01*
X549013Y398391D02*
X601270D01*
X545413Y394791D02*
X601152D01*
X544963Y394341D02*
X600907D01*
X549463Y398841D02*
X600821D01*
X544513Y393891D02*
X600723D01*
X544063Y393441D02*
X600593D01*
X600111Y392991D02*
X600400D01*
X549913Y399291D02*
X600371D01*
X543613Y392991D02*
X598388D01*
X543163Y392541D02*
X595157D01*
X419752Y392091D02*
X594325D01*
X563024Y399741D02*
X580252D01*
X563474Y400191D02*
X579802D01*
X563801Y400641D02*
X579352D01*
X553574Y453741D02*
X579309D01*
X553273Y453291D02*
X579309D01*
X553273Y452841D02*
X579309D01*
X553273Y452391D02*
X579309D01*
X553273Y451941D02*
X579309D01*
X553273Y451491D02*
X579309D01*
X553273Y451041D02*
X579309D01*
X553273Y450591D02*
X579309D01*
X553273Y450141D02*
X579309D01*
X553273Y449691D02*
X579309D01*
X553273Y449241D02*
X579309D01*
X553273Y448791D02*
X579309D01*
X553483Y448341D02*
X579309D01*
X553944Y447891D02*
X579309D01*
X560457Y447441D02*
X579309D01*
X561551Y446991D02*
X579309D01*
X562342Y446541D02*
X579309D01*
X562974Y446091D02*
X579309D01*
X570346Y445641D02*
X579309D01*
X570796Y445191D02*
X579309D01*
X571246Y444741D02*
X579309D01*
X571696Y444291D02*
X579309D01*
X572146Y443841D02*
X579309D01*
X572577Y443391D02*
X579309D01*
X572577Y442941D02*
X579309D01*
X572577Y442491D02*
X579309D01*
X572577Y442041D02*
X579309D01*
X572577Y441591D02*
X579309D01*
X572577Y441141D02*
X579309D01*
X572577Y440691D02*
X579309D01*
X572577Y440241D02*
X579309D01*
X572577Y439791D02*
X579309D01*
X572577Y439341D02*
X579309D01*
X572577Y438891D02*
X579309D01*
X572577Y438441D02*
X579309D01*
X572577Y437991D02*
X579309D01*
X572577Y437541D02*
X579309D01*
X572577Y437091D02*
X579309D01*
X572577Y436641D02*
X579309D01*
X572577Y436191D02*
X579309D01*
X572577Y435741D02*
X579309D01*
X572577Y435291D02*
X579309D01*
X572577Y434841D02*
X579309D01*
X572577Y434391D02*
X579309D01*
X572577Y433941D02*
X579309D01*
X572577Y433491D02*
X579309D01*
X572577Y433041D02*
X579309D01*
X572577Y432591D02*
X579309D01*
X572577Y432141D02*
X579309D01*
X572577Y431691D02*
X579309D01*
X572577Y431241D02*
X579309D01*
X572577Y430791D02*
X579309D01*
X572577Y430341D02*
X579309D01*
X572577Y429891D02*
X579309D01*
X572577Y429441D02*
X579309D01*
X572577Y428991D02*
X579309D01*
X572577Y428541D02*
X579309D01*
X572577Y428091D02*
X579309D01*
X572577Y427641D02*
X579309D01*
X572577Y427191D02*
X579309D01*
X572577Y426741D02*
X579309D01*
X572577Y426291D02*
X579309D01*
X572577Y425841D02*
X579309D01*
X572577Y425391D02*
X579309D01*
X572577Y424941D02*
X579309D01*
X572577Y424491D02*
X579309D01*
X572577Y424041D02*
X579309D01*
X572577Y423591D02*
X579309D01*
X572577Y423141D02*
X579309D01*
X572577Y422691D02*
X579309D01*
X572577Y422241D02*
X579309D01*
X572577Y421791D02*
X579309D01*
X572577Y421341D02*
X579309D01*
X572577Y420891D02*
X579309D01*
X572577Y420441D02*
X579309D01*
X572577Y419991D02*
X579309D01*
X572577Y419541D02*
X579309D01*
X572577Y419091D02*
X579309D01*
X572577Y418641D02*
X579309D01*
X572577Y418191D02*
X579309D01*
X572577Y417741D02*
X579309D01*
X572577Y417291D02*
X579309D01*
X572577Y416841D02*
X579309D01*
X572422Y416391D02*
X579309D01*
X571972Y415941D02*
X579309D01*
X571522Y415491D02*
X579309D01*
X571072Y415041D02*
X579309D01*
X570622Y414591D02*
X579309D01*
X570172Y414141D02*
X579309D01*
X569722Y413691D02*
X579309D01*
X569272Y413241D02*
X579309D01*
X568822Y412791D02*
X579309D01*
X568372Y412341D02*
X579309D01*
X567922Y411891D02*
X579309D01*
X567472Y411441D02*
X579309D01*
X567022Y410991D02*
X579309D01*
X566572Y410541D02*
X579309D01*
X566122Y410091D02*
X579309D01*
X565672Y409641D02*
X579309D01*
X565222Y409191D02*
X579309D01*
X564772Y408741D02*
X579309D01*
X564322Y408291D02*
X579309D01*
X563872Y407841D02*
X579309D01*
X563801Y407391D02*
X579309D01*
X563801Y406941D02*
X579309D01*
X563801Y406491D02*
X579309D01*
X563801Y406041D02*
X579309D01*
X563801Y405591D02*
X579309D01*
X563801Y405141D02*
X579309D01*
X563801Y404691D02*
X579309D01*
X563801Y404241D02*
X579309D01*
X563801Y403791D02*
X579309D01*
X563801Y403341D02*
X579309D01*
X563801Y402891D02*
X579309D01*
X563801Y402441D02*
X579309D01*
X563801Y401991D02*
X579309D01*
X563801Y401541D02*
X579309D01*
X563801Y401091D02*
X579309D01*
X419302Y391641D02*
X576725D01*
X418852Y391191D02*
X576275D01*
X418402Y390741D02*
X575825D01*
X417952Y390291D02*
X575539D01*
X562677Y389841D02*
X575539D01*
X563127Y389391D02*
X575539D01*
X563577Y388941D02*
X575539D01*
X564027Y388491D02*
X575539D01*
X564226Y388041D02*
X575539D01*
X564226Y387591D02*
X575539D01*
X564226Y387141D02*
X575539D01*
X564226Y386691D02*
X575539D01*
X564226Y386241D02*
X575539D01*
X564226Y385791D02*
X575539D01*
X564226Y385341D02*
X575539D01*
X564226Y384891D02*
X575539D01*
X564226Y384441D02*
X575539D01*
X564226Y383991D02*
X575539D01*
X564226Y383541D02*
X575539D01*
X564226Y383091D02*
X575539D01*
X564226Y382641D02*
X575539D01*
X564226Y382191D02*
X575539D01*
X564226Y381741D02*
X575539D01*
X564226Y381291D02*
X575539D01*
X564226Y380841D02*
X575539D01*
X564226Y380391D02*
X575539D01*
X564226Y379941D02*
X575539D01*
X564226Y379491D02*
X575539D01*
X564041Y379041D02*
X575539D01*
X563591Y378591D02*
X575539D01*
X563141Y378141D02*
X575539D01*
X547730Y377691D02*
X575539D01*
X547280Y377241D02*
X575539D01*
X546830Y376791D02*
X575539D01*
X546380Y376341D02*
X575539D01*
X545930Y375891D02*
X575539D01*
X545480Y375441D02*
X575539D01*
X545030Y374991D02*
X575539D01*
X544580Y374541D02*
X575539D01*
X544130Y374091D02*
X575539D01*
X543680Y373641D02*
X575539D01*
X543230Y373191D02*
X575539D01*
X542780Y372741D02*
X575539D01*
X542330Y372291D02*
X567036D01*
X541880Y371841D02*
X565723D01*
X541430Y371391D02*
X565031D01*
X540980Y370941D02*
X564537D01*
X540530Y370491D02*
X564087D01*
X540080Y370041D02*
X563591D01*
X539630Y369591D02*
X559002D01*
X539180Y369141D02*
X558552D01*
X538730Y368691D02*
X558102D01*
X538280Y368241D02*
X557652D01*
X537830Y367791D02*
X557202D01*
X537380Y367341D02*
X556752D01*
X536930Y366891D02*
X556302D01*
X536480Y366441D02*
X555852D01*
X536030Y365991D02*
X555402D01*
X535580Y365541D02*
X554952D01*
X417502Y389841D02*
X554547D01*
X535130Y365091D02*
X554502D01*
X417052Y389391D02*
X554097D01*
X534680Y364641D02*
X554052D01*
X416602Y388941D02*
X553647D01*
X534230Y364191D02*
X553602D01*
X416152Y388491D02*
X553197D01*
X528268Y363741D02*
X553152D01*
X415702Y388041D02*
X552747D01*
X527818Y363291D02*
X552702D01*
X415252Y387591D02*
X552297D01*
X527368Y362841D02*
X552252D01*
X414802Y387141D02*
X551847D01*
X526918Y362391D02*
X551802D01*
X414352Y386691D02*
X551397D01*
X526468Y361941D02*
X551352D01*
X413902Y386241D02*
X550947D01*
X526018Y361491D02*
X550902D01*
X413452Y385791D02*
X550497D01*
X525568Y361041D02*
X550452D01*
X413002Y385341D02*
X550047D01*
X525118Y360591D02*
X550002D01*
X412552Y384891D02*
X549597D01*
X524668Y360141D02*
X549552D01*
X412102Y384441D02*
X549147D01*
X524218Y359691D02*
X549102D01*
X411652Y383991D02*
X548697D01*
X523872Y359241D02*
X548652D01*
X411202Y383541D02*
X548247D01*
X523872Y358791D02*
X548202D01*
X410752Y383091D02*
X547797D01*
X523872Y358341D02*
X547752D01*
X410302Y382641D02*
X547347D01*
X523872Y357891D02*
X547302D01*
X409852Y382191D02*
X546897D01*
X523872Y357441D02*
X546852D01*
X409402Y381741D02*
X546447D01*
X523872Y356991D02*
X546402D01*
X409053Y381291D02*
X545997D01*
X523872Y356541D02*
X545952D01*
X409053Y380841D02*
X545547D01*
X523872Y356091D02*
X545502D01*
X523872Y355641D02*
X545052D01*
X523872Y355191D02*
X544602D01*
X523872Y354741D02*
X544152D01*
X523872Y354291D02*
X543702D01*
X523872Y353841D02*
X543252D01*
X523872Y353391D02*
X542802D01*
X523872Y352941D02*
X542352D01*
X523872Y352491D02*
X541902D01*
X523872Y352041D02*
X541452D01*
X523872Y351591D02*
X541002D01*
X523872Y351141D02*
X540552D01*
X523872Y350691D02*
X540102D01*
X523872Y350241D02*
X539652D01*
X523872Y349791D02*
X539202D01*
X523885Y349341D02*
X538752D01*
X524297Y348891D02*
X538302D01*
X524747Y348441D02*
X537852D01*
X525197Y347991D02*
X537402D01*
X409053Y380391D02*
X419851D01*
X409053Y379941D02*
X419401D01*
X409053Y379491D02*
X418951D01*
X409053Y379041D02*
X418501D01*
X409053Y378591D02*
X418051D01*
X409053Y378141D02*
X417601D01*
X409053Y377691D02*
X417151D01*
X409053Y377241D02*
X416701D01*
X409053Y376791D02*
X416251D01*
X409053Y376341D02*
X416113D01*
X409053Y375891D02*
X416113D01*
X409053Y375441D02*
X416113D01*
X409053Y374991D02*
X416113D01*
X409053Y374541D02*
X416113D01*
X409053Y374091D02*
X416113D01*
X409053Y373641D02*
X416113D01*
X409053Y373191D02*
X416113D01*
X409053Y372741D02*
X416113D01*
X409053Y372291D02*
X416113D01*
X409053Y371841D02*
X416113D01*
X409053Y371391D02*
X416113D01*
X409053Y370941D02*
X416113D01*
X409053Y370491D02*
X416113D01*
X409053Y370041D02*
X416113D01*
X409053Y369591D02*
X416113D01*
X409053Y369141D02*
X416113D01*
X409053Y368691D02*
X416113D01*
X409053Y368241D02*
X416113D01*
X409053Y367791D02*
X416113D01*
X409053Y367341D02*
X416113D01*
X409053Y366891D02*
X416113D01*
X409053Y366441D02*
X416113D01*
X409053Y365991D02*
X416113D01*
X409053Y365541D02*
X416113D01*
X409053Y365091D02*
X416113D01*
X409053Y364641D02*
X416113D01*
X409053Y364191D02*
X416113D01*
X409053Y363741D02*
X416113D01*
X409053Y363291D02*
X416113D01*
X409053Y362841D02*
X416113D01*
X409112Y362391D02*
X416112D01*
G54D50*
X307874Y349606D03*
X631496Y313780D03*
X640157Y530315D03*
X307480Y507480D03*
X379643Y324514D02*
X373755Y326639D01*
X375879Y320751*
X373755Y326639D02*
X376619Y323775D01*
X328549Y383154D02*
X325000Y375600D01*
X321451Y383154*
X325000Y375600D02*
Y381000D01*
X378740Y321654D02*
X344094Y356299D01*
X331890*
X325000Y363189*
Y385000*
X423425Y335237D02*
Y345276D01*
X555967Y430208D02*
X554551Y426283D01*
X558476Y427699*
X423425Y335237D02*
X423228Y335433D01*
X411024*
X401181Y345276*
Y392913*
X409055Y400787*
X537008*
X544094Y407874*
Y415827*
X557874Y429606*
X531700Y324315D02*
X537365Y321654D01*
X531700Y318992*
X537365Y321654D02*
X533315D01*
X571459Y362975D02*
X569685Y359198D01*
X567911Y362975*
X530315Y321654D02*
X539370D01*
X569685Y351969*
Y363898*
X528931Y324315D02*
X523265Y321654D01*
X528931Y318992*
X523265Y321654D02*
X527315D01*
X530315D02*
X437008D01*
X423425Y335237*
X423535Y364205D02*
X425078Y361753D01*
X426622Y364205*
X416733Y345276D02*
Y351181D01*
X425078Y359527*
Y366929*
X529412Y356010D02*
X535300Y358135D01*
X533176Y352247*
X535300Y358135D02*
X532436Y355271D01*
X568762Y375672D02*
X564985Y373898D01*
X568762Y372123*
X530315Y353150D02*
X530315D01*
X551063Y373898*
X569685*
X628863Y356698D02*
X621309Y353150D01*
X628863Y349601*
X621309Y353150D02*
X626709D01*
X630709D02*
X611024D01*
X604331*
X599213Y358268*
Y371457*
X632617Y356665D02*
X639764Y353150D01*
X632617Y349634*
X639764Y353150D02*
X634709D01*
X632844Y498894D02*
X640088Y494882D01*
X632164Y491786*
X640088Y494882D02*
X634699Y495241D01*
X630709Y353150D02*
X639764D01*
X646457Y359843*
Y488976*
X640551Y494882*
X631339*
X630709Y495512*
X381402Y365558D02*
X378740Y371223D01*
X376079Y365558*
X378740Y371223D02*
Y367173D01*
X326846Y408549D02*
X334400Y405000D01*
X326846Y401451*
X334400Y405000D02*
X329000D01*
X378740Y364173D02*
Y374409D01*
X348150Y405000*
X325000*
X411134Y369654D02*
X412677Y372106D01*
X414221Y369654*
X412677Y366929D02*
Y379921D01*
X420945Y388189*
X444488*
X570608Y365672D02*
X574385Y363898D01*
X570608Y362123*
X569685Y363898D02*
X587795D01*
X595276Y371378*
X599133*
X599213Y371457*
X571459Y374821D02*
X569685Y378598D01*
X567911Y374821*
X569685Y373898D02*
Y390364D01*
X634257Y374995D02*
X630709Y382550D01*
X627160Y374995*
X630709Y382550D02*
Y377150D01*
Y373150D02*
Y387008D01*
X627165Y390551*
X607250*
X542520Y384646D02*
X448031D01*
X444488Y388189*
X542520Y384646D02*
X552175Y394301D01*
X566348*
X573622D02*
X599250D01*
X569685D02*
X566348D01*
X569685Y397638*
Y394301*
X573022*
X573622D02*
X573022D01*
X569685Y397638*
X573622Y394301D02*
X569685Y390364D01*
Y390965*
Y394301D02*
Y390965D01*
X566348Y394301*
X569685Y397638D02*
Y406299D01*
X576969Y413583*
Y449606*
X599213Y378149D02*
Y386764D01*
X599250Y386801*
X326846Y428549D02*
X334400Y425000D01*
X326846Y421451*
X334400Y425000D02*
X329000D01*
X524415Y443823D02*
X520866Y436269D01*
X517318Y443823*
X520866Y436269D02*
Y441669D01*
X325000Y425000D02*
X510827D01*
X520866Y435039*
Y445669*
X326846Y448549D02*
X334400Y445000D01*
X326846Y441451*
X334400Y445000D02*
X329000D01*
X325000D02*
X362717D01*
X378268Y460551*
Y478740*
X406028Y506500*
X427752*
X470989Y449218D02*
X463435Y445669D01*
X470989Y442121*
X463435Y445669D02*
X468835D01*
X472835D02*
X406299D01*
X398425Y453543*
Y483858*
X405906Y491339*
X412284*
X558797Y451381D02*
X562574Y449606D01*
X558797Y447832*
X576969Y449606D02*
X557874D01*
X628863Y459060D02*
X621309Y455512D01*
X628863Y451963*
X621309Y455512D02*
X626709D01*
X589961Y449606D02*
X611024D01*
X616929Y455512*
X630709*
X328549Y466846D02*
X325000Y474400D01*
X321451Y466846*
X325000Y474400D02*
Y469000D01*
Y465000D02*
Y478150D01*
X375197Y528346*
X499213*
X427055Y476409D02*
X425512Y473957D01*
X423968Y476409*
X424607Y465354D02*
Y472323D01*
X425512Y473228*
Y479134*
X466165Y473106D02*
X458314Y475938D01*
X461146Y468087*
X458314Y475938D02*
X462132Y472120D01*
X464961Y469291D02*
X448425Y485827D01*
Y503350*
X445276Y506500*
X427752*
X427055Y481858D02*
X425078Y484310D01*
X423968Y481858*
X423535Y488220D02*
X425078Y485768D01*
X426622Y488220*
X425512Y479134D02*
X425078Y479567D01*
Y490945*
X414654Y481858D02*
X413111Y484310D01*
X411567Y481858*
X411134Y488220D02*
X412677Y485768D01*
X414221Y488220*
X413111Y479134D02*
Y484606D01*
X412677Y485039*
Y490945*
X411301Y488220D02*
X408849Y491339D01*
X411301Y493669*
X408849Y491339D02*
X411301Y490945D01*
X412677D02*
X412284Y491339D01*
X504882Y479134D02*
X504724Y479291D01*
X524415Y494759D02*
X520866Y502313D01*
X517318Y494759*
X520866Y502313D02*
Y496913D01*
Y492913D02*
Y506693D01*
X499213Y528346*
G54D53*
X557874Y439606D03*
Y429606D03*
X569685Y363898D03*
X557874Y439606D02*
X550551D01*
X538189Y451969*
Y459291*
G54D55*
X300000Y300000D02*
X654331D01*
Y548031*
X300000*
Y300000*
X290157Y548031D02*
X309843D01*
X300000Y557874D02*
Y538189D01*
X290157Y300000D02*
X309843D01*
X300000Y309843D02*
Y290157D01*
X644488Y300000D02*
X664173D01*
X654331Y309843D02*
Y290157D01*
X644488Y548031D02*
X664173D01*
X654331Y557874D02*
Y538189D01*
G54D58*
X325000Y385000D03*
Y445000D03*
Y425000D03*
X472835Y445669D03*
Y492913D03*
X464961Y469291D03*
X520866Y445669D03*
Y492913D03*
X630709Y475512D03*
Y495512D03*
Y373150D03*
G54D67*
X530315Y353150D03*
Y321654D03*
X378740D03*
Y364173D03*
G54D69*
X557874Y449606D03*
X569685Y373898D03*
G54D70*
X325000Y405000D03*
Y465000D03*
X630709Y455512D03*
Y353150D03*
G54D114*
X425078Y366929D03*
X412677D03*
X425078Y490945D03*
X412677D03*
X413111Y479134D03*
X425512D03*
G54D115*
X423425Y345276D03*
X416733D03*
X431299Y465354D03*
X424607D03*
G54D116*
X325591Y323622D03*
X595276D03*
Y528346D03*
X325984D03*
G54D117*
X504724Y459291D03*
Y479291D03*
X538189D03*
Y459291D03*
G54D118*
X488976Y462598D03*
Y475984D03*
X520472D03*
Y462598D03*
G54D119*
X599250Y386801D03*
Y394301D03*
X607250Y390551D03*
G54D120*
X599213Y371457D03*
Y378149D03*
G54D121*
X576969Y449606D03*
X589961D03*
G54D122*
X476645Y490714D02*
X472835Y483465D01*
X469024Y490714*
X473736Y488607D02*
X472835Y483465D01*
X471934Y488607*
X444882Y456299D02*
X468799D01*
X477953Y465453*
Y478346*
X472835Y483465*
Y492913*
X444882Y456299D02*
X435827Y465354D01*
X431299*
G54D123*
X474219Y448331D02*
X479885Y445669D01*
X474219Y443008*
X472835Y445669D02*
X482283D01*
X488976Y452362*
Y462598*
Y475984D02*
X495512D01*
X498819Y479291*
X504724*
X474219Y495575D02*
X479885Y492913D01*
X474219Y490252*
X488976Y475984D02*
Y485433D01*
X481496Y492913*
X472835*
X504724Y459291D02*
X498819D01*
X495512Y462598*
X488976*
X504724Y459291D02*
X509843D01*
X513150Y462598*
X520472*
Y475984D02*
X513780D01*
X510630Y479134*
X504882*
X520472Y475984D02*
X528740D01*
X532047Y479291*
X538189*
Y459291D02*
X531654D01*
X528346Y462598*
X520472*
X629324Y478173D02*
X623659Y475512D01*
X629324Y472850*
X630709Y475512D02*
X617953D01*
X614173Y479291*
X538189*
G74*
X0Y0D02*
M02*
