*
*
G04 PADS VX.2.2 Build Number: 7607494 generated Gerber (RS-274-X) file*
G04 PC Version=2.1*
*
%IN "L9.pcb"*%
*
%MOIN*%
*
%FSLAX35Y35*%
*
*
*
*
G04 PC Standard Apertures*
*
*
G04 Thermal Relief Aperture macro.*
%AMTER*
1,1,$1,0,0*
1,0,$1-$2,0,0*
21,0,$3,$4,0,0,45*
21,0,$3,$4,0,0,135*
%
*
*
G04 Annular Aperture macro.*
%AMANN*
1,1,$1,0,0*
1,0,$2,0,0*
%
*
*
G04 Odd Aperture macro.*
%AMODD*
1,1,$1,0,0*
1,0,$1-0.005,0,0*
%
*
*
G04 PC Custom Aperture Macros*
*
*
*
*
*
*
G04 PC Aperture Table*
*
%ADD010C,0.001*%
%ADD011C,0.01*%
%ADD055C,0.008*%
*
*
*
*
G04 PC Circuitry*
G04 Layer Name L9.pcb - circuitry*
%LPD*%
*
*
G04 PC Custom Flashes*
G04 Layer Name L9.pcb - flashes*
%LPD*%
*
*
G04 PC Circuitry*
G04 Layer Name L9.pcb - circuitry*
%LPD*%
*
G54D10*
G01X300000Y548031D02*
X300003D01*
X654331D02*
X654333D01*
X300000Y300000D02*
X300003D01*
X300000Y548031D02*
X300003D01*
G54D11*
X526315Y349150D02*
X534315Y357150D01*
X526315D02*
X534315Y349150D01*
X526315Y317654D02*
X534315Y325654D01*
X526315D02*
X534315Y317654D01*
X374740D02*
X382740Y325654D01*
X374740D02*
X382740Y317654D01*
X374740Y360173D02*
X382740Y368173D01*
X374740D02*
X382740Y360173D01*
X321000Y401000D02*
X329000D01*
Y409000*
X321000*
Y401000*
X325000Y405000D02*
Y409000D01*
X321000Y381000D02*
X329000D01*
Y389000*
X321000*
Y381000*
X325000Y385000D02*
Y389000D01*
X321000Y461000D02*
X329000D01*
Y469000*
X321000*
Y461000*
X325000Y465000D02*
Y469000D01*
X321000Y441000D02*
X329000D01*
Y449000*
X321000*
Y441000*
X325000Y445000D02*
Y449000D01*
X321000Y421000D02*
X329000D01*
Y429000*
X321000*
Y421000*
X325000Y425000D02*
Y429000D01*
X468835Y441669D02*
X476835D01*
Y449669*
X468835*
Y441669*
X472835Y445669D02*
Y449669D01*
X468835Y488913D02*
X476835D01*
Y496913*
X468835*
Y488913*
X472835Y492913D02*
Y496913D01*
X460961Y465291D02*
X468961D01*
Y473291*
X460961*
Y465291*
X464961Y469291D02*
Y473291D01*
X516866Y441669D02*
X524866D01*
Y449669*
X516866*
Y441669*
X520866Y445669D02*
Y449669D01*
X516866Y488913D02*
X524866D01*
Y496913*
X516866*
Y488913*
X520866Y492913D02*
Y496913D01*
X626709Y451512D02*
X634709D01*
Y459512*
X626709*
Y451512*
X630709Y455512D02*
Y459512D01*
X626709Y471512D02*
X634709D01*
Y479512*
X626709*
Y471512*
X630709Y475512D02*
Y479512D01*
X626709Y491512D02*
X634709D01*
Y499512*
X626709*
Y491512*
X630709Y495512D02*
Y499512D01*
X626709Y349150D02*
X634709D01*
Y357150*
X626709*
Y349150*
X630709Y353150D02*
Y357150D01*
X626709Y369150D02*
X634709D01*
Y377150*
X626709*
Y369150*
X630709Y373150D02*
Y377150D01*
X321591Y323622D02*
X329591D01*
X325591Y319622D02*
Y327622D01*
X591276Y323622D02*
X599276D01*
X595276Y319622D02*
Y327622D01*
X591276Y528346D02*
X599276D01*
X595276Y524346D02*
Y532346D01*
X321984Y528346D02*
X329984D01*
X325984Y524346D02*
Y532346D01*
X557874Y445606D02*
X561874Y449606D01*
X557874Y453606*
X553874Y449606*
X557874Y445606*
Y449606D02*
Y453606D01*
Y435606D02*
X561874Y439606D01*
X557874Y443606*
X553874Y439606*
X557874Y435606*
Y439606D02*
Y443606D01*
Y425606D02*
X561874Y429606D01*
X557874Y433606*
X553874Y429606*
X557874Y425606*
Y429606D02*
Y433606D01*
X569685Y369898D02*
X573685Y373898D01*
X569685Y377898*
X565685Y373898*
X569685Y369898*
Y373898D02*
Y377898D01*
Y359898D02*
X573685Y363898D01*
X569685Y367898*
X565685Y363898*
X569685Y359898*
Y363898D02*
Y367898D01*
X300000Y555906D02*
X316685D01*
X300000D02*
X310000Y558406D01*
Y553406*
X300000Y555906*
X654331D02*
X364049D01*
X654331D02*
X644331Y553406D01*
Y558406*
X654331Y555906*
X300000Y553031D02*
Y560906D01*
X654331Y553031D02*
Y560906D01*
X322640Y558312D02*
X322412Y557375D01*
X321958Y556750*
X321276Y556437*
X321049*
X320367Y556750*
X319912Y557375*
X319685Y558312*
Y558625*
X319912Y559562*
X320367Y560187*
X321049Y560500*
X321276*
X321958Y560187*
X322412Y559562*
X322640Y558312*
Y556750*
X322412Y555187*
X321958Y554250*
X321276Y553937*
X320821*
X320140Y554250*
X319912Y554875*
X326049Y560500D02*
X325367Y560187D01*
X324912Y559250*
X324685Y557687*
Y556750*
X324912Y555187*
X325367Y554250*
X326049Y553937*
X326503*
X327185Y554250*
X327640Y555187*
X327867Y556750*
Y557687*
X327640Y559250*
X327185Y560187*
X326503Y560500*
X326049*
X330140Y554562D02*
X329912Y554250D01*
X330140Y553937*
X330367Y554250*
X330140Y554562*
X333776Y560500D02*
X333094Y560187D01*
X332640Y559250*
X332412Y557687*
Y556750*
X332640Y555187*
X333094Y554250*
X333776Y553937*
X334230*
X334912Y554250*
X335367Y555187*
X335594Y556750*
Y557687*
X335367Y559250*
X334912Y560187*
X334230Y560500*
X333776*
X339003D02*
X338321Y560187D01*
X337867Y559250*
X337640Y557687*
Y556750*
X337867Y555187*
X338321Y554250*
X339003Y553937*
X339458*
X340140Y554250*
X340594Y555187*
X340821Y556750*
Y557687*
X340594Y559250*
X340140Y560187*
X339458Y560500*
X339003*
X344230D02*
X343549Y560187D01*
X343094Y559250*
X342867Y557687*
Y556750*
X343094Y555187*
X343549Y554250*
X344230Y553937*
X344685*
X345367Y554250*
X345821Y555187*
X346049Y556750*
Y557687*
X345821Y559250*
X345367Y560187*
X344685Y560500*
X344230*
X348094Y558312D02*
Y553937D01*
Y557062D02*
X348776Y558000D01*
X349230Y558312*
X349912*
X350367Y558000*
X350594Y557062*
Y553937*
Y557062D02*
X351276Y558000D01*
X351730Y558312*
X352412*
X352867Y558000*
X353094Y557062*
Y553937*
X355140Y558312D02*
Y553937D01*
Y557062D02*
X355821Y558000D01*
X356276Y558312*
X356958*
X357412Y558000*
X357640Y557062*
Y553937*
Y557062D02*
X358321Y558000D01*
X358776Y558312*
X359458*
X359912Y558000*
X360140Y557062*
Y553937*
X292126Y300000D02*
Y484008D01*
Y300000D02*
X289626Y310000D01*
X294626*
X292126Y300000*
Y548031D02*
Y531372D01*
Y548031D02*
X294626Y538031D01*
X289626*
X292126Y548031*
X295000Y300000D02*
X287126D01*
X295000Y548031D02*
X287126D01*
X288469Y489735D02*
X287844Y489508D01*
X287532Y488826*
Y488372*
X287844Y487690*
X288782Y487235*
X290344Y487008*
X291907*
X293157Y487235*
X293782Y487690*
X294094Y488372*
Y488599*
X293782Y489281*
X293157Y489735*
X292219Y489962*
X291907*
X290969Y489735*
X290344Y489281*
X290032Y488599*
Y488372*
X290344Y487690*
X290969Y487235*
X291907Y487008*
X287532Y492462D02*
Y494962D01*
X290032Y493599*
Y494281*
X290344Y494735*
X290657Y494962*
X291594Y495190*
X292219*
X293157Y494962*
X293782Y494508*
X294094Y493826*
Y493144*
X293782Y492462*
X293469Y492235*
X292844Y492008*
X293469Y497462D02*
X293782Y497235D01*
X294094Y497462*
X293782Y497690*
X293469Y497462*
X287532Y501099D02*
X287844Y500417D01*
X288782Y499962*
X290344Y499735*
X291282*
X292844Y499962*
X293782Y500417*
X294094Y501099*
Y501553*
X293782Y502235*
X292844Y502690*
X291282Y502917*
X290344*
X288782Y502690*
X287844Y502235*
X287532Y501553*
Y501099*
Y506326D02*
X287844Y505644D01*
X288782Y505190*
X290344Y504962*
X291282*
X292844Y505190*
X293782Y505644*
X294094Y506326*
Y506781*
X293782Y507462*
X292844Y507917*
X291282Y508144*
X290344*
X288782Y507917*
X287844Y507462*
X287532Y506781*
Y506326*
Y511553D02*
X287844Y510872D01*
X288782Y510417*
X290344Y510190*
X291282*
X292844Y510417*
X293782Y510872*
X294094Y511553*
Y512008*
X293782Y512690*
X292844Y513144*
X291282Y513372*
X290344*
X288782Y513144*
X287844Y512690*
X287532Y512008*
Y511553*
X289719Y515417D02*
X294094D01*
X290969D02*
X290032Y516099D01*
X289719Y516553*
Y517235*
X290032Y517690*
X290969Y517917*
X294094*
X290969D02*
X290032Y518599D01*
X289719Y519053*
Y519735*
X290032Y520190*
X290969Y520417*
X294094*
X289719Y522462D02*
X294094D01*
X290969D02*
X290032Y523144D01*
X289719Y523599*
Y524281*
X290032Y524735*
X290969Y524962*
X294094*
X290969D02*
X290032Y525644D01*
X289719Y526099*
Y526781*
X290032Y527235*
X290969Y527462*
X294094*
X800000Y420000D02*
X1058000D01*
X800000Y396000D02*
X1058000D01*
X800000Y372000D02*
X1058000D01*
X800000Y348000D02*
X1058000D01*
X800000Y324000D02*
X1058000D01*
X800000Y300000D02*
X1058000D01*
X800000Y420000D02*
Y300000D01*
X884000Y420000D02*
Y300000D01*
X920000Y420000D02*
Y300000D01*
X956000Y420000D02*
Y300000D01*
X1010000Y420000D02*
Y300000D01*
X1058000Y420000D02*
Y300000D01*
X835500Y408750D02*
X834955Y409500D01*
X834136Y409875*
X833045*
X832227Y409500*
X831682Y408750*
Y408000*
X831955Y407250*
X832227Y406875*
X832773Y406500*
X834409Y405750*
X834955Y405375*
X835227Y405000*
X835500Y404250*
Y403125*
X834955Y402375*
X834136Y402000*
X833045*
X832227Y402375*
X831682Y403125*
X837955Y409875D02*
Y402000D01*
X844227Y409875D02*
X840409Y402000D01*
Y409875D02*
X844227D01*
X840409Y402000D02*
X844227D01*
X846682Y409875D02*
Y402000D01*
Y409875D02*
X850227D01*
X846682Y406125D02*
X848864D01*
X846682Y402000D02*
X850227D01*
X893864Y409875D02*
X893318Y409500D01*
X892773Y408750*
X892500Y408000*
X892227Y406875*
Y405000*
X892500Y403875*
X892773Y403125*
X893318Y402375*
X893864Y402000*
X894955*
X895500Y402375*
X896045Y403125*
X896318Y403875*
X896591Y405000*
Y406875*
X896318Y408000*
X896045Y408750*
X895500Y409500*
X894955Y409875*
X893864*
X894682Y403500D02*
X896318Y401250D01*
X900955Y409875D02*
Y402000D01*
X899045Y409875D02*
X902864D01*
X905318D02*
X907500Y406125D01*
Y402000*
X909682Y409875D02*
X907500Y406125D01*
X932045Y408750D02*
X931500Y409500D01*
X930682Y409875*
X929591*
X928773Y409500*
X928227Y408750*
Y408000*
X928500Y407250*
X928773Y406875*
X929318Y406500*
X930955Y405750*
X931500Y405375*
X931773Y405000*
X932045Y404250*
Y403125*
X931500Y402375*
X930682Y402000*
X929591*
X928773Y402375*
X928227Y403125*
X934500Y409875D02*
X936682Y406125D01*
Y402000*
X938864Y409875D02*
X936682Y406125D01*
X941318Y409875D02*
Y402000D01*
Y409875D02*
X943500Y402000D01*
X945682Y409875D02*
X943500Y402000D01*
X945682Y409875D02*
Y402000D01*
X967500Y409875D02*
Y402000D01*
Y409875D02*
X969955D01*
X970773Y409500*
X971045Y409125*
X971318Y408375*
Y407250*
X971045Y406500*
X970773Y406125*
X969955Y405750*
X967500*
X973773Y409875D02*
Y402000D01*
X977045*
X981682Y409875D02*
X979500Y402000D01*
X981682Y409875D02*
X983864Y402000D01*
X980318Y404625D02*
X983045D01*
X988227Y409875D02*
Y402000D01*
X986318Y409875D02*
X990136D01*
X992591D02*
Y402000D01*
Y409875D02*
X996136D01*
X992591Y406125D02*
X994773D01*
X992591Y402000D02*
X996136D01*
X998591Y409875D02*
Y402000D01*
Y409875D02*
X1000500D01*
X1001318Y409500*
X1001864Y408750*
X1002136Y408000*
X1002409Y406875*
Y405000*
X1002136Y403875*
X1001864Y403125*
X1001318Y402375*
X1000500Y402000*
X998591*
X1026682Y409875D02*
Y402000D01*
X1024773Y409875D02*
X1028591D01*
X1032682D02*
X1032136Y409500D01*
X1031591Y408750*
X1031318Y408000*
X1031045Y406875*
Y405000*
X1031318Y403875*
X1031591Y403125*
X1032136Y402375*
X1032682Y402000*
X1033773*
X1034318Y402375*
X1034864Y403125*
X1035136Y403875*
X1035409Y405000*
Y406875*
X1035136Y408000*
X1034864Y408750*
X1034318Y409500*
X1033773Y409875*
X1032682*
X1037864D02*
Y402000D01*
X1041136*
X806000Y384375D02*
X806545Y384750D01*
X807364Y385875*
Y378000*
X810364Y385875D02*
X813364D01*
X811727Y382875*
X812545*
X813091Y382500*
X813364Y382125*
X813636Y381000*
Y380250*
X813364Y379125*
X812818Y378375*
X812000Y378000*
X811182*
X810364Y378375*
X810091Y378750*
X809818Y379500*
X819909Y385875D02*
X817182Y378000D01*
X816091Y385875D02*
X819909D01*
X822636Y378750D02*
X822364Y378375D01*
X822636Y378000*
X822909Y378375*
X822636Y378750*
X826727Y385875D02*
X825909Y385500D01*
X825636Y384750*
Y384000*
X825909Y383250*
X826455Y382875*
X827545Y382500*
X828364Y382125*
X828909Y381375*
X829182Y380625*
Y379500*
X828909Y378750*
X828636Y378375*
X827818Y378000*
X826727*
X825909Y378375*
X825636Y378750*
X825364Y379500*
Y380625*
X825636Y381375*
X826182Y382125*
X827000Y382500*
X828091Y382875*
X828636Y383250*
X828909Y384000*
Y384750*
X828636Y385500*
X827818Y385875*
X826727*
X901636D02*
X898909Y380625D01*
X903000*
X901636Y385875D02*
Y378000D01*
X932000Y384000D02*
X944000D01*
X938000Y378000D02*
Y390000D01*
X967636Y385875D02*
Y378000D01*
Y385875D02*
X971455Y378000D01*
Y385875D02*
Y378000D01*
X975545Y385875D02*
X975000Y385500D01*
X974455Y384750*
X974182Y384000*
X973909Y382875*
Y381000*
X974182Y379875*
X974455Y379125*
X975000Y378375*
X975545Y378000*
X976636*
X977182Y378375*
X977727Y379125*
X978000Y379875*
X978273Y381000*
Y382875*
X978000Y384000*
X977727Y384750*
X977182Y385500*
X976636Y385875*
X975545*
X1017818Y384750D02*
Y378000D01*
X1015364Y381375D02*
X1020273D01*
X1027636Y387375D02*
X1022727Y375375D01*
X1030091Y381375D02*
X1035000D01*
X1039091Y385875D02*
X1038273Y385500D01*
X1037727Y384375*
X1037455Y382500*
Y381375*
X1037727Y379500*
X1038273Y378375*
X1039091Y378000*
X1039636*
X1040455Y378375*
X1041000Y379500*
X1041273Y381375*
Y382500*
X1041000Y384375*
X1040455Y385500*
X1039636Y385875*
X1039091*
X1044000Y378750D02*
X1043727Y378375D01*
X1044000Y378000*
X1044273Y378375*
X1044000Y378750*
X1048364Y385875D02*
X1047545Y385500D01*
X1047000Y384375*
X1046727Y382500*
Y381375*
X1047000Y379500*
X1047545Y378375*
X1048364Y378000*
X1048909*
X1049727Y378375*
X1050273Y379500*
X1050545Y381375*
Y382500*
X1050273Y384375*
X1049727Y385500*
X1048909Y385875*
X1048364*
X809545Y361875D02*
X806818D01*
X806545Y358500*
X806818Y358875*
X807636Y359250*
X808455*
X809273Y358875*
X809818Y358125*
X810091Y357000*
X809818Y356250*
X809545Y355125*
X809000Y354375*
X808182Y354000*
X807364*
X806545Y354375*
X806273Y354750*
X806000Y355500*
X814182Y361875D02*
X813364Y361500D01*
X812818Y360375*
X812545Y358500*
Y357375*
X812818Y355500*
X813364Y354375*
X814182Y354000*
X814727*
X815545Y354375*
X816091Y355500*
X816364Y357375*
Y358500*
X816091Y360375*
X815545Y361500*
X814727Y361875*
X814182*
X901636D02*
X898909Y356625D01*
X903000*
X901636Y361875D02*
Y354000D01*
X932000D02*
X944000Y366000D01*
X932000D02*
X944000Y354000D01*
X964636Y361875D02*
X966818Y358125D01*
Y354000*
X969000Y361875D02*
X966818Y358125D01*
X971455Y361875D02*
Y354000D01*
Y361875D02*
X975000D01*
X971455Y358125D02*
X973636D01*
X971455Y354000D02*
X975000D01*
X981273Y360750D02*
X980727Y361500D01*
X979909Y361875*
X978818*
X978000Y361500*
X977455Y360750*
Y360000*
X977727Y359250*
X978000Y358875*
X978545Y358500*
X980182Y357750*
X980727Y357375*
X981000Y357000*
X981273Y356250*
Y355125*
X980727Y354375*
X979909Y354000*
X978818*
X978000Y354375*
X977455Y355125*
X1017818Y360750D02*
Y354000D01*
X1015364Y357375D02*
X1020273D01*
X1027636Y363375D02*
X1022727Y351375D01*
X1030091Y357375D02*
X1035000D01*
X1039091Y361875D02*
X1038273Y361500D01*
X1037727Y360375*
X1037455Y358500*
Y357375*
X1037727Y355500*
X1038273Y354375*
X1039091Y354000*
X1039636*
X1040455Y354375*
X1041000Y355500*
X1041273Y357375*
Y358500*
X1041000Y360375*
X1040455Y361500*
X1039636Y361875*
X1039091*
X1044000Y354750D02*
X1043727Y354375D01*
X1044000Y354000*
X1044273Y354375*
X1044000Y354750*
X1048364Y361875D02*
X1047545Y361500D01*
X1047000Y360375*
X1046727Y358500*
Y357375*
X1047000Y355500*
X1047545Y354375*
X1048364Y354000*
X1048909*
X1049727Y354375*
X1050273Y355500*
X1050545Y357375*
Y358500*
X1050273Y360375*
X1049727Y361500*
X1048909Y361875*
X1048364*
X809545Y337875D02*
X806818D01*
X806545Y334500*
X806818Y334875*
X807636Y335250*
X808455*
X809273Y334875*
X809818Y334125*
X810091Y333000*
X809818Y332250*
X809545Y331125*
X809000Y330375*
X808182Y330000*
X807364*
X806545Y330375*
X806273Y330750*
X806000Y331500*
X812818Y336000D02*
Y336375D01*
X813091Y337125*
X813364Y337500*
X813909Y337875*
X815000*
X815545Y337500*
X815818Y337125*
X816091Y336375*
Y335625*
X815818Y334875*
X815273Y333750*
X812545Y330000*
X816364*
X897000Y336375D02*
X897545Y336750D01*
X898364Y337875*
Y330000*
X904364Y337875D02*
X901636D01*
X901364Y334500*
X901636Y334875*
X902455Y335250*
X903273*
X904091Y334875*
X904636Y334125*
X904909Y333000*
X904636Y332250*
X904364Y331125*
X903818Y330375*
X903000Y330000*
X902182*
X901364Y330375*
X901091Y330750*
X900818Y331500*
X932000Y330000D02*
X944000D01*
Y342000*
X932000*
Y330000*
X938000Y336000D02*
Y342000D01*
X964636Y337875D02*
X966818Y334125D01*
Y330000*
X969000Y337875D02*
X966818Y334125D01*
X971455Y337875D02*
Y330000D01*
Y337875D02*
X975000D01*
X971455Y334125D02*
X973636D01*
X971455Y330000D02*
X975000D01*
X981273Y336750D02*
X980727Y337500D01*
X979909Y337875*
X978818*
X978000Y337500*
X977455Y336750*
Y336000*
X977727Y335250*
X978000Y334875*
X978545Y334500*
X980182Y333750*
X980727Y333375*
X981000Y333000*
X981273Y332250*
Y331125*
X980727Y330375*
X979909Y330000*
X978818*
X978000Y330375*
X977455Y331125*
X1017818Y336750D02*
Y330000D01*
X1015364Y333375D02*
X1020273D01*
X1027636Y339375D02*
X1022727Y327375D01*
X1030091Y333375D02*
X1035000D01*
X1039091Y337875D02*
X1038273Y337500D01*
X1037727Y336375*
X1037455Y334500*
Y333375*
X1037727Y331500*
X1038273Y330375*
X1039091Y330000*
X1039636*
X1040455Y330375*
X1041000Y331500*
X1041273Y333375*
Y334500*
X1041000Y336375*
X1040455Y337500*
X1039636Y337875*
X1039091*
X1044000Y330750D02*
X1043727Y330375D01*
X1044000Y330000*
X1044273Y330375*
X1044000Y330750*
X1048364Y337875D02*
X1047545Y337500D01*
X1047000Y336375*
X1046727Y334500*
Y333375*
X1047000Y331500*
X1047545Y330375*
X1048364Y330000*
X1048909*
X1049727Y330375*
X1050273Y331500*
X1050545Y333375*
Y334500*
X1050273Y336375*
X1049727Y337500*
X1048909Y337875*
X1048364*
X808727Y313875D02*
X806000Y308625D01*
X810091*
X808727Y313875D02*
Y306000D01*
X814182Y313875D02*
X813364Y313500D01*
X812818Y312375*
X812545Y310500*
Y309375*
X812818Y307500*
X813364Y306375*
X814182Y306000*
X814727*
X815545Y306375*
X816091Y307500*
X816364Y309375*
Y310500*
X816091Y312375*
X815545Y313500*
X814727Y313875*
X814182*
X902455D02*
X899727D01*
X899455Y310500*
X899727Y310875*
X900545Y311250*
X901364*
X902182Y310875*
X902727Y310125*
X903000Y309000*
X902727Y308250*
X902455Y307125*
X901909Y306375*
X901091Y306000*
X900273*
X899455Y306375*
X899182Y306750*
X898909Y307500*
X938000Y306000D02*
X944000Y312000D01*
X938000Y318000*
X932000Y312000*
X938000Y306000*
Y312000D02*
Y318000D01*
X964636Y313875D02*
X966818Y310125D01*
Y306000*
X969000Y313875D02*
X966818Y310125D01*
X971455Y313875D02*
Y306000D01*
Y313875D02*
X975000D01*
X971455Y310125D02*
X973636D01*
X971455Y306000D02*
X975000D01*
X981273Y312750D02*
X980727Y313500D01*
X979909Y313875*
X978818*
X978000Y313500*
X977455Y312750*
Y312000*
X977727Y311250*
X978000Y310875*
X978545Y310500*
X980182Y309750*
X980727Y309375*
X981000Y309000*
X981273Y308250*
Y307125*
X980727Y306375*
X979909Y306000*
X978818*
X978000Y306375*
X977455Y307125*
X1017818Y312750D02*
Y306000D01*
X1015364Y309375D02*
X1020273D01*
X1027636Y315375D02*
X1022727Y303375D01*
X1030091Y309375D02*
X1035000D01*
X1039091Y313875D02*
X1038273Y313500D01*
X1037727Y312375*
X1037455Y310500*
Y309375*
X1037727Y307500*
X1038273Y306375*
X1039091Y306000*
X1039636*
X1040455Y306375*
X1041000Y307500*
X1041273Y309375*
Y310500*
X1041000Y312375*
X1040455Y313500*
X1039636Y313875*
X1039091*
X1044000Y306750D02*
X1043727Y306375D01*
X1044000Y306000*
X1044273Y306375*
X1044000Y306750*
X1048364Y313875D02*
X1047545Y313500D01*
X1047000Y312375*
X1046727Y310500*
Y309375*
X1047000Y307500*
X1047545Y306375*
X1048364Y306000*
X1048909*
X1049727Y306375*
X1050273Y307500*
X1050545Y309375*
Y310500*
X1050273Y312375*
X1049727Y313500*
X1048909Y313875*
X1048364*
G54D55*
X300000Y300000D02*
X654331D01*
Y548031*
X300000*
Y300000*
X290157Y548031D02*
X309843D01*
X300000Y557874D02*
Y538189D01*
X290157Y300000D02*
X309843D01*
X300000Y309843D02*
Y290157D01*
X644488Y300000D02*
X664173D01*
X654331Y309843D02*
Y290157D01*
X644488Y548031D02*
X664173D01*
X654331Y557874D02*
Y538189D01*
X0Y0D02*
M02*
