*
*
G04 PADS VX.2.2 Build Number: 7607494 generated Gerber (RS-274-X) file*
G04 PC Version=2.1*
*
%IN "L9.pcb"*%
*
%MOIN*%
*
%FSLAX35Y35*%
*
*
*
*
G04 PC Standard Apertures*
*
*
G04 Thermal Relief Aperture macro.*
%AMTER*
1,1,$1,0,0*
1,0,$1-$2,0,0*
21,0,$3,$4,0,0,45*
21,0,$3,$4,0,0,135*
%
*
*
G04 Annular Aperture macro.*
%AMANN*
1,1,$1,0,0*
1,0,$2,0,0*
%
*
*
G04 Odd Aperture macro.*
%AMODD*
1,1,$1,0,0*
1,0,$1-0.005,0,0*
%
*
*
G04 PC Custom Aperture Macros*
*
*
*
*
*
*
G04 PC Aperture Table*
*
%ADD010C,0.001*%
%ADD011C,0.01*%
%ADD055C,0.008*%
*
*
*
*
G04 PC Circuitry*
G04 Layer Name L9.pcb - circuitry*
%LPD*%
*
G54D10*
G01X534745Y481637D02*
X533010D01*
X532960Y481687*
Y483422*
X532345*
Y481687*
X532295Y481637*
X530560*
Y481022*
X532295*
X532345Y480972*
Y479237*
X532960*
Y480972*
X533010Y481022*
X534745*
Y481637*
X512354Y457560D02*
X510618D01*
X510568Y457610*
Y459346*
X509954*
Y457610*
X509904Y457560*
X508168*
Y456946*
X509904*
X509954Y456896*
Y455160*
X510568*
Y456896*
X510618Y456946*
X512354*
Y457560*
X499532Y337058D02*
X496465Y344672D01*
X495354*
X492287Y337058*
X493357*
X494202Y339382*
X494249Y339415*
X497571*
X497618Y339382*
X498463Y337058*
X499532*
X497249Y340172D02*
X494571D01*
X494521Y340222*
X494524Y340239*
X495274Y342275*
X495594Y343131*
X495808Y343879*
X495903Y343883*
X496439Y342490*
X497296Y340240*
X497249Y340172*
X499093Y354908D02*
X495613D01*
X495193Y354803*
X494241Y354486*
X493931Y354176*
X493615Y353755*
X493407Y353234*
Y352711*
X493512Y351870*
X494038Y351134*
X494350Y350822*
X494871Y350614*
X495398Y350508*
X498071*
X498121Y350458*
Y347294*
X499093*
Y354908*
X498121Y354101D02*
Y351316D01*
X498071Y351266*
X496143*
X496136*
X495386Y351373*
X495374Y351376*
X494839Y351591*
X494814Y351611*
X494493Y352147*
X494487Y352163*
X494380Y352699*
X494379Y352708*
Y353137*
X494384Y353159*
X494598Y353588*
X494608Y353601*
X494929Y353922*
X494948Y353934*
X495591Y354149*
X495607Y354151*
X498071*
X498121Y354101*
X499093Y364751D02*
X498121D01*
Y361265*
X498036Y361230*
X494515Y364751*
X493156*
X496285Y361622*
X496300Y361587*
X496290Y361556*
X492948Y357170*
X489895Y364751*
X488784*
X485717Y357137*
X486786*
X487632Y359461*
X487679Y359494*
X491000*
X491047Y359461*
X491892Y357137*
X494083*
X496960Y360867*
X497035Y360872*
X498107Y359801*
X498121Y359765*
Y357137*
X499093*
Y364751*
X490679Y360251D02*
X488000D01*
X487950Y360301*
X487953Y360318*
X488703Y362354*
X489024Y363209*
X489238Y363957*
X489332Y363962*
X489868Y362569*
X490725Y360319*
X490679Y360251*
X491306Y344672D02*
X490205D01*
X486470Y338909*
X486378Y338936*
Y344672*
X485406*
Y337058*
X486508*
X490243Y342821*
X490335Y342794*
Y337058*
X491306*
Y344672*
X491914Y354908D02*
X490813D01*
X487078Y349145*
X486986Y349173*
Y354908*
X486014*
Y347294*
X487116*
X490851Y353057*
X490943Y353030*
Y347294*
X491914*
Y354908*
X483901Y339000D02*
X483034Y339097D01*
X482832Y338492*
X482830Y338486*
X482615Y338057*
X482593Y338035*
X482164Y337820*
X482152Y337816*
X481616Y337709*
X481599Y337708*
X480849Y337816*
X480821Y337830*
X480392Y338258*
X480385Y338268*
X480063Y338804*
X480057Y338822*
X479950Y339572*
X479949Y339579*
X479949*
X479950Y339586*
X480057Y340336*
X480063Y340355*
X480385Y340891*
X480398Y340905*
X480826Y341226*
X480849Y341236*
X481599Y341343*
X481620Y341342*
X482370Y341127*
X482392Y341115*
X482910Y340596*
X483797Y340694*
X483065Y344565*
X479513*
Y343701*
X482356*
X482406Y343659*
X482727Y341623*
X482728Y341615*
X482650Y341573*
X482017Y341996*
X481287Y342100*
X480449Y341890*
X479714Y341365*
X479190Y340632*
X479085Y339686*
X479191Y338631*
X479611Y337896*
X480032Y337474*
X480449Y337162*
X480972Y337057*
X481607Y336951*
X482447Y337056*
X483179Y337474*
X483703Y338208*
X483901Y339000*
X484509Y349236D02*
X483642Y349333D01*
X483440Y348728*
X483438Y348722*
X483223Y348293*
X483201Y348271*
X482772Y348057*
X482760Y348052*
X482224Y347945*
X482207*
X481457Y348052*
X481429Y348066*
X481000Y348494*
X480993Y348504*
X480671Y349040*
X480665Y349058*
X480558Y349808*
X480557Y349816*
X480557*
X480558Y349823*
X480665Y350573*
X480671Y350591*
X480993Y351127*
X481006Y351141*
X481434Y351463*
X481457Y351472*
X482207Y351579*
X482228Y351578*
X482978Y351364*
X483000Y351351*
X483518Y350832*
X484405Y350931*
X483673Y354801*
X480121*
Y353937*
X482964*
X483014Y353895*
X483335Y351859*
X483336Y351851*
X483258Y351810*
X482625Y352232*
X481895Y352336*
X481057Y352126*
X480322Y351601*
X479798Y350868*
X479693Y349922*
X479799Y348867*
X480219Y348132*
X480640Y347711*
X481057Y347398*
X481580Y347293*
X482215Y347187*
X483055Y347292*
X483787Y347711*
X484311Y348444*
X484509Y349236*
X484843Y364751D02*
X483322D01*
X481619Y359322*
Y359321*
X481405Y358678*
X481402Y358671*
X481188Y358243*
X481094Y358253*
X480987Y358681*
X480774Y359429*
X479071Y364751*
X477550*
Y357137*
X478521*
Y363622*
X478619Y363638*
X480751Y357137*
X481749*
X483774Y363637*
X483871Y363622*
Y357137*
X484843*
Y364751*
X478021Y344565D02*
X473085D01*
Y343882*
X473824Y342931*
X473829Y342925*
X474472Y341746*
Y341745*
X475115Y340459*
X475117Y340456*
X475652Y339170*
X475655Y339161*
X475870Y338089*
Y338084*
X475973Y337058*
X476836*
X476736Y337963*
X476416Y339136*
X475988Y340418*
X475456Y341590*
X474709Y342657*
X473960Y343620*
X473949Y343651*
X473999Y343701*
X478021*
Y344565*
X478629Y354801D02*
X473693D01*
Y354118*
X474432Y353168*
X474437Y353161*
X475080Y351982*
Y351981*
X475723Y350695*
X475725Y350692*
X476260Y349406*
X476263Y349397*
X476478Y348325*
Y348320*
X476478D02*
X476581Y347294D01*
X477444*
X477344Y348199*
X477024Y349372*
X476596Y350654*
X476064Y351826*
X475317Y352893*
X474568Y353856*
X474557Y353887*
X474607Y353937*
X478629*
Y354801*
X475843Y364751D02*
X472363D01*
X471943Y364646*
X470991Y364329*
X470681Y364018*
X470365Y363598*
X470157Y363077*
Y362554*
X470262Y361713*
X470788Y360976*
X471100Y360665*
X471621Y360456*
X472148Y360351*
X474821*
X474871Y360301*
Y357137*
X475843*
Y364751*
X474871Y363944D02*
Y361158D01*
X474821Y361108*
X472893*
X472886Y361109*
X472136Y361216*
X472124Y361219*
X471589Y361433*
X471564Y361454*
X471243Y361989*
X471237Y362005*
X471130Y362541*
X471129Y362551*
Y362979*
X471134Y363002*
X471348Y363430*
X471358Y363443*
X471679Y363765*
X471698Y363777*
X472341Y363991*
X472357Y363994*
X474821*
X474871Y363944*
X471901Y339000D02*
X471034Y339097D01*
X470832Y338492*
X470825Y338478*
X470503Y338049*
X470486Y338035*
X470057Y337820*
X470045Y337816*
X469509Y337709*
X469491*
X468848Y337816*
X468826Y337825*
X468398Y338146*
X468385Y338161*
X468063Y338696*
X468057Y338712*
X467950Y339248*
X467949Y339258*
X467950Y339266*
X468057Y339909*
X468066Y339931*
X468388Y340359*
X468398Y340369*
X468826Y340691*
X468848Y340700*
X469491Y340807*
X469507*
X470084Y340711*
X469991Y341458*
X469285*
X469255Y341468*
X468826Y341789*
X468821Y341794*
X468500Y342115*
X468486Y342141*
X468379Y342677*
X468378Y342686*
X468379Y342699*
X468486Y343127*
X468490Y343137*
X468704Y343566*
X468721Y343585*
X469043Y343799*
X469061Y343807*
X469596Y343914*
X469618*
X470047Y343806*
X470057Y343803*
X470486Y343588*
X470508Y343566*
X470722Y343137*
X470724Y343134*
X470924Y342633*
X471787Y342729*
X471490Y343521*
X471070Y344150*
X470446Y344567*
X469608Y344672*
X469085Y344567*
X468560Y344357*
X467723Y343729*
X467515Y342688*
X467722Y341859*
X468565Y341226*
X468585Y341186*
X468551Y341139*
X467919Y340928*
X467503Y340513*
X467190Y339991*
X467086Y339260*
X467296Y338421*
X467821Y337581*
X468553Y337162*
X469608Y336951*
X470447Y337056*
X471179Y337474*
X471703Y338208*
X471901Y339000*
X472509Y349236D02*
X471642Y349333D01*
X471440Y348728*
X471433Y348714*
X471111Y348286*
X471094Y348271*
X470665Y348057*
X470653Y348052*
X470117Y347945*
X470099*
X469456Y348052*
X469434Y348061*
X469006Y348383*
X468993Y348397*
X468671Y348933*
X468665Y348949*
X468558Y349484*
X468557Y349494*
X468558Y349502*
X468665Y350145*
X468674Y350167*
X468996Y350596*
X469006Y350606*
X469434Y350927*
X469456Y350936*
X470099Y351043*
X470115*
X470692Y350947*
X470599Y351694*
X469893*
X469863Y351704*
X469434Y352026*
X469429Y352030*
X469108Y352352*
X469094Y352377*
X468987Y352913*
X468986Y352923*
X468987Y352935*
X469094Y353363*
X469098Y353374*
X469312Y353802*
X469329Y353821*
X469651Y354036*
X469669Y354043*
X470204Y354150*
X470226*
X470655Y354043*
X470665Y354039*
X471094Y353825*
X471116Y353802*
X471330Y353374*
X471332Y353370*
X471532Y352869*
X472395Y352965*
X472098Y353757*
X471678Y354387*
X471054Y354803*
X470216Y354908*
X469693Y354803*
X469168Y354593*
X468331Y353966*
X468123Y352924*
X468330Y352095*
X469173Y351463*
X469193Y351423*
X469159Y351375*
X468527Y351165*
X468111Y350749*
X467798Y350227*
X467694Y349497*
X467904Y348657*
X468429Y347817*
X469161Y347399*
X470216Y347188*
X471055Y347292*
X471787Y347711*
X472311Y348444*
X472509Y349236*
X465901Y339000D02*
X465034Y339097D01*
X464832Y338492*
X464830Y338486*
X464615Y338057*
X464593Y338035*
X464164Y337820*
X464152Y337816*
X463616Y337709*
X463599Y337708*
X462849Y337816*
X462821Y337830*
X462392Y338258*
X462385Y338268*
X462063Y338804*
X462057Y338822*
X461950Y339572*
X461949Y339579*
X461949*
X461950Y339586*
X462057Y340336*
X462063Y340355*
X462385Y340891*
X462398Y340905*
X462826Y341226*
X462849Y341236*
X463599Y341343*
X463620Y341342*
X464370Y341127*
X464392Y341115*
X464910Y340596*
X465797Y340694*
X465065Y344565*
X461513*
Y343701*
X464356*
X464406Y343659*
X464727Y341623*
X464728Y341615*
X464650Y341573*
X464017Y341996*
X463287Y342100*
X462449Y341890*
X461714Y341365*
X461190Y340632*
X461085Y339686*
X461191Y338631*
X461611Y337896*
X462032Y337474*
X462449Y337162*
X462972Y337057*
X463607Y336951*
X464447Y337056*
X465179Y337474*
X465703Y338208*
X465901Y339000*
X466509Y349236D02*
X465642Y349333D01*
X465440Y348728*
X465438Y348722*
X465223Y348293*
X465201Y348271*
X464772Y348057*
X464760Y348052*
X464224Y347945*
X464207*
X463457Y348052*
X463429Y348066*
X463000Y348494*
X462993Y348504*
X462671Y349040*
X462665Y349058*
X462558Y349808*
X462557Y349816*
X462557*
X462558Y349823*
X462665Y350573*
X462671Y350591*
X462993Y351127*
X463006Y351141*
X463434Y351463*
X463457Y351472*
X464207Y351579*
X464228Y351578*
X464978Y351364*
X465000Y351351*
X465518Y350832*
X466405Y350931*
X465673Y354801*
X462121*
Y353937*
X464964*
X465014Y353895*
X465335Y351859*
X465336Y351851*
X465258Y351810*
X464625Y352232*
X463895Y352336*
X463057Y352126*
X462322Y351601*
X461798Y350868*
X461693Y349922*
X461799Y348867*
X462219Y348132*
X462640Y347711*
X463057Y347398*
X463580Y347293*
X464215Y347187*
X465055Y347292*
X465787Y347711*
X466311Y348444*
X466509Y349236*
X468664Y364751D02*
X467693D01*
Y357944*
X467643Y357894*
X463943*
Y357137*
X468664*
Y364751*
X459913Y340756D02*
X459807Y342036D01*
X459594Y342992*
X459277Y343732*
X458860Y344254*
X458234Y344567*
X457501Y344671*
X456449Y344461*
X456035Y344151*
X455722Y343734*
X455297Y342564*
X455085Y341822*
Y340760*
X455192Y339587*
X455404Y338630*
X455721Y337891*
X456138Y337369*
X456764Y337056*
X457497Y336952*
X458443Y337162*
X459176Y337685*
X459489Y338207*
X459701Y338949*
X459913Y339800*
Y340756*
X459049Y341615D02*
Y339901D01*
X459048Y339893*
X458941Y339250*
Y339248*
X458834Y338712*
X458830Y338700*
X458615Y338271*
X458602Y338255*
X458066Y337826*
X458045Y337816*
X457509Y337709*
X457489*
X456954Y337816*
X456932Y337826*
X456396Y338255*
X456383Y338271*
X456169Y338700*
X456164Y338712*
X456057Y339248*
Y339250*
X455950Y339893*
X455949Y339901*
Y341615*
X455950Y341622*
X456057Y342372*
Y342375*
X456164Y342911*
X456172Y342928*
X456386Y343250*
X456389Y343253*
X456817Y343789*
X456848Y343807*
X457491Y343914*
X457509*
X458045Y343807*
X458066Y343797*
X458602Y343368*
X458615Y343352*
X458830Y342923*
X458834Y342911*
X458941Y342375*
X458942Y342372*
X459049Y341622*
Y341615*
X460521Y350992D02*
X460415Y352272D01*
X460202Y353229*
X459885Y353968*
X459468Y354490*
X458842Y354803*
X458109Y354908*
X457057Y354697*
X456643Y354387*
X456330Y353970*
X455905Y352800*
X455693Y352059*
Y350996*
X455800Y349823*
X456012Y348867*
X456329Y348127*
X456746Y347605*
X457372Y347292*
X458105Y347188*
X459051Y347398*
X459784Y347922*
X460097Y348443*
X460309Y349186*
X460521Y350036*
Y350992*
X459657Y351851D02*
Y350137D01*
X459656Y350129*
X459549Y349486*
Y349484*
X459442Y348949*
X459438Y348936*
X459223Y348507*
X459210Y348491*
X458674Y348062*
X458653Y348052*
X458117Y347945*
X458097*
X457562Y348052*
X457540Y348062*
X457004Y348491*
X456991Y348507*
X456777Y348936*
X456772Y348949*
X456665Y349484*
Y349486*
X456558Y350129*
X456557Y350137*
Y351851*
X456558Y351858*
X456665Y352608*
Y352611*
X456772Y353147*
X456780Y353165*
X456994Y353486*
X456997Y353490*
X457425Y354025*
X457456Y354043*
X458099Y354151*
X458117Y354150*
X458653Y354043*
X458674Y354033*
X459210Y353605*
X459223Y353588*
X459438Y353159*
X459442Y353147*
X459549Y352611*
Y352608*
X459549D02*
X459657Y351858D01*
Y351851*
X453592Y344672D02*
X450323D01*
X449364Y344566*
X448839Y344461*
X448319Y344149*
X448007Y343733*
X447798Y343209*
X447693Y342579*
X447797Y341850*
X448214Y341329*
X448844Y340804*
X449690Y340592*
X449728Y340544*
X449709Y340505*
X449175Y340078*
X448751Y339653*
X448326Y339122*
X447087Y337058*
X448257*
X449206Y338641*
X449208Y338643*
X449636Y339286*
X449638Y339288*
X449958Y339715*
X450172Y340036*
X450178Y340043*
X450392Y340258*
X450405Y340267*
X450834Y340481*
X450856Y340486*
X452571*
X452621Y340436*
Y337058*
X453592*
Y344672*
X452621Y343865D02*
Y341294D01*
X452571Y341244*
X449892*
X449880Y341245*
X449451Y341352*
X449428Y341365*
X448892Y341901*
X448880Y341921*
X448666Y342563*
X448663Y342579*
X448664Y342589*
X448772Y343125*
X448776Y343137*
X448990Y343566*
X449016Y343590*
X449552Y343804*
X449562Y343807*
X450205Y343914*
X450213Y343915*
X452571*
X452621Y343865*
X454200Y354908D02*
X450931D01*
X449972Y354802*
X449447Y354697*
X448927Y354385*
X448615Y353969*
X448406Y353445*
X448301Y352815*
X448405Y352086*
X448822Y351565*
X449452Y351040*
X450298Y350828*
X450336Y350780*
X450317Y350741*
X449783Y350314*
X449359Y349889*
X448934Y349358*
X447695Y347294*
X448865*
X449814Y348877*
X449816Y348879*
X450244Y349522*
X450246Y349524*
X450566Y349952*
X450780Y350272*
X450786Y350279*
X451000Y350494*
X451013Y350503*
X451442Y350717*
X451464Y350723*
X453179*
X453229Y350673*
Y347294*
X454200*
Y354908*
X453229Y354101D02*
Y351530D01*
X453179Y351480*
X450500*
X450488Y351481*
X450059Y351588*
X450036Y351602*
X449500Y352137*
X449488Y352157*
X449274Y352800*
X449271Y352816*
X449272Y352825*
X449380Y353361*
X449384Y353374*
X449598Y353802*
X449624Y353826*
X450160Y354041*
X450170Y354043*
X450813Y354151*
X450821*
X453179*
X453229Y354101*
X446199Y340756D02*
X446092Y342036D01*
X445880Y342992*
X445563Y343732*
X445146Y344254*
X444520Y344567*
X443786Y344671*
X442734Y344461*
X442321Y344151*
X442008Y343734*
X441582Y342564*
X441371Y341822*
Y340760*
X441477Y339587*
X441690Y338630*
X442007Y337891*
X442424Y337369*
X443050Y337056*
X443783Y336952*
X444728Y337162*
X445462Y337685*
X445774Y338207*
X445987Y338949*
X446199Y339800*
Y340756*
X445335Y341615D02*
Y339901D01*
X445334Y339893*
X445227Y339250*
Y339248*
X445120Y338712*
X445115Y338700*
X444901Y338271*
X444888Y338255*
X444352Y337826*
X444330Y337816*
X443795Y337709*
X443775*
X443239Y337816*
X443218Y337826*
X442682Y338255*
X442669Y338271*
X442454Y338700*
X442450Y338712*
X442343Y339248*
Y339250*
X442236Y339893*
X442235Y339901*
Y341615*
Y341622*
X442343Y342372*
Y342375*
X442450Y342911*
X442458Y342928*
X442672Y343250*
X442674Y343253*
X443103Y343789*
X443134Y343807*
X443777Y343914*
X443795*
X444330Y343807*
X444352Y343797*
X444888Y343368*
X444901Y343352*
X445115Y342923*
X445120Y342911*
X445227Y342375*
Y342372*
X445334Y341622*
X445335Y341615*
X446807Y350992D02*
X446700Y352272D01*
X446488Y353229*
X446171Y353968*
X445754Y354490*
X445128Y354803*
X444394Y354908*
X443342Y354697*
X442929Y354387*
X442616Y353970*
X442190Y352800*
X441979Y352059*
Y350996*
X442085Y349823*
X442298Y348867*
X442615Y348127*
X443032Y347605*
X443658Y347292*
X444391Y347188*
X445336Y347398*
X446070Y347922*
X446382Y348443*
X446595Y349186*
X446807Y350036*
Y350992*
X445943Y351851D02*
Y350137D01*
X445942Y350129*
X445835Y349486*
Y349484*
X445728Y348949*
X445723Y348936*
X445509Y348507*
X445496Y348491*
X444960Y348062*
X444938Y348052*
X444403Y347945*
X444383*
X443847Y348052*
X443826Y348062*
X443290Y348491*
X443277Y348507*
X443062Y348936*
X443058Y348949*
X442951Y349484*
Y349486*
X442844Y350129*
X442843Y350137*
Y351851*
Y351858*
X442951Y352608*
X442951D02*
Y352611D01*
X443058Y353147*
X443066Y353165*
X443280Y353486*
X443282Y353490*
X443711Y354025*
X443742Y354043*
X444385Y354151*
X444403Y354150*
X444938Y354043*
X444960Y354033*
X445496Y353605*
X445509Y353588*
X445723Y353159*
X445728Y353147*
X445835Y352611*
Y352608*
X445942Y351858*
X445943Y351851*
X441400Y340437D02*
Y341925D01*
X441500Y339485D02*
Y342275D01*
X441600Y339035D02*
Y342612D01*
X441700Y338607D02*
Y342887D01*
X441800Y338373D02*
Y343162D01*
X441900Y338140D02*
Y343437D01*
X442000Y337907D02*
Y343712D01*
Y350761D02*
Y352134D01*
X442100Y337774D02*
Y343857D01*
Y349757D02*
Y352484D01*
X442200Y337649D02*
Y343990D01*
Y349307D02*
Y352826D01*
X442300Y337524D02*
Y339506D01*
Y342074D02*
Y344123D01*
Y348862D02*
Y353101D01*
X442400Y337399D02*
Y338963D01*
Y342660D02*
Y344210D01*
Y348628D02*
Y353376D01*
X442500Y337331D02*
Y338609D01*
Y342992D02*
Y344285D01*
Y348395D02*
Y353651D01*
X442600Y337281D02*
Y338409D01*
Y343142D02*
Y344360D01*
Y348161D02*
Y353926D01*
X442700Y337231D02*
Y338240D01*
Y343285D02*
Y344435D01*
Y348021D02*
Y354082D01*
X442800Y337181D02*
Y338160D01*
Y343410D02*
Y344474D01*
Y347896D02*
Y354216D01*
X442900Y337131D02*
Y338080D01*
Y343535D02*
Y344494D01*
Y347771D02*
Y349790D01*
Y352255D02*
Y354349D01*
X443000Y337081D02*
Y338000D01*
Y343660D02*
Y344514D01*
Y347646D02*
Y349239D01*
Y352856D02*
Y354441D01*
X443100Y337049D02*
Y337920D01*
Y343785D02*
Y344534D01*
Y347571D02*
Y348861D01*
Y353216D02*
Y354516D01*
X443200Y337035D02*
Y337840D01*
Y343818D02*
Y344554D01*
Y347521D02*
Y348661D01*
Y353366D02*
Y354591D01*
X443300Y337021D02*
Y337804D01*
Y343835D02*
Y344574D01*
Y347471D02*
Y348483D01*
Y353512D02*
Y354666D01*
X443400Y337006D02*
Y337784D01*
Y343852D02*
Y344594D01*
Y347421D02*
Y348403D01*
Y353637D02*
Y354709D01*
X443500Y336992D02*
Y337764D01*
Y343868D02*
Y344614D01*
Y347371D02*
Y348323D01*
Y353762D02*
Y354729D01*
X443600Y336978D02*
Y337744D01*
Y343885D02*
Y344634D01*
Y347321D02*
Y348243D01*
Y353887D02*
Y354749D01*
X443700Y336963D02*
Y337724D01*
Y343902D02*
Y344654D01*
Y347286D02*
Y348163D01*
Y354012D02*
Y354769D01*
X443800Y336955D02*
Y337710D01*
Y343913D02*
Y344669D01*
Y347272D02*
Y348083D01*
Y354053D02*
Y354789D01*
X443900Y336978D02*
Y337730D01*
Y343893D02*
Y344655D01*
Y347258D02*
Y348042D01*
Y354070D02*
Y354809D01*
X444000Y337000D02*
Y337750D01*
Y343873D02*
Y344641D01*
Y347244D02*
Y348022D01*
Y354086D02*
Y354829D01*
X444100Y337022D02*
Y337770D01*
Y343853D02*
Y344627D01*
Y347229D02*
Y348002D01*
Y354103D02*
Y354849D01*
X444200Y337044D02*
Y337790D01*
Y343833D02*
Y344612D01*
Y347215D02*
Y347982D01*
Y354120D02*
Y354869D01*
X444300Y337066D02*
Y337810D01*
Y343813D02*
Y344598D01*
Y347201D02*
Y347962D01*
Y354136D02*
Y354889D01*
X444400Y337089D02*
Y337865D01*
Y343758D02*
Y344584D01*
Y347190D02*
Y347945D01*
Y354151D02*
Y354907D01*
X444500Y337111D02*
Y337945D01*
Y343678D02*
Y344569D01*
Y347212D02*
Y347965D01*
Y354131D02*
Y354893D01*
X444600Y337133D02*
Y338025D01*
Y343598D02*
Y344527D01*
Y347234D02*
Y347985D01*
Y354111D02*
Y354878D01*
X444700Y337155D02*
Y338105D01*
Y343518D02*
Y344477D01*
Y347256D02*
Y348005D01*
Y354091D02*
Y354864D01*
X444800Y337213D02*
Y338185D01*
Y343438D02*
Y344427D01*
Y347279D02*
Y348025D01*
Y354071D02*
Y354850D01*
X444900Y337284D02*
Y338269D01*
Y343354D02*
Y344377D01*
Y347301D02*
Y348045D01*
Y354051D02*
Y354835D01*
X445000Y337356D02*
Y338469D01*
Y343154D02*
Y344327D01*
Y347323D02*
Y348094D01*
Y354001D02*
Y354821D01*
X445100Y337427D02*
Y338669D01*
Y342954D02*
Y344277D01*
Y347345D02*
Y348174D01*
Y353921D02*
Y354807D01*
X445200Y337498D02*
Y339114D01*
Y342509D02*
Y344186D01*
Y347368D02*
Y348254D01*
Y353841D02*
Y354767D01*
X445300Y337570D02*
Y339687D01*
Y341863D02*
Y344061D01*
Y347390D02*
Y348334D01*
Y353761D02*
Y354717D01*
X445400Y337641D02*
Y343936D01*
Y347443D02*
Y348414D01*
Y353681D02*
Y354667D01*
X445500Y337749D02*
Y343811D01*
Y347515D02*
Y348495D01*
Y353601D02*
Y354617D01*
X445600Y337916D02*
Y343646D01*
Y347586D02*
Y348689D01*
Y353406D02*
Y354567D01*
X445700Y338083D02*
Y343412D01*
Y347658D02*
Y348889D01*
Y353206D02*
Y354517D01*
X445800Y338296D02*
Y343179D01*
Y347729D02*
Y349311D01*
Y352785D02*
Y354432D01*
X445900Y338646D02*
Y342902D01*
Y347800D02*
Y349876D01*
Y352155D02*
Y354307D01*
X446000Y339003D02*
Y342452D01*
Y347872D02*
Y354182D01*
X446100Y339403D02*
Y341946D01*
Y347972D02*
Y354057D01*
X446200Y348139D02*
Y353900D01*
X446300Y348306D02*
Y353667D01*
X446400Y348505D02*
Y353434D01*
X446500Y348855D02*
Y353174D01*
X446600Y349207D02*
Y352724D01*
X446700Y349607D02*
Y352274D01*
X446800Y350007D02*
Y351078D01*
X447100Y337058D02*
Y337079D01*
X447200Y337058D02*
Y337245D01*
X447300Y337058D02*
Y337412D01*
X447400Y337058D02*
Y337579D01*
X447500Y337058D02*
Y337745D01*
X447600Y337058D02*
Y337912D01*
X447700Y337058D02*
Y338079D01*
Y342527D02*
Y342623D01*
Y347294D02*
Y347302D01*
X447800Y337058D02*
Y338245D01*
Y341846D02*
Y343215D01*
Y347294D02*
Y347468D01*
X447900Y337058D02*
Y338412D01*
Y341721D02*
Y343465D01*
Y347294D02*
Y347635D01*
X448000Y337058D02*
Y338579D01*
Y341596D02*
Y343715D01*
Y347294D02*
Y347802D01*
X448100Y337058D02*
Y338745D01*
Y341471D02*
Y343857D01*
Y347294D02*
Y347968D01*
X448200Y337058D02*
Y338912D01*
Y341346D02*
Y343990D01*
Y347294D02*
Y348135D01*
X448300Y337130D02*
Y339079D01*
Y341257D02*
Y344123D01*
Y347294D02*
Y348302D01*
X448400Y337297D02*
Y339215D01*
Y341173D02*
Y344197D01*
Y347294D02*
Y348468D01*
Y352119D02*
Y353411D01*
X448500Y337464D02*
Y339340D01*
Y341090D02*
Y344257D01*
Y347294D02*
Y348635D01*
Y351967D02*
Y353681D01*
X448600Y337630D02*
Y339465D01*
Y341007D02*
Y344317D01*
Y347294D02*
Y348802D01*
Y351842D02*
Y353931D01*
X448700Y337797D02*
Y339590D01*
Y340923D02*
Y342462D01*
Y342767D02*
Y344377D01*
Y347294D02*
Y348968D01*
Y351717D02*
Y354082D01*
X448800Y337964D02*
Y339702D01*
Y340840D02*
Y342162D01*
Y343186D02*
Y344437D01*
Y347294D02*
Y349135D01*
Y351592D02*
Y354216D01*
X448900Y338130D02*
Y339802D01*
Y340790D02*
Y341893D01*
Y343386D02*
Y344473D01*
Y347353D02*
Y349302D01*
Y351500D02*
Y354349D01*
X449000Y338297D02*
Y339902D01*
Y340765D02*
Y341793D01*
Y343579D02*
Y344493D01*
Y347520D02*
Y349441D01*
Y351416D02*
Y354429D01*
X449100Y338464D02*
Y340002D01*
Y340740D02*
Y341693D01*
Y343623D02*
Y344513D01*
Y347687D02*
Y349566D01*
Y351333D02*
Y354489D01*
X449200Y338630D02*
Y340097D01*
Y340715D02*
Y341593D01*
Y343663D02*
Y344533D01*
Y347853D02*
Y349691D01*
Y351250D02*
Y354549D01*
X449300Y338781D02*
Y340177D01*
Y340690D02*
Y341493D01*
Y343703D02*
Y344553D01*
Y348020D02*
Y349816D01*
Y351166D02*
Y352722D01*
Y352963D02*
Y354609D01*
X449400Y338931D02*
Y340257D01*
Y340665D02*
Y341393D01*
Y343743D02*
Y344570D01*
Y348187D02*
Y349931D01*
Y351083D02*
Y352422D01*
Y353406D02*
Y354669D01*
X449500Y339081D02*
Y340337D01*
Y340640D02*
Y341340D01*
Y343783D02*
Y344581D01*
Y348353D02*
Y350031D01*
Y351028D02*
Y352138D01*
Y353606D02*
Y354707D01*
X449600Y339231D02*
Y340417D01*
Y340615D02*
Y341315D01*
Y343813D02*
Y344592D01*
Y348520D02*
Y350131D01*
Y351003D02*
Y352038D01*
Y353806D02*
Y354727D01*
X449700Y339371D02*
Y340497D01*
Y340588D02*
Y341290D01*
Y343830D02*
Y344603D01*
Y348687D02*
Y350231D01*
Y350978D02*
Y351938D01*
Y353857D02*
Y354747D01*
X449800Y339504D02*
Y341265D01*
Y343847D02*
Y344614D01*
Y348853D02*
Y350327D01*
Y350953D02*
Y351838D01*
Y353897D02*
Y354767D01*
X449900Y339638D02*
Y341244D01*
Y343863D02*
Y344625D01*
Y349006D02*
Y350407D01*
Y350928D02*
Y351738D01*
Y353937D02*
Y354787D01*
X450000Y339778D02*
Y341244D01*
Y343880D02*
Y344636D01*
Y349156D02*
Y350487D01*
Y350903D02*
Y351638D01*
Y353977D02*
Y354805D01*
X450100Y339928D02*
Y341244D01*
Y343897D02*
Y344647D01*
Y349306D02*
Y350567D01*
Y350878D02*
Y351578D01*
Y354017D02*
Y354816D01*
X450200Y340065D02*
Y341244D01*
Y343913D02*
Y344658D01*
Y349456D02*
Y350647D01*
Y350853D02*
Y351553D01*
Y354048D02*
Y354827D01*
X450300Y340165D02*
Y341244D01*
Y343915D02*
Y344670D01*
Y349596D02*
Y350727D01*
Y350828D02*
Y351528D01*
Y354065D02*
Y354838D01*
X450400Y340264D02*
Y341244D01*
Y343915D02*
Y344672D01*
Y349730D02*
Y351503D01*
Y354082D02*
Y354849D01*
X450500Y340314D02*
Y341244D01*
Y343915D02*
Y344672D01*
Y349863D02*
Y351480D01*
Y354098D02*
Y354860D01*
X450600Y340364D02*
Y341244D01*
Y343915D02*
Y344672D01*
Y350002D02*
Y351480D01*
Y354115D02*
Y354872D01*
X450700Y340414D02*
Y341244D01*
Y343915D02*
Y344672D01*
Y350152D02*
Y351480D01*
Y354132D02*
Y354883D01*
X450800Y340464D02*
Y341244D01*
Y343915D02*
Y344672D01*
Y350293D02*
Y351480D01*
Y354148D02*
Y354894D01*
X450900Y340486D02*
Y341244D01*
Y343915D02*
Y344672D01*
Y350393D02*
Y351480D01*
Y354151D02*
Y354905D01*
X451000Y340486D02*
Y341244D01*
Y343915D02*
Y344672D01*
Y350493D02*
Y351480D01*
Y354151D02*
Y354908D01*
X451100Y340486D02*
Y341244D01*
Y343915D02*
Y344672D01*
Y350546D02*
Y351480D01*
Y354151D02*
Y354908D01*
X451200Y340486D02*
Y341244D01*
Y343915D02*
Y344672D01*
Y350596D02*
Y351480D01*
Y354151D02*
Y354908D01*
X451300Y340486D02*
Y341244D01*
Y343915D02*
Y344672D01*
Y350646D02*
Y351480D01*
Y354151D02*
Y354908D01*
X451400Y340486D02*
Y341244D01*
Y343915D02*
Y344672D01*
Y350696D02*
Y351480D01*
Y354151D02*
Y354908D01*
X451500Y340486D02*
Y341244D01*
Y343915D02*
Y344672D01*
Y350723D02*
Y351480D01*
Y354151D02*
Y354908D01*
X451600Y340486D02*
Y341244D01*
Y343915D02*
Y344672D01*
Y350723D02*
Y351480D01*
Y354151D02*
Y354908D01*
X451700Y340486D02*
Y341244D01*
Y343915D02*
Y344672D01*
Y350723D02*
Y351480D01*
Y354151D02*
Y354908D01*
X451800Y340486D02*
Y341244D01*
Y343915D02*
Y344672D01*
Y350723D02*
Y351480D01*
Y354151D02*
Y354908D01*
X451900Y340486D02*
Y341244D01*
Y343915D02*
Y344672D01*
Y350723D02*
Y351480D01*
Y354151D02*
Y354908D01*
X452000Y340486D02*
Y341244D01*
Y343915D02*
Y344672D01*
Y350723D02*
Y351480D01*
Y354151D02*
Y354908D01*
X452100Y340486D02*
Y341244D01*
Y343915D02*
Y344672D01*
Y350723D02*
Y351480D01*
Y354151D02*
Y354908D01*
X452200Y340486D02*
Y341244D01*
Y343915D02*
Y344672D01*
Y350723D02*
Y351480D01*
Y354151D02*
Y354908D01*
X452300Y340486D02*
Y341244D01*
Y343915D02*
Y344672D01*
Y350723D02*
Y351480D01*
Y354151D02*
Y354908D01*
X452400Y340486D02*
Y341244D01*
Y343915D02*
Y344672D01*
Y350723D02*
Y351480D01*
Y354151D02*
Y354908D01*
X452500Y340486D02*
Y341244D01*
Y343915D02*
Y344672D01*
Y350723D02*
Y351480D01*
Y354151D02*
Y354908D01*
X452600Y340477D02*
Y341253D01*
Y343905D02*
Y344672D01*
Y350723D02*
Y351480D01*
Y354151D02*
Y354908D01*
X452700Y337058D02*
Y344672D01*
Y350723D02*
Y351480D01*
Y354151D02*
Y354908D01*
X452800Y337058D02*
Y344672D01*
Y350723D02*
Y351480D01*
Y354151D02*
Y354908D01*
X452900Y337058D02*
Y344672D01*
Y350723D02*
Y351480D01*
Y354151D02*
Y354908D01*
X453000Y337058D02*
Y344672D01*
Y350723D02*
Y351480D01*
Y354151D02*
Y354908D01*
X453100Y337058D02*
Y344672D01*
Y350723D02*
Y351480D01*
Y354151D02*
Y354908D01*
X453200Y337058D02*
Y344672D01*
Y350718D02*
Y351485D01*
Y354146D02*
Y354908D01*
X453300Y337058D02*
Y344672D01*
Y347294D02*
Y354908D01*
X453400Y337058D02*
Y344672D01*
Y347294D02*
Y354908D01*
X453500Y337058D02*
Y344672D01*
Y347294D02*
Y354908D01*
X453600Y347294D02*
Y354908D01*
X453700Y347294D02*
Y354908D01*
X453800Y347294D02*
Y354908D01*
X453900Y347294D02*
Y354908D01*
X454000Y347294D02*
Y354908D01*
X454100Y347294D02*
Y354908D01*
X455100Y340594D02*
Y341875D01*
X455200Y339549D02*
Y342225D01*
X455300Y339099D02*
Y342573D01*
X455400Y338649D02*
Y342848D01*
X455500Y338407D02*
Y343123D01*
X455600Y338173D02*
Y343398D01*
X455700Y337940D02*
Y343673D01*
Y350918D02*
Y352084D01*
X455800Y337792D02*
Y343838D01*
Y349821D02*
Y352434D01*
X455900Y337667D02*
Y343971D01*
Y349371D02*
Y352784D01*
X456000Y337542D02*
Y339592D01*
Y341974D02*
Y344104D01*
Y348921D02*
Y353062D01*
X456100Y337417D02*
Y339034D01*
Y342588D02*
Y344200D01*
Y348662D02*
Y353337D01*
X456200Y337338D02*
Y338637D01*
Y342971D02*
Y344275D01*
Y348428D02*
Y353612D01*
X456300Y337288D02*
Y338437D01*
Y343121D02*
Y344350D01*
Y348195D02*
Y353887D01*
X456400Y337238D02*
Y338252D01*
Y343268D02*
Y344425D01*
Y348038D02*
Y354063D01*
X456500Y337188D02*
Y338172D01*
Y343393D02*
Y344471D01*
Y347913D02*
Y354196D01*
X456600Y337138D02*
Y338092D01*
Y343518D02*
Y344491D01*
Y347788D02*
Y349876D01*
Y352155D02*
Y354330D01*
X456700Y337088D02*
Y338012D01*
Y343643D02*
Y344511D01*
Y347663D02*
Y349311D01*
Y352785D02*
Y354430D01*
X456800Y337051D02*
Y337932D01*
Y343768D02*
Y344531D01*
Y347579D02*
Y348889D01*
Y353195D02*
Y354505D01*
X456900Y337037D02*
Y337852D01*
Y343816D02*
Y344551D01*
Y347529D02*
Y348689D01*
Y353345D02*
Y354580D01*
X457000Y337023D02*
Y337807D01*
Y343833D02*
Y344571D01*
Y347479D02*
Y348495D01*
Y353494D02*
Y354655D01*
X457100Y337008D02*
Y337787D01*
Y343849D02*
Y344591D01*
Y347429D02*
Y348414D01*
Y353619D02*
Y354706D01*
X457200Y336994D02*
Y337767D01*
Y343866D02*
Y344611D01*
Y347379D02*
Y348334D01*
Y353744D02*
Y354726D01*
X457300Y336980D02*
Y337747D01*
Y343883D02*
Y344631D01*
Y347329D02*
Y348254D01*
Y353869D02*
Y354746D01*
X457400Y336965D02*
Y337727D01*
Y343899D02*
Y344651D01*
Y347288D02*
Y348174D01*
Y353994D02*
Y354766D01*
X457500Y336952D02*
Y337708D01*
Y343915D02*
Y344671D01*
Y347274D02*
Y348094D01*
Y354051D02*
Y354786D01*
X457600Y336974D02*
Y337727D01*
Y343896D02*
Y344657D01*
Y347260D02*
Y348045D01*
Y354067D02*
Y354806D01*
X457700Y336997D02*
Y337747D01*
Y343876D02*
Y344643D01*
Y347246D02*
Y348025D01*
Y354084D02*
Y354826D01*
X457800Y337019D02*
Y337767D01*
Y343856D02*
Y344629D01*
Y347231D02*
Y348005D01*
Y354101D02*
Y354846D01*
X457900Y337041D02*
Y337787D01*
Y343836D02*
Y344614D01*
Y347217D02*
Y347985D01*
Y354117D02*
Y354866D01*
X458000Y337063D02*
Y337807D01*
Y343816D02*
Y344600D01*
Y347203D02*
Y347965D01*
Y354134D02*
Y354886D01*
X458100Y337085D02*
Y337853D01*
Y343770D02*
Y344586D01*
Y347188D02*
Y347945D01*
Y354151D02*
Y354906D01*
X458200Y337108D02*
Y337933D01*
Y343690D02*
Y344572D01*
Y347209D02*
Y347962D01*
Y354134D02*
Y354895D01*
X458300Y337130D02*
Y338013D01*
Y343610D02*
Y344534D01*
Y347231D02*
Y347982D01*
Y354114D02*
Y354880D01*
X458400Y337152D02*
Y338093D01*
Y343530D02*
Y344484D01*
Y347253D02*
Y348002D01*
Y354094D02*
Y354866D01*
X458500Y337203D02*
Y338173D01*
Y343450D02*
Y344434D01*
Y347275D02*
Y348022D01*
Y354074D02*
Y354852D01*
X458600Y337274D02*
Y338253D01*
Y343370D02*
Y344384D01*
Y347298D02*
Y348042D01*
Y354054D02*
Y354837D01*
X458700Y337345D02*
Y338441D01*
Y343182D02*
Y344334D01*
Y347320D02*
Y348083D01*
Y354012D02*
Y354823D01*
X458800Y337417D02*
Y338641D01*
Y342982D02*
Y344284D01*
Y347342D02*
Y348163D01*
Y353932D02*
Y354809D01*
X458900Y337488D02*
Y339043D01*
Y342580D02*
Y344204D01*
Y347364D02*
Y348243D01*
Y353852D02*
Y354774D01*
X459000Y337560D02*
Y339602D01*
Y341963D02*
Y344079D01*
Y347387D02*
Y348323D01*
Y353772D02*
Y354724D01*
X459100Y337631D02*
Y343954D01*
Y347433D02*
Y348403D01*
Y353692D02*
Y354674D01*
X459200Y337726D02*
Y343829D01*
Y347505D02*
Y348483D01*
Y353612D02*
Y354624D01*
X459300Y337892D02*
Y343679D01*
Y347576D02*
Y348661D01*
Y353434D02*
Y354574D01*
X459400Y338059D02*
Y343446D01*
Y347647D02*
Y348861D01*
Y353234D02*
Y354524D01*
X459500Y338246D02*
Y343212D01*
Y347719D02*
Y349239D01*
Y352856D02*
Y354450D01*
X459600Y338596D02*
Y342966D01*
Y347790D02*
Y349790D01*
Y352255D02*
Y354325D01*
X459700Y338946D02*
Y342516D01*
Y347862D02*
Y354200D01*
X459800Y339346D02*
Y342066D01*
Y347948D02*
Y354075D01*
X459900Y339746D02*
Y340917D01*
Y348115D02*
Y353934D01*
X460000Y348282D02*
Y353700D01*
X460100Y348455D02*
Y353467D01*
X460200Y348805D02*
Y353234D01*
X460300Y349155D02*
Y352789D01*
X460400Y349550D02*
Y352339D01*
X460500Y349950D02*
Y351249D01*
X461100Y339538D02*
Y339820D01*
X461200Y338614D02*
Y340646D01*
X461300Y338439D02*
Y340786D01*
X461400Y338264D02*
Y340926D01*
X461500Y338089D02*
Y341066D01*
X461600Y337914D02*
Y341206D01*
Y343701D02*
Y344565D01*
X461700Y337806D02*
Y341346D01*
Y343701D02*
Y344565D01*
Y349854D02*
Y349984D01*
X461800Y337706D02*
Y341427D01*
Y343701D02*
Y344565D01*
Y348865D02*
Y350871D01*
X461900Y337606D02*
Y341498D01*
Y343701D02*
Y344565D01*
Y348690D02*
Y351011D01*
X462000Y337506D02*
Y339220D01*
Y339939D02*
Y341569D01*
Y343701D02*
Y344565D01*
Y348515D02*
Y351151D01*
X462100Y337423D02*
Y338743D01*
Y340416D02*
Y341641D01*
Y343701D02*
Y344565D01*
Y348340D02*
Y351291D01*
X462200Y337348D02*
Y338576D01*
Y340583D02*
Y341712D01*
Y343701D02*
Y344565D01*
Y348165D02*
Y351431D01*
Y353937D02*
Y354801D01*
X462300Y337273D02*
Y338409D01*
Y340749D02*
Y341784D01*
Y343701D02*
Y344565D01*
Y348051D02*
Y351571D01*
Y353937D02*
Y354801D01*
X462400Y337198D02*
Y338251D01*
Y340907D02*
Y341855D01*
Y343701D02*
Y344565D01*
Y347951D02*
Y351657D01*
Y353937D02*
Y354801D01*
X462500Y337152D02*
Y338151D01*
Y340982D02*
Y341903D01*
Y343701D02*
Y344565D01*
Y347851D02*
Y351729D01*
Y353937D02*
Y354801D01*
X462600Y337132D02*
Y338051D01*
Y341057D02*
Y341928D01*
Y343701D02*
Y344565D01*
Y347751D02*
Y349512D01*
Y350119D02*
Y351800D01*
Y353937D02*
Y354801D01*
X462700Y337112D02*
Y337951D01*
Y341132D02*
Y341953D01*
Y343701D02*
Y344565D01*
Y347666D02*
Y348992D01*
Y350639D02*
Y351871D01*
Y353937D02*
Y354801D01*
X462800Y337092D02*
Y337851D01*
Y341207D02*
Y341978D01*
Y343701D02*
Y344565D01*
Y347591D02*
Y348825D01*
Y350806D02*
Y351943D01*
Y353937D02*
Y354801D01*
X462900Y337072D02*
Y337808D01*
Y341243D02*
Y342003D01*
Y343701D02*
Y344565D01*
Y347516D02*
Y348659D01*
Y350972D02*
Y352014D01*
Y353937D02*
Y354801D01*
X463000Y337052D02*
Y337794D01*
Y341257D02*
Y342028D01*
Y343701D02*
Y344565D01*
Y347441D02*
Y348495D01*
Y351136D02*
Y352086D01*
Y353937D02*
Y354801D01*
X463100Y337036D02*
Y337780D01*
Y341272D02*
Y342053D01*
Y343701D02*
Y344565D01*
Y347389D02*
Y348395D01*
Y351212D02*
Y352137D01*
Y353937D02*
Y354801D01*
X463200Y337019D02*
Y337765D01*
Y341286D02*
Y342078D01*
Y343701D02*
Y344565D01*
Y347369D02*
Y348295D01*
Y351287D02*
Y352162D01*
Y353937D02*
Y354801D01*
X463300Y337002D02*
Y337751D01*
Y341300D02*
Y342098D01*
Y343701D02*
Y344565D01*
Y347349D02*
Y348195D01*
Y351362D02*
Y352187D01*
Y353937D02*
Y354801D01*
X463400Y336986D02*
Y337737D01*
Y341315D02*
Y342084D01*
Y343701D02*
Y344565D01*
Y347329D02*
Y348095D01*
Y351437D02*
Y352212D01*
Y353937D02*
Y354801D01*
X463500Y336969D02*
Y337723D01*
Y341329D02*
Y342069D01*
Y343701D02*
Y344565D01*
Y347309D02*
Y348046D01*
Y351478D02*
Y352237D01*
Y353937D02*
Y354801D01*
X463600Y336952D02*
Y337708D01*
Y341343D02*
Y342055D01*
Y343701D02*
Y344565D01*
Y347290D02*
Y348031D01*
Y351493D02*
Y352262D01*
Y353937D02*
Y354801D01*
X463700Y336963D02*
Y337726D01*
Y341319D02*
Y342041D01*
Y343701D02*
Y344565D01*
Y347273D02*
Y348017D01*
Y351507D02*
Y352287D01*
Y353937D02*
Y354801D01*
X463800Y336975D02*
Y337746D01*
Y341290D02*
Y342027D01*
Y343701D02*
Y344565D01*
Y347257D02*
Y348003D01*
Y351521D02*
Y352312D01*
Y353937D02*
Y354801D01*
X463900Y336988D02*
Y337766D01*
Y341262D02*
Y342012D01*
Y343701D02*
Y344565D01*
Y347240D02*
Y347988D01*
Y351535D02*
Y352335D01*
Y353937D02*
Y354801D01*
X464000Y337000D02*
Y337786D01*
Y341233D02*
Y341998D01*
Y343701D02*
Y344565D01*
Y347223D02*
Y347974D01*
Y351550D02*
Y352321D01*
Y353937D02*
Y354801D01*
Y357137D02*
Y357894D01*
X464100Y337013D02*
Y337806D01*
Y341205D02*
Y341940D01*
Y343701D02*
Y344565D01*
Y347207D02*
Y347960D01*
Y351564D02*
Y352307D01*
Y353937D02*
Y354801D01*
Y357137D02*
Y357894D01*
X464200Y337025D02*
Y337838D01*
Y341176D02*
Y341873D01*
Y343701D02*
Y344565D01*
Y347190D02*
Y347946D01*
Y351578D02*
Y352293D01*
Y353937D02*
Y354801D01*
Y357137D02*
Y357894D01*
X464300Y337038D02*
Y337888D01*
Y341147D02*
Y341807D01*
Y343701D02*
Y344565D01*
Y347198D02*
Y347960D01*
Y351557D02*
Y352278D01*
Y353937D02*
Y354801D01*
Y357137D02*
Y357894D01*
X464400Y337050D02*
Y337938D01*
Y341106D02*
Y341740D01*
Y343675D02*
Y344565D01*
Y347211D02*
Y347980D01*
Y351529D02*
Y352264D01*
Y353937D02*
Y354801D01*
Y357137D02*
Y357894D01*
X464500Y337086D02*
Y337988D01*
Y341006D02*
Y341673D01*
Y343061D02*
Y344565D01*
Y347223D02*
Y348000D01*
Y351500D02*
Y352250D01*
Y353937D02*
Y354801D01*
Y357137D02*
Y357894D01*
X464600Y337143D02*
Y338039D01*
Y340906D02*
Y341607D01*
Y342428D02*
Y344565D01*
Y347236D02*
Y348020D01*
Y351472D02*
Y352235D01*
Y353937D02*
Y354801D01*
Y357137D02*
Y357894D01*
X464700Y337201D02*
Y338226D01*
Y340806D02*
Y341570D01*
Y341795D02*
Y344565D01*
Y347248D02*
Y348040D01*
Y351443D02*
Y352182D01*
Y353937D02*
Y354801D01*
Y357137D02*
Y357894D01*
X464800Y337258D02*
Y338426D01*
Y340706D02*
Y344565D01*
Y347261D02*
Y348070D01*
Y351414D02*
Y352115D01*
Y353937D02*
Y354801D01*
Y357137D02*
Y357894D01*
X464900Y337315D02*
Y338695D01*
Y340606D02*
Y344565D01*
Y347273D02*
Y348120D01*
Y351386D02*
Y352048D01*
Y353937D02*
Y354801D01*
Y357137D02*
Y357894D01*
X465000Y337372D02*
Y338995D01*
Y340606D02*
Y344565D01*
Y347286D02*
Y348170D01*
Y351351D02*
Y351982D01*
Y353922D02*
Y354801D01*
Y357137D02*
Y357894D01*
X465100Y337429D02*
Y339089D01*
Y340617D02*
Y344379D01*
Y347318D02*
Y348220D01*
Y351251D02*
Y351915D01*
Y353348D02*
Y354801D01*
Y357137D02*
Y357894D01*
X465200Y337504D02*
Y339078D01*
Y340628D02*
Y343851D01*
Y347375D02*
Y348270D01*
Y351151D02*
Y351848D01*
Y352715D02*
Y354801D01*
Y357137D02*
Y357894D01*
X465300Y337644D02*
Y339067D01*
Y340639D02*
Y343322D01*
Y347432D02*
Y348447D01*
Y351051D02*
Y351803D01*
Y352081D02*
Y354801D01*
Y357137D02*
Y357894D01*
X465400Y337784D02*
Y339056D01*
Y340650D02*
Y342794D01*
Y347489D02*
Y348647D01*
Y350951D02*
Y354801D01*
Y357137D02*
Y357894D01*
X465500Y337924D02*
Y339045D01*
Y340661D02*
Y342265D01*
Y347547D02*
Y348907D01*
Y350851D02*
Y354801D01*
Y357137D02*
Y357894D01*
X465600Y338064D02*
Y339034D01*
Y340673D02*
Y341736D01*
Y347604D02*
Y349207D01*
Y350841D02*
Y354801D01*
Y357137D02*
Y357894D01*
X465700Y338204D02*
Y339023D01*
Y340684D02*
Y341208D01*
Y347661D02*
Y349326D01*
Y350852D02*
Y354658D01*
Y357137D02*
Y357894D01*
X465800Y338596D02*
Y339011D01*
Y347729D02*
Y349315D01*
Y350863D02*
Y354129D01*
Y357137D02*
Y357894D01*
X465900Y338996D02*
Y339000D01*
Y347869D02*
Y349304D01*
Y350875D02*
Y353601D01*
Y357137D02*
Y357894D01*
X466000Y348009D02*
Y349293D01*
Y350886D02*
Y353072D01*
Y357137D02*
Y357894D01*
X466100Y348149D02*
Y349282D01*
Y350897D02*
Y352543D01*
Y357137D02*
Y357894D01*
X466200Y348289D02*
Y349271D01*
Y350908D02*
Y352015D01*
Y357137D02*
Y357894D01*
X466300Y348429D02*
Y349260D01*
Y350919D02*
Y351486D01*
Y357137D02*
Y357894D01*
X466400Y348800D02*
Y349249D01*
Y350930D02*
Y350958D01*
Y357137D02*
Y357894D01*
X466500Y349200D02*
Y349237D01*
Y357137D02*
Y357894D01*
X466600Y357137D02*
Y357894D01*
X466700Y357137D02*
Y357894D01*
X466800Y357137D02*
Y357894D01*
X466900Y357137D02*
Y357894D01*
X467000Y357137D02*
Y357894D01*
X467100Y339204D02*
Y339360D01*
Y357137D02*
Y357894D01*
X467200Y338804D02*
Y340007D01*
Y357137D02*
Y357894D01*
X467300Y338414D02*
Y340174D01*
Y357137D02*
Y357894D01*
X467400Y338254D02*
Y340341D01*
Y357137D02*
Y357894D01*
X467500Y338094D02*
Y340507D01*
Y357137D02*
Y357894D01*
X467600Y337934D02*
Y340609D01*
Y342346D02*
Y343114D01*
Y357137D02*
Y357894D01*
X467700Y337774D02*
Y340709D01*
Y341946D02*
Y343614D01*
Y349472D02*
Y349541D01*
Y357137D02*
Y364751D01*
X467800Y337614D02*
Y340809D01*
Y341800D02*
Y343787D01*
Y349072D02*
Y350230D01*
Y357137D02*
Y364751D01*
X467900Y337535D02*
Y340909D01*
Y341725D02*
Y343862D01*
Y348672D02*
Y350397D01*
Y357137D02*
Y364751D01*
X468000Y337478D02*
Y338999D01*
Y339567D02*
Y340955D01*
Y341650D02*
Y343937D01*
Y348503D02*
Y350564D01*
Y357137D02*
Y364751D01*
X468100Y337421D02*
Y338635D01*
Y339976D02*
Y340989D01*
Y341575D02*
Y344012D01*
Y348343D02*
Y350730D01*
Y357137D02*
Y364751D01*
X468200Y337364D02*
Y338469D01*
Y340109D02*
Y341022D01*
Y341500D02*
Y344087D01*
Y348183D02*
Y350838D01*
Y352615D02*
Y353311D01*
Y357137D02*
Y364751D01*
X468300Y337307D02*
Y338302D01*
Y340242D02*
Y341055D01*
Y341425D02*
Y344162D01*
Y348023D02*
Y350938D01*
Y352215D02*
Y353811D01*
Y357137D02*
Y364751D01*
X468400Y337250D02*
Y338145D01*
Y340371D02*
Y341089D01*
Y341350D02*
Y342570D01*
Y342782D02*
Y344237D01*
Y347863D02*
Y351038D01*
Y352042D02*
Y354017D01*
Y357137D02*
Y364751D01*
X468500Y337193D02*
Y338070D01*
Y340446D02*
Y341122D01*
Y341275D02*
Y342115D01*
Y343157D02*
Y344312D01*
Y347776D02*
Y351138D01*
Y351967D02*
Y354092D01*
Y357137D02*
Y364751D01*
X468600Y337153D02*
Y337995D01*
Y340521D02*
Y342015D01*
Y343357D02*
Y344373D01*
Y347719D02*
Y349275D01*
Y349755D02*
Y351189D01*
Y351892D02*
Y354167D01*
Y357137D02*
Y364751D01*
X468700Y337133D02*
Y337920D01*
Y340596D02*
Y341915D01*
Y343557D02*
Y344413D01*
Y347662D02*
Y348885D01*
Y350201D02*
Y351222D01*
Y351817D02*
Y354242D01*
X468800Y337113D02*
Y337845D01*
Y340671D02*
Y341815D01*
Y343638D02*
Y344453D01*
Y347605D02*
Y348718D01*
Y350335D02*
Y351256D01*
Y351742D02*
Y354317D01*
X468900Y337093D02*
Y337807D01*
Y340709D02*
Y341734D01*
Y343704D02*
Y344493D01*
Y347548D02*
Y348552D01*
Y350468D02*
Y351289D01*
Y351667D02*
Y354392D01*
X469000Y337073D02*
Y337790D01*
Y340725D02*
Y341659D01*
Y343771D02*
Y344533D01*
Y347490D02*
Y348388D01*
Y350601D02*
Y351322D01*
Y351592D02*
Y352846D01*
Y352986D02*
Y354467D01*
X469100Y337053D02*
Y337774D01*
Y340742D02*
Y341584D01*
Y343815D02*
Y344570D01*
Y347433D02*
Y348312D01*
Y350676D02*
Y351356D01*
Y351517D02*
Y352361D01*
Y353377D02*
Y354542D01*
X469200Y337033D02*
Y337757D01*
Y340759D02*
Y341509D01*
Y343835D02*
Y344590D01*
Y347391D02*
Y348237D01*
Y350751D02*
Y352259D01*
Y353577D02*
Y354606D01*
X469300Y337013D02*
Y337740D01*
Y340775D02*
Y341458D01*
Y343855D02*
Y344610D01*
Y347371D02*
Y348162D01*
Y350826D02*
Y352159D01*
Y353777D02*
Y354646D01*
X469400Y336993D02*
Y337724D01*
Y340792D02*
Y341458D01*
Y343875D02*
Y344630D01*
Y347351D02*
Y348087D01*
Y350901D02*
Y352059D01*
Y353868D02*
Y354686D01*
X469500Y336973D02*
Y337708D01*
Y340808D02*
Y341458D01*
Y343895D02*
Y344650D01*
Y347331D02*
Y348045D01*
Y350944D02*
Y351976D01*
Y353935D02*
Y354726D01*
X469600Y336953D02*
Y337727D01*
Y340792D02*
Y341458D01*
Y343915D02*
Y344670D01*
Y347311D02*
Y348028D01*
Y350960D02*
Y351901D01*
Y354002D02*
Y354766D01*
X469700Y336963D02*
Y337747D01*
Y340775D02*
Y341458D01*
Y343893D02*
Y344660D01*
Y347291D02*
Y348011D01*
Y350977D02*
Y351826D01*
Y354049D02*
Y354805D01*
X469800Y336975D02*
Y337767D01*
Y340758D02*
Y341458D01*
Y343868D02*
Y344648D01*
Y347271D02*
Y347995D01*
Y350994D02*
Y351751D01*
Y354069D02*
Y354825D01*
X469900Y336988D02*
Y337787D01*
Y340742D02*
Y341458D01*
Y343843D02*
Y344635D01*
Y347251D02*
Y347978D01*
Y351010D02*
Y351694D01*
Y354089D02*
Y354845D01*
X470000Y337000D02*
Y337807D01*
Y340725D02*
Y341384D01*
Y343818D02*
Y344623D01*
Y347231D02*
Y347961D01*
Y351027D02*
Y351694D01*
Y354109D02*
Y354865D01*
X470100Y337013D02*
Y337842D01*
Y343781D02*
Y344610D01*
Y347211D02*
Y347945D01*
Y351044D02*
Y351694D01*
Y354129D02*
Y354885D01*
X470200Y337025D02*
Y337892D01*
Y343731D02*
Y344598D01*
Y347191D02*
Y347962D01*
Y351029D02*
Y351694D01*
Y354149D02*
Y354905D01*
Y362211D02*
Y363184D01*
X470300Y337038D02*
Y337942D01*
Y343681D02*
Y344585D01*
Y347198D02*
Y347982D01*
Y351013D02*
Y351694D01*
Y354131D02*
Y354897D01*
Y361660D02*
Y363434D01*
X470400Y337050D02*
Y337992D01*
Y343631D02*
Y344573D01*
Y347211D02*
Y348002D01*
Y350996D02*
Y351694D01*
Y354106D02*
Y354885D01*
Y361520D02*
Y363644D01*
X470500Y337086D02*
Y338045D01*
Y343578D02*
Y344531D01*
Y347223D02*
Y348022D01*
Y350979D02*
Y351694D01*
Y354081D02*
Y354872D01*
Y361380D02*
Y363777D01*
X470600Y337143D02*
Y338178D01*
Y343382D02*
Y344464D01*
Y347236D02*
Y348042D01*
Y350963D02*
Y351684D01*
Y354056D02*
Y354860D01*
Y361240D02*
Y363910D01*
X470700Y337201D02*
Y338311D01*
Y343182D02*
Y344397D01*
Y347248D02*
Y348074D01*
Y354021D02*
Y354847D01*
Y361100D02*
Y364037D01*
X470800Y337258D02*
Y338445D01*
Y342944D02*
Y344331D01*
Y347261D02*
Y348124D01*
Y353971D02*
Y354835D01*
Y360964D02*
Y364137D01*
X470900Y337315D02*
Y338695D01*
Y342694D02*
Y344264D01*
Y347273D02*
Y348174D01*
Y353921D02*
Y354822D01*
Y360864D02*
Y364237D01*
X471000Y337372D02*
Y338995D01*
Y342642D02*
Y344197D01*
Y347286D02*
Y348224D01*
Y353871D02*
Y354810D01*
Y360764D02*
Y364332D01*
X471100Y337429D02*
Y339089D01*
Y342653D02*
Y344106D01*
Y347318D02*
Y348274D01*
Y353821D02*
Y354772D01*
Y360665D02*
Y364365D01*
X471200Y337504D02*
Y339078D01*
Y342664D02*
Y343956D01*
Y347375D02*
Y348404D01*
Y353634D02*
Y354705D01*
Y360625D02*
Y362189D01*
Y363134D02*
Y364398D01*
X471300Y337644D02*
Y339067D01*
Y342675D02*
Y343806D01*
Y347432D02*
Y348537D01*
Y353434D02*
Y354639D01*
Y360585D02*
Y361894D01*
Y363334D02*
Y364432D01*
X471400Y337784D02*
Y339056D01*
Y342686D02*
Y343656D01*
Y347489D02*
Y348670D01*
Y353200D02*
Y354572D01*
Y360545D02*
Y361728D01*
Y363486D02*
Y364465D01*
X471500Y337924D02*
Y339045D01*
Y342697D02*
Y343494D01*
Y347547D02*
Y348907D01*
Y352950D02*
Y354505D01*
Y360505D02*
Y361561D01*
Y363586D02*
Y364498D01*
X471600Y338064D02*
Y339034D01*
Y342708D02*
Y343228D01*
Y347604D02*
Y349207D01*
Y352877D02*
Y354439D01*
Y360465D02*
Y361428D01*
Y363686D02*
Y364532D01*
X471700Y338204D02*
Y339023D01*
Y342719D02*
Y342961D01*
Y347661D02*
Y349326D01*
Y352888D02*
Y354354D01*
Y360440D02*
Y361388D01*
Y363777D02*
Y364565D01*
X471800Y338596D02*
Y339011D01*
Y347729D02*
Y349315D01*
Y352899D02*
Y354204D01*
Y360420D02*
Y361348D01*
Y363811D02*
Y364598D01*
X471900Y338996D02*
Y339000D01*
Y347869D02*
Y349304D01*
Y352910D02*
Y354054D01*
Y360400D02*
Y361308D01*
Y363844D02*
Y364632D01*
X472000Y348009D02*
Y349293D01*
Y352921D02*
Y353904D01*
Y360380D02*
Y361268D01*
Y363877D02*
Y364660D01*
X472100Y348149D02*
Y349282D01*
Y352932D02*
Y353752D01*
Y360360D02*
Y361228D01*
Y363911D02*
Y364685D01*
X472200Y348289D02*
Y349271D01*
Y352944D02*
Y353485D01*
Y360351D02*
Y361207D01*
Y363944D02*
Y364710D01*
X472300Y348429D02*
Y349260D01*
Y352955D02*
Y353218D01*
Y360351D02*
Y361192D01*
Y363977D02*
Y364735D01*
X472400Y348800D02*
Y349249D01*
Y360351D02*
Y361178D01*
Y363994D02*
Y364751D01*
X472500Y349200D02*
Y349237D01*
Y360351D02*
Y361164D01*
Y363994D02*
Y364751D01*
X472600Y360351D02*
Y361149D01*
Y363994D02*
Y364751D01*
X472700Y360351D02*
Y361135D01*
Y363994D02*
Y364751D01*
X472800Y360351D02*
Y361121D01*
Y363994D02*
Y364751D01*
X472900Y360351D02*
Y361108D01*
Y363994D02*
Y364751D01*
X473000Y360351D02*
Y361108D01*
Y363994D02*
Y364751D01*
X473100Y343863D02*
Y344565D01*
Y360351D02*
Y361108D01*
Y363994D02*
Y364751D01*
X473200Y343734D02*
Y344565D01*
Y360351D02*
Y361108D01*
Y363994D02*
Y364751D01*
X473300Y343606D02*
Y344565D01*
Y360351D02*
Y361108D01*
Y363994D02*
Y364751D01*
X473400Y343477D02*
Y344565D01*
Y360351D02*
Y361108D01*
Y363994D02*
Y364751D01*
X473500Y343348D02*
Y344565D01*
Y360351D02*
Y361108D01*
Y363994D02*
Y364751D01*
X473600Y343220D02*
Y344565D01*
Y360351D02*
Y361108D01*
Y363994D02*
Y364751D01*
X473700Y343091D02*
Y344565D01*
Y354109D02*
Y354801D01*
Y360351D02*
Y361108D01*
Y363994D02*
Y364751D01*
X473800Y342963D02*
Y344565D01*
Y353981D02*
Y354801D01*
Y360351D02*
Y361108D01*
Y363994D02*
Y364751D01*
X473900Y342794D02*
Y344565D01*
Y353852D02*
Y354801D01*
Y360351D02*
Y361108D01*
Y363994D02*
Y364751D01*
X474000Y342611D02*
Y343568D01*
Y343701D02*
Y344565D01*
Y353723D02*
Y354801D01*
Y360351D02*
Y361108D01*
Y363994D02*
Y364751D01*
X474100Y342427D02*
Y343440D01*
Y343701D02*
Y344565D01*
Y353595D02*
Y354801D01*
Y360351D02*
Y361108D01*
Y363994D02*
Y364751D01*
X474200Y342244D02*
Y343311D01*
Y343701D02*
Y344565D01*
Y353466D02*
Y354801D01*
Y360351D02*
Y361108D01*
Y363994D02*
Y364751D01*
X474300Y342061D02*
Y343182D01*
Y343701D02*
Y344565D01*
Y353338D02*
Y354801D01*
Y360351D02*
Y361108D01*
Y363994D02*
Y364751D01*
X474400Y341877D02*
Y343054D01*
Y343701D02*
Y344565D01*
Y353209D02*
Y354801D01*
Y360351D02*
Y361108D01*
Y363994D02*
Y364751D01*
X474500Y341689D02*
Y342925D01*
Y343701D02*
Y344565D01*
Y353045D02*
Y354801D01*
Y360351D02*
Y361108D01*
Y363994D02*
Y364751D01*
X474600Y341489D02*
Y342797D01*
Y343701D02*
Y344565D01*
Y352862D02*
Y353815D01*
Y353936D02*
Y354801D01*
Y360351D02*
Y361108D01*
Y363994D02*
Y364751D01*
X474700Y341289D02*
Y342668D01*
Y343701D02*
Y344565D01*
Y352678D02*
Y353686D01*
Y353937D02*
Y354801D01*
Y360351D02*
Y361108D01*
Y363994D02*
Y364751D01*
X474800Y341089D02*
Y342527D01*
Y343701D02*
Y344565D01*
Y352495D02*
Y353558D01*
Y353937D02*
Y354801D01*
Y360351D02*
Y361108D01*
Y363994D02*
Y364751D01*
X474900Y340889D02*
Y342384D01*
Y343701D02*
Y344565D01*
Y352312D02*
Y353429D01*
Y353937D02*
Y354801D01*
Y357137D02*
Y364751D01*
X475000Y340689D02*
Y342241D01*
Y343701D02*
Y344565D01*
Y352128D02*
Y353300D01*
Y353937D02*
Y354801D01*
Y357137D02*
Y364751D01*
X475100Y340489D02*
Y342098D01*
Y343701D02*
Y344565D01*
Y351942D02*
Y353172D01*
Y353937D02*
Y354801D01*
Y357137D02*
Y364751D01*
X475200Y340256D02*
Y341955D01*
Y343701D02*
Y344565D01*
Y351742D02*
Y353043D01*
Y353937D02*
Y354801D01*
Y357137D02*
Y364751D01*
X475300Y340016D02*
Y341812D01*
Y343701D02*
Y344565D01*
Y351542D02*
Y352915D01*
Y353937D02*
Y354801D01*
Y357137D02*
Y364751D01*
X475400Y339776D02*
Y341669D01*
Y343701D02*
Y344565D01*
Y351342D02*
Y352774D01*
Y353937D02*
Y354801D01*
Y357137D02*
Y364751D01*
X475500Y339536D02*
Y341492D01*
Y343701D02*
Y344565D01*
Y351142D02*
Y352631D01*
Y353937D02*
Y354801D01*
Y357137D02*
Y364751D01*
X475600Y339296D02*
Y341272D01*
Y343701D02*
Y344565D01*
Y350942D02*
Y352489D01*
Y353937D02*
Y354801D01*
Y357137D02*
Y364751D01*
X475700Y338937D02*
Y341052D01*
Y343701D02*
Y344565D01*
Y350742D02*
Y352346D01*
Y353937D02*
Y354801D01*
Y357137D02*
Y364751D01*
X475800Y338437D02*
Y340832D01*
Y343701D02*
Y344565D01*
Y350511D02*
Y352203D01*
Y353937D02*
Y354801D01*
Y357137D02*
Y364751D01*
X475900Y337788D02*
Y340612D01*
Y343701D02*
Y344565D01*
Y350271D02*
Y352060D01*
Y353937D02*
Y354801D01*
X476000Y337058D02*
Y340383D01*
Y343701D02*
Y344565D01*
Y350031D02*
Y351917D01*
Y353937D02*
Y354801D01*
X476100Y337058D02*
Y340083D01*
Y343701D02*
Y344565D01*
Y349791D02*
Y351746D01*
Y353937D02*
Y354801D01*
X476200Y337058D02*
Y339783D01*
Y343701D02*
Y344565D01*
Y349551D02*
Y351526D01*
Y353937D02*
Y354801D01*
X476300Y337058D02*
Y339483D01*
Y343701D02*
Y344565D01*
Y349213D02*
Y351306D01*
Y353937D02*
Y354801D01*
X476400Y337058D02*
Y339183D01*
Y343701D02*
Y344565D01*
Y348713D02*
Y351086D01*
Y353937D02*
Y354801D01*
X476500Y337058D02*
Y338827D01*
Y343701D02*
Y344565D01*
Y348104D02*
Y350866D01*
Y353937D02*
Y354801D01*
X476600Y337058D02*
Y338460D01*
Y343701D02*
Y344565D01*
Y347294D02*
Y350643D01*
Y353937D02*
Y354801D01*
X476700Y337058D02*
Y338093D01*
Y343701D02*
Y344565D01*
Y347294D02*
Y350343D01*
Y353937D02*
Y354801D01*
X476800Y337058D02*
Y337383D01*
Y343701D02*
Y344565D01*
Y347294D02*
Y350043D01*
Y353937D02*
Y354801D01*
X476900Y343701D02*
Y344565D01*
Y347294D02*
Y349743D01*
Y353937D02*
Y354801D01*
X477000Y343701D02*
Y344565D01*
Y347294D02*
Y349443D01*
Y353937D02*
Y354801D01*
X477100Y343701D02*
Y344565D01*
Y347294D02*
Y349092D01*
Y353937D02*
Y354801D01*
X477200Y343701D02*
Y344565D01*
Y347294D02*
Y348725D01*
Y353937D02*
Y354801D01*
X477300Y343701D02*
Y344565D01*
Y347294D02*
Y348359D01*
Y353937D02*
Y354801D01*
X477400Y343701D02*
Y344565D01*
Y347294D02*
Y347691D01*
Y353937D02*
Y354801D01*
X477500Y343701D02*
Y344565D01*
Y353937D02*
Y354801D01*
X477600Y343701D02*
Y344565D01*
Y353937D02*
Y354801D01*
Y357137D02*
Y364751D01*
X477700Y343701D02*
Y344565D01*
Y353937D02*
Y354801D01*
Y357137D02*
Y364751D01*
X477800Y343701D02*
Y344565D01*
Y353937D02*
Y354801D01*
Y357137D02*
Y364751D01*
X477900Y343701D02*
Y344565D01*
Y353937D02*
Y354801D01*
Y357137D02*
Y364751D01*
X478000Y343701D02*
Y344565D01*
Y353937D02*
Y354801D01*
Y357137D02*
Y364751D01*
X478100Y353937D02*
Y354801D01*
Y357137D02*
Y364751D01*
X478200Y353937D02*
Y354801D01*
Y357137D02*
Y364751D01*
X478300Y353937D02*
Y354801D01*
Y357137D02*
Y364751D01*
X478400Y353937D02*
Y354801D01*
Y357137D02*
Y364751D01*
X478500Y353937D02*
Y354801D01*
Y357137D02*
Y364751D01*
X478600Y353937D02*
Y354801D01*
Y363663D02*
Y364751D01*
X478700Y363391D02*
Y364751D01*
X478800Y363086D02*
Y364751D01*
X478900Y362781D02*
Y364751D01*
X479000Y362476D02*
Y364751D01*
X479100Y339538D02*
Y339820D01*
Y362171D02*
Y364659D01*
X479200Y338614D02*
Y340646D01*
Y361866D02*
Y364347D01*
X479300Y338439D02*
Y340786D01*
Y361561D02*
Y364034D01*
X479400Y338264D02*
Y340926D01*
Y361256D02*
Y363722D01*
X479500Y338089D02*
Y341066D01*
Y360951D02*
Y363409D01*
X479600Y337914D02*
Y341206D01*
Y343701D02*
Y344565D01*
Y360646D02*
Y363097D01*
X479700Y337806D02*
Y341346D01*
Y343701D02*
Y344565D01*
Y349854D02*
Y349984D01*
Y360341D02*
Y362784D01*
X479800Y337706D02*
Y341427D01*
Y343701D02*
Y344565D01*
Y348865D02*
Y350871D01*
Y360036D02*
Y362472D01*
X479900Y337606D02*
Y341498D01*
Y343701D02*
Y344565D01*
Y348690D02*
Y351011D01*
Y359731D02*
Y362159D01*
X480000Y337506D02*
Y339220D01*
Y339939D02*
Y341569D01*
Y343701D02*
Y344565D01*
Y348515D02*
Y351151D01*
Y359426D02*
Y361847D01*
X480100Y337423D02*
Y338743D01*
Y340416D02*
Y341641D01*
Y343701D02*
Y344565D01*
Y348340D02*
Y351291D01*
Y359121D02*
Y361534D01*
X480200Y337348D02*
Y338576D01*
Y340583D02*
Y341712D01*
Y343701D02*
Y344565D01*
Y348165D02*
Y351431D01*
Y353937D02*
Y354801D01*
Y358816D02*
Y361222D01*
X480300Y337273D02*
Y338409D01*
Y340749D02*
Y341784D01*
Y343701D02*
Y344565D01*
Y348051D02*
Y351571D01*
Y353937D02*
Y354801D01*
Y358511D02*
Y360909D01*
X480400Y337198D02*
Y338251D01*
Y340907D02*
Y341855D01*
Y343701D02*
Y344565D01*
Y347951D02*
Y351657D01*
Y353937D02*
Y354801D01*
Y358206D02*
Y360597D01*
X480500Y337152D02*
Y338151D01*
Y340982D02*
Y341903D01*
Y343701D02*
Y344565D01*
Y347851D02*
Y351729D01*
Y353937D02*
Y354801D01*
Y357901D02*
Y360284D01*
X480600Y337132D02*
Y338051D01*
Y341057D02*
Y341928D01*
Y343701D02*
Y344565D01*
Y347751D02*
Y349512D01*
Y350119D02*
Y351800D01*
Y353937D02*
Y354801D01*
Y357596D02*
Y359972D01*
X480700Y337112D02*
Y337951D01*
Y341132D02*
Y341953D01*
Y343701D02*
Y344565D01*
Y347666D02*
Y348992D01*
Y350639D02*
Y351871D01*
Y353937D02*
Y354801D01*
Y357291D02*
Y359659D01*
X480800Y337092D02*
Y337851D01*
Y341207D02*
Y341978D01*
Y343701D02*
Y344565D01*
Y347591D02*
Y348825D01*
Y350806D02*
Y351943D01*
Y353937D02*
Y354801D01*
Y357137D02*
Y359337D01*
X480900Y337072D02*
Y337808D01*
Y341243D02*
Y342003D01*
Y343701D02*
Y344565D01*
Y347516D02*
Y348659D01*
Y350972D02*
Y352014D01*
Y353937D02*
Y354801D01*
Y357137D02*
Y358987D01*
X481000Y337052D02*
Y337794D01*
Y341257D02*
Y342028D01*
Y343701D02*
Y344565D01*
Y347441D02*
Y348495D01*
Y351136D02*
Y352086D01*
Y353937D02*
Y354801D01*
Y357137D02*
Y358630D01*
X481100Y337036D02*
Y337780D01*
Y341272D02*
Y342053D01*
Y343701D02*
Y344565D01*
Y347389D02*
Y348395D01*
Y351212D02*
Y352137D01*
Y353937D02*
Y354801D01*
Y357137D02*
Y358239D01*
X481200Y337019D02*
Y337765D01*
Y341286D02*
Y342078D01*
Y343701D02*
Y344565D01*
Y347369D02*
Y348295D01*
Y351287D02*
Y352162D01*
Y353937D02*
Y354801D01*
Y357137D02*
Y358268D01*
X481300Y337002D02*
Y337751D01*
Y341300D02*
Y342098D01*
Y343701D02*
Y344565D01*
Y347349D02*
Y348195D01*
Y351362D02*
Y352187D01*
Y353937D02*
Y354801D01*
Y357137D02*
Y358468D01*
X481400Y336986D02*
Y337737D01*
Y341315D02*
Y342084D01*
Y343701D02*
Y344565D01*
Y347329D02*
Y348095D01*
Y351437D02*
Y352212D01*
Y353937D02*
Y354801D01*
Y357137D02*
Y358668D01*
X481500Y336969D02*
Y337723D01*
Y341329D02*
Y342069D01*
Y343701D02*
Y344565D01*
Y347309D02*
Y348046D01*
Y351478D02*
Y352237D01*
Y353937D02*
Y354801D01*
Y357137D02*
Y358964D01*
X481600Y336952D02*
Y337708D01*
Y341343D02*
Y342055D01*
Y343701D02*
Y344565D01*
Y347290D02*
Y348031D01*
Y351493D02*
Y352262D01*
Y353937D02*
Y354801D01*
Y357137D02*
Y359264D01*
X481700Y336963D02*
Y337726D01*
Y341319D02*
Y342041D01*
Y343701D02*
Y344565D01*
Y347273D02*
Y348017D01*
Y351507D02*
Y352287D01*
Y353937D02*
Y354801D01*
Y357137D02*
Y359579D01*
X481800Y336975D02*
Y337746D01*
Y341290D02*
Y342027D01*
Y343701D02*
Y344565D01*
Y347257D02*
Y348003D01*
Y351521D02*
Y352312D01*
Y353937D02*
Y354801D01*
Y357301D02*
Y359898D01*
X481900Y336988D02*
Y337766D01*
Y341262D02*
Y342012D01*
Y343701D02*
Y344565D01*
Y347240D02*
Y347988D01*
Y351535D02*
Y352335D01*
Y353937D02*
Y354801D01*
Y357622D02*
Y360217D01*
X482000Y337000D02*
Y337786D01*
Y341233D02*
Y341998D01*
Y343701D02*
Y344565D01*
Y347223D02*
Y347974D01*
Y351550D02*
Y352321D01*
Y353937D02*
Y354801D01*
Y357943D02*
Y360536D01*
X482100Y337013D02*
Y337806D01*
Y341205D02*
Y341940D01*
Y343701D02*
Y344565D01*
Y347207D02*
Y347960D01*
Y351564D02*
Y352307D01*
Y353937D02*
Y354801D01*
Y358264D02*
Y360854D01*
X482200Y337025D02*
Y337838D01*
Y341176D02*
Y341873D01*
Y343701D02*
Y344565D01*
Y347190D02*
Y347946D01*
Y351578D02*
Y352293D01*
Y353937D02*
Y354801D01*
Y358585D02*
Y361173D01*
X482300Y337038D02*
Y337888D01*
Y341147D02*
Y341807D01*
Y343701D02*
Y344565D01*
Y347198D02*
Y347960D01*
Y351557D02*
Y352278D01*
Y353937D02*
Y354801D01*
Y358906D02*
Y361492D01*
X482400Y337050D02*
Y337938D01*
Y341106D02*
Y341740D01*
Y343675D02*
Y344565D01*
Y347211D02*
Y347980D01*
Y351529D02*
Y352264D01*
Y353937D02*
Y354801D01*
Y359227D02*
Y361811D01*
X482500Y337086D02*
Y337988D01*
Y341006D02*
Y341673D01*
Y343061D02*
Y344565D01*
Y347223D02*
Y348000D01*
Y351500D02*
Y352250D01*
Y353937D02*
Y354801D01*
Y359548D02*
Y362129D01*
X482600Y337143D02*
Y338039D01*
Y340906D02*
Y341607D01*
Y342428D02*
Y344565D01*
Y347236D02*
Y348020D01*
Y351472D02*
Y352235D01*
Y353937D02*
Y354801D01*
Y359869D02*
Y362448D01*
X482700Y337201D02*
Y338226D01*
Y340806D02*
Y341570D01*
Y341795D02*
Y344565D01*
Y347248D02*
Y348040D01*
Y351443D02*
Y352182D01*
Y353937D02*
Y354801D01*
Y360190D02*
Y362767D01*
X482800Y337258D02*
Y338426D01*
Y340706D02*
Y344565D01*
Y347261D02*
Y348070D01*
Y351414D02*
Y352115D01*
Y353937D02*
Y354801D01*
Y360511D02*
Y363086D01*
X482900Y337315D02*
Y338695D01*
Y340606D02*
Y344565D01*
Y347273D02*
Y348120D01*
Y351386D02*
Y352048D01*
Y353937D02*
Y354801D01*
Y360832D02*
Y363404D01*
X483000Y337372D02*
Y338995D01*
Y340606D02*
Y344565D01*
Y347286D02*
Y348170D01*
Y351351D02*
Y351982D01*
Y353922D02*
Y354801D01*
Y361153D02*
Y363723D01*
X483100Y337429D02*
Y339089D01*
Y340617D02*
Y344379D01*
Y347318D02*
Y348220D01*
Y351251D02*
Y351915D01*
Y353348D02*
Y354801D01*
Y361474D02*
Y364042D01*
X483200Y337504D02*
Y339078D01*
Y340628D02*
Y343851D01*
Y347375D02*
Y348270D01*
Y351151D02*
Y351848D01*
Y352715D02*
Y354801D01*
Y361795D02*
Y364361D01*
X483300Y337644D02*
Y339067D01*
Y340639D02*
Y343322D01*
Y347432D02*
Y348447D01*
Y351051D02*
Y351803D01*
Y352081D02*
Y354801D01*
Y362116D02*
Y364679D01*
X483400Y337784D02*
Y339056D01*
Y340650D02*
Y342794D01*
Y347489D02*
Y348647D01*
Y350951D02*
Y354801D01*
Y362437D02*
Y364751D01*
X483500Y337924D02*
Y339045D01*
Y340661D02*
Y342265D01*
Y347547D02*
Y348907D01*
Y350851D02*
Y354801D01*
Y362759D02*
Y364751D01*
X483600Y338064D02*
Y339034D01*
Y340673D02*
Y341736D01*
Y347604D02*
Y349207D01*
Y350841D02*
Y354801D01*
Y363080D02*
Y364751D01*
X483700Y338204D02*
Y339023D01*
Y340684D02*
Y341208D01*
Y347661D02*
Y349326D01*
Y350852D02*
Y354658D01*
Y363401D02*
Y364751D01*
X483800Y338596D02*
Y339011D01*
Y347729D02*
Y349315D01*
Y350863D02*
Y354129D01*
Y363668D02*
Y364751D01*
X483900Y338996D02*
Y339000D01*
Y347869D02*
Y349304D01*
Y350875D02*
Y353601D01*
Y357137D02*
Y364751D01*
X484000Y348009D02*
Y349293D01*
Y350886D02*
Y353072D01*
Y357137D02*
Y364751D01*
X484100Y348149D02*
Y349282D01*
Y350897D02*
Y352543D01*
Y357137D02*
Y364751D01*
X484200Y348289D02*
Y349271D01*
Y350908D02*
Y352015D01*
Y357137D02*
Y364751D01*
X484300Y348429D02*
Y349260D01*
Y350919D02*
Y351486D01*
Y357137D02*
Y364751D01*
X484400Y348800D02*
Y349249D01*
Y350930D02*
Y350958D01*
Y357137D02*
Y364751D01*
X484500Y349200D02*
Y349237D01*
Y357137D02*
Y364751D01*
X484600Y357137D02*
Y364751D01*
X484700Y357137D02*
Y364751D01*
X484800Y357137D02*
Y364751D01*
X485500Y337058D02*
Y344672D01*
X485600Y337058D02*
Y344672D01*
X485700Y337058D02*
Y344672D01*
X485800Y337058D02*
Y344672D01*
Y357137D02*
Y357343D01*
X485900Y337058D02*
Y344672D01*
Y357137D02*
Y357591D01*
X486000Y337058D02*
Y344672D01*
Y357137D02*
Y357839D01*
X486100Y337058D02*
Y344672D01*
Y347294D02*
Y354908D01*
Y357137D02*
Y358088D01*
X486200Y337058D02*
Y344672D01*
Y347294D02*
Y354908D01*
Y357137D02*
Y358336D01*
X486300Y337058D02*
Y344672D01*
Y347294D02*
Y354908D01*
Y357137D02*
Y358584D01*
X486400Y337058D02*
Y338895D01*
Y347294D02*
Y354908D01*
Y357137D02*
Y358833D01*
X486500Y337058D02*
Y338956D01*
Y347294D02*
Y354908D01*
Y357137D02*
Y359081D01*
X486600Y337200D02*
Y339110D01*
Y347294D02*
Y354908D01*
Y357137D02*
Y359329D01*
X486700Y337355D02*
Y339265D01*
Y347294D02*
Y354908D01*
Y357137D02*
Y359577D01*
X486800Y337509D02*
Y339419D01*
Y347294D02*
Y354908D01*
Y357174D02*
Y359826D01*
X486900Y337663D02*
Y339573D01*
Y347294D02*
Y354908D01*
Y357449D02*
Y360074D01*
X487000Y337817D02*
Y339727D01*
Y347294D02*
Y349138D01*
Y357724D02*
Y360322D01*
X487100Y337972D02*
Y339882D01*
Y347294D02*
Y349180D01*
Y357999D02*
Y360571D01*
X487200Y338126D02*
Y340036D01*
Y347424D02*
Y349334D01*
Y358274D02*
Y360819D01*
X487300Y338280D02*
Y340190D01*
Y347578D02*
Y349488D01*
Y358549D02*
Y361067D01*
X487400Y338435D02*
Y340345D01*
Y347733D02*
Y349643D01*
Y358824D02*
Y361315D01*
X487500Y338589D02*
Y340499D01*
Y347887D02*
Y349797D01*
Y359099D02*
Y361564D01*
X487600Y338743D02*
Y340653D01*
Y348041D02*
Y349951D01*
Y359374D02*
Y361812D01*
X487700Y338897D02*
Y340807D01*
Y348196D02*
Y350106D01*
Y359494D02*
Y362060D01*
X487800Y339052D02*
Y340962D01*
Y348350D02*
Y350260D01*
Y359494D02*
Y362308D01*
X487900Y339206D02*
Y341116D01*
Y348504D02*
Y350414D01*
Y359494D02*
Y362557D01*
X488000Y339360D02*
Y341270D01*
Y348658D02*
Y350568D01*
Y359494D02*
Y360251D01*
Y360446D02*
Y362805D01*
X488100Y339515D02*
Y341425D01*
Y348813D02*
Y350723D01*
Y359494D02*
Y360251D01*
Y360717D02*
Y363053D01*
X488200Y339669D02*
Y341579D01*
Y348967D02*
Y350877D01*
Y359494D02*
Y360251D01*
Y360988D02*
Y363302D01*
X488300Y339823D02*
Y341733D01*
Y349121D02*
Y351031D01*
Y359494D02*
Y360251D01*
Y361260D02*
Y363550D01*
X488400Y339977D02*
Y341887D01*
Y349276D02*
Y351186D01*
Y359494D02*
Y360251D01*
Y361531D02*
Y363798D01*
X488500Y340132D02*
Y342042D01*
Y349430D02*
Y351340D01*
Y359494D02*
Y360251D01*
Y361803D02*
Y364046D01*
X488600Y340286D02*
Y342196D01*
Y349584D02*
Y351494D01*
Y359494D02*
Y360251D01*
Y362074D02*
Y364295D01*
X488700Y340440D02*
Y342350D01*
Y349738D02*
Y351648D01*
Y359494D02*
Y360251D01*
Y362346D02*
Y364543D01*
X488800Y340595D02*
Y342505D01*
Y349893D02*
Y351803D01*
Y359494D02*
Y360251D01*
Y362612D02*
Y364751D01*
X488900Y340749D02*
Y342659D01*
Y350047D02*
Y351957D01*
Y359494D02*
Y360251D01*
Y362879D02*
Y364751D01*
X489000Y340903D02*
Y342813D01*
Y350201D02*
Y352111D01*
Y359494D02*
Y360251D01*
Y363146D02*
Y364751D01*
X489100Y341057D02*
Y342967D01*
Y350356D02*
Y352266D01*
Y359494D02*
Y360251D01*
Y363476D02*
Y364751D01*
X489200Y341212D02*
Y343122D01*
Y350510D02*
Y352420D01*
Y359494D02*
Y360251D01*
Y363826D02*
Y364751D01*
X489300Y341366D02*
Y343276D01*
Y350664D02*
Y352574D01*
Y359494D02*
Y360251D01*
Y363992D02*
Y364751D01*
X489400Y341520D02*
Y343430D01*
Y350818D02*
Y352728D01*
Y359494D02*
Y360251D01*
Y363786D02*
Y364751D01*
X489500Y341675D02*
Y343585D01*
Y350973D02*
Y352883D01*
Y359494D02*
Y360251D01*
Y363526D02*
Y364751D01*
X489600Y341829D02*
Y343739D01*
Y351127D02*
Y353037D01*
Y359494D02*
Y360251D01*
Y363266D02*
Y364751D01*
X489700Y341983D02*
Y343893D01*
Y351281D02*
Y353191D01*
Y359494D02*
Y360251D01*
Y363006D02*
Y364751D01*
X489800Y342137D02*
Y344047D01*
Y351436D02*
Y353346D01*
Y359494D02*
Y360251D01*
Y362746D02*
Y364751D01*
X489900Y342292D02*
Y344202D01*
Y351590D02*
Y353500D01*
Y359494D02*
Y360251D01*
Y362485D02*
Y364738D01*
X490000Y342446D02*
Y344356D01*
Y351744D02*
Y353654D01*
Y359494D02*
Y360251D01*
Y362223D02*
Y364490D01*
X490100Y342600D02*
Y344510D01*
Y351898D02*
Y353808D01*
Y359494D02*
Y360251D01*
Y361960D02*
Y364241D01*
X490200Y342755D02*
Y344665D01*
Y352053D02*
Y353963D01*
Y359494D02*
Y360251D01*
Y361698D02*
Y363993D01*
X490300Y342841D02*
Y344672D01*
Y352207D02*
Y354117D01*
Y359494D02*
Y360251D01*
Y361435D02*
Y363745D01*
X490400Y337058D02*
Y344672D01*
Y352361D02*
Y354271D01*
Y359494D02*
Y360251D01*
Y361173D02*
Y363497D01*
X490500Y337058D02*
Y344672D01*
Y352516D02*
Y354426D01*
Y359494D02*
Y360251D01*
Y360910D02*
Y363248D01*
X490600Y337058D02*
Y344672D01*
Y352670D02*
Y354580D01*
Y359494D02*
Y360251D01*
Y360648D02*
Y363000D01*
X490700Y337058D02*
Y344672D01*
Y352824D02*
Y354734D01*
Y359494D02*
Y360256D01*
Y360385D02*
Y362752D01*
X490800Y337058D02*
Y344672D01*
Y352978D02*
Y354888D01*
Y359494D02*
Y362504D01*
X490900Y337058D02*
Y344672D01*
Y353079D02*
Y354908D01*
Y359494D02*
Y362255D01*
X491000Y337058D02*
Y344672D01*
Y347294D02*
Y354908D01*
Y359494D02*
Y362007D01*
X491100Y337058D02*
Y344672D01*
Y347294D02*
Y354908D01*
Y359315D02*
Y361759D01*
X491200Y337058D02*
Y344672D01*
Y347294D02*
Y354908D01*
Y359040D02*
Y361510D01*
X491300Y337058D02*
Y344672D01*
Y347294D02*
Y354908D01*
Y358765D02*
Y361262D01*
X491400Y347294D02*
Y354908D01*
Y358490D02*
Y361014D01*
X491500Y347294D02*
Y354908D01*
Y358215D02*
Y360766D01*
X491600Y347294D02*
Y354908D01*
Y357940D02*
Y360517D01*
X491700Y347294D02*
Y354908D01*
Y357665D02*
Y360269D01*
X491800Y347294D02*
Y354908D01*
Y357390D02*
Y360021D01*
X491900Y347294D02*
Y354908D01*
Y357137D02*
Y359772D01*
X492000Y357137D02*
Y359524D01*
X492100Y357137D02*
Y359276D01*
X492200Y357137D02*
Y359028D01*
X492300Y337058D02*
Y337089D01*
Y357137D02*
Y358779D01*
X492400Y337058D02*
Y337337D01*
Y357137D02*
Y358531D01*
X492500Y337058D02*
Y337586D01*
Y357137D02*
Y358283D01*
X492600Y337058D02*
Y337834D01*
Y357137D02*
Y358035D01*
X492700Y337058D02*
Y338082D01*
Y357137D02*
Y357786D01*
X492800Y337058D02*
Y338330D01*
Y357137D02*
Y357538D01*
X492900Y337058D02*
Y338579D01*
Y357137D02*
Y357290D01*
X493000Y337058D02*
Y338827D01*
Y357137D02*
Y357238D01*
X493100Y337058D02*
Y339075D01*
Y357137D02*
Y357370D01*
X493200Y337058D02*
Y339323D01*
Y357137D02*
Y357501D01*
Y364707D02*
Y364751D01*
X493300Y337058D02*
Y339572D01*
Y357137D02*
Y357632D01*
Y364607D02*
Y364751D01*
X493400Y337176D02*
Y339820D01*
Y357137D02*
Y357763D01*
Y364507D02*
Y364751D01*
X493500Y337451D02*
Y340068D01*
Y351969D02*
Y353467D01*
Y357137D02*
Y357895D01*
Y364407D02*
Y364751D01*
X493600Y337726D02*
Y340317D01*
Y351747D02*
Y353717D01*
Y357137D02*
Y358026D01*
Y364307D02*
Y364751D01*
X493700Y338001D02*
Y340565D01*
Y351607D02*
Y353868D01*
Y357137D02*
Y358157D01*
Y364207D02*
Y364751D01*
X493800Y338276D02*
Y340813D01*
Y351467D02*
Y354001D01*
Y357137D02*
Y358288D01*
Y364107D02*
Y364751D01*
X493900Y338551D02*
Y341061D01*
Y351327D02*
Y354135D01*
Y357137D02*
Y358420D01*
Y364007D02*
Y364751D01*
X494000Y338826D02*
Y341310D01*
Y351187D02*
Y354245D01*
Y357137D02*
Y358551D01*
Y363907D02*
Y364751D01*
X494100Y339101D02*
Y341558D01*
Y351072D02*
Y354345D01*
Y357159D02*
Y358682D01*
Y363807D02*
Y364751D01*
X494200Y339376D02*
Y341806D01*
Y350972D02*
Y354445D01*
Y357289D02*
Y358813D01*
Y363707D02*
Y364751D01*
X494300Y339415D02*
Y342054D01*
Y350872D02*
Y354506D01*
Y357418D02*
Y358945D01*
Y363607D02*
Y364751D01*
X494400Y339415D02*
Y342303D01*
Y350802D02*
Y352596D01*
Y353192D02*
Y354539D01*
Y357548D02*
Y359076D01*
Y363507D02*
Y364751D01*
X494500Y339415D02*
Y342551D01*
Y350762D02*
Y352135D01*
Y353392D02*
Y354572D01*
Y357678D02*
Y359207D01*
Y363407D02*
Y364751D01*
X494600Y339415D02*
Y340172D01*
Y340447D02*
Y342799D01*
Y350722D02*
Y351968D01*
Y353591D02*
Y354606D01*
Y357807D02*
Y359338D01*
Y363307D02*
Y364666D01*
X494700Y339415D02*
Y340172D01*
Y340718D02*
Y343048D01*
Y350682D02*
Y351802D01*
Y353693D02*
Y354639D01*
Y357937D02*
Y359470D01*
Y363207D02*
Y364566D01*
X494800Y339415D02*
Y340172D01*
Y340989D02*
Y343296D01*
Y350642D02*
Y351635D01*
Y353793D02*
Y354672D01*
Y358067D02*
Y359601D01*
Y363107D02*
Y364466D01*
X494900Y339415D02*
Y340172D01*
Y341261D02*
Y343544D01*
Y350608D02*
Y351566D01*
Y353893D02*
Y354706D01*
Y358196D02*
Y359732D01*
Y363007D02*
Y364366D01*
X495000Y339415D02*
Y340172D01*
Y341532D02*
Y343792D01*
Y350588D02*
Y351526D01*
Y353952D02*
Y354739D01*
Y358326D02*
Y359863D01*
Y362907D02*
Y364266D01*
X495100Y339415D02*
Y340172D01*
Y341804D02*
Y344041D01*
Y350568D02*
Y351486D01*
Y353985D02*
Y354772D01*
Y358456D02*
Y359995D01*
Y362807D02*
Y364166D01*
X495200Y339415D02*
Y340172D01*
Y342075D02*
Y344289D01*
Y350548D02*
Y351446D01*
Y354018D02*
Y354805D01*
Y358585D02*
Y360126D01*
Y362707D02*
Y364066D01*
X495300Y339415D02*
Y340172D01*
Y342345D02*
Y344537D01*
Y350528D02*
Y351406D01*
Y354052D02*
Y354830D01*
Y358715D02*
Y360257D01*
Y362607D02*
Y363966D01*
X495400Y339415D02*
Y340172D01*
Y342612D02*
Y344672D01*
Y350508D02*
Y351371D01*
Y354085D02*
Y354855D01*
Y358844D02*
Y360388D01*
Y362507D02*
Y363866D01*
X495500Y339415D02*
Y340172D01*
Y342879D02*
Y344672D01*
Y350508D02*
Y351357D01*
Y354118D02*
Y354880D01*
Y358974D02*
Y360520D01*
Y362407D02*
Y363766D01*
X495600Y339415D02*
Y340172D01*
Y343150D02*
Y344672D01*
Y350508D02*
Y351343D01*
Y354151D02*
Y354905D01*
Y359104D02*
Y360651D01*
Y362307D02*
Y363666D01*
X495700Y339415D02*
Y340172D01*
Y343500D02*
Y344672D01*
Y350508D02*
Y351328D01*
Y354151D02*
Y354908D01*
Y359233D02*
Y360782D01*
Y362207D02*
Y363566D01*
X495800Y339415D02*
Y340172D01*
Y343850D02*
Y344672D01*
Y350508D02*
Y351314D01*
Y354151D02*
Y354908D01*
Y359363D02*
Y360913D01*
Y362107D02*
Y363466D01*
X495900Y339415D02*
Y340172D01*
Y343889D02*
Y344672D01*
Y350508D02*
Y351300D01*
Y354151D02*
Y354908D01*
Y359493D02*
Y361045D01*
Y362007D02*
Y363366D01*
X496000Y339415D02*
Y340172D01*
Y343631D02*
Y344672D01*
Y350508D02*
Y351285D01*
Y354151D02*
Y354908D01*
Y359622D02*
Y361176D01*
Y361907D02*
Y363266D01*
X496100Y339415D02*
Y340172D01*
Y343371D02*
Y344672D01*
Y350508D02*
Y351271D01*
Y354151D02*
Y354908D01*
Y359752D02*
Y361307D01*
Y361807D02*
Y363166D01*
X496200Y339415D02*
Y340172D01*
Y343111D02*
Y344672D01*
Y350508D02*
Y351266D01*
Y354151D02*
Y354908D01*
Y359881D02*
Y361438D01*
Y361707D02*
Y363066D01*
X496300Y339415D02*
Y340172D01*
Y342851D02*
Y344672D01*
Y350508D02*
Y351266D01*
Y354151D02*
Y354908D01*
Y360011D02*
Y362966D01*
X496400Y339415D02*
Y340172D01*
Y342591D02*
Y344672D01*
Y350508D02*
Y351266D01*
Y354151D02*
Y354908D01*
Y360141D02*
Y362866D01*
X496500Y339415D02*
Y340172D01*
Y342329D02*
Y344586D01*
Y350508D02*
Y351266D01*
Y354151D02*
Y354908D01*
Y360270D02*
Y362766D01*
X496600Y339415D02*
Y340172D01*
Y342067D02*
Y344338D01*
Y350508D02*
Y351266D01*
Y354151D02*
Y354908D01*
Y360400D02*
Y362666D01*
X496700Y339415D02*
Y340172D01*
Y341804D02*
Y344090D01*
Y350508D02*
Y351266D01*
Y354151D02*
Y354908D01*
Y360530D02*
Y362566D01*
X496800Y339415D02*
Y340172D01*
Y341542D02*
Y343841D01*
Y350508D02*
Y351266D01*
Y354151D02*
Y354908D01*
Y360659D02*
Y362466D01*
X496900Y339415D02*
Y340172D01*
Y341279D02*
Y343593D01*
Y350508D02*
Y351266D01*
Y354151D02*
Y354908D01*
Y360789D02*
Y362366D01*
X497000Y339415D02*
Y340172D01*
Y341017D02*
Y343345D01*
Y350508D02*
Y351266D01*
Y354151D02*
Y354908D01*
Y360887D02*
Y362266D01*
X497100Y339415D02*
Y340172D01*
Y340754D02*
Y343097D01*
Y350508D02*
Y351266D01*
Y354151D02*
Y354908D01*
Y360807D02*
Y362166D01*
X497200Y339415D02*
Y340172D01*
Y340492D02*
Y342848D01*
Y350508D02*
Y351266D01*
Y354151D02*
Y354908D01*
Y360707D02*
Y362066D01*
X497300Y339415D02*
Y342600D01*
Y350508D02*
Y351266D01*
Y354151D02*
Y354908D01*
Y360607D02*
Y361966D01*
X497400Y339415D02*
Y342352D01*
Y350508D02*
Y351266D01*
Y354151D02*
Y354908D01*
Y360507D02*
Y361866D01*
X497500Y339415D02*
Y342103D01*
Y350508D02*
Y351266D01*
Y354151D02*
Y354908D01*
Y360407D02*
Y361766D01*
X497600Y339405D02*
Y341855D01*
Y350508D02*
Y351266D01*
Y354151D02*
Y354908D01*
Y360307D02*
Y361666D01*
X497700Y339155D02*
Y341607D01*
Y350508D02*
Y351266D01*
Y354151D02*
Y354908D01*
Y360207D02*
Y361566D01*
X497800Y338880D02*
Y341359D01*
Y350508D02*
Y351266D01*
Y354151D02*
Y354908D01*
Y360107D02*
Y361466D01*
X497900Y338605D02*
Y341110D01*
Y350508D02*
Y351266D01*
Y354151D02*
Y354908D01*
Y360007D02*
Y361366D01*
X498000Y338330D02*
Y340862D01*
Y350508D02*
Y351266D01*
Y354151D02*
Y354908D01*
Y359907D02*
Y361266D01*
X498100Y338055D02*
Y340614D01*
Y350499D02*
Y351274D01*
Y354142D02*
Y354908D01*
Y359807D02*
Y361224D01*
X498200Y337780D02*
Y340366D01*
Y347294D02*
Y354908D01*
Y357137D02*
Y364751D01*
X498300Y337505D02*
Y340117D01*
Y347294D02*
Y354908D01*
Y357137D02*
Y364751D01*
X498400Y337230D02*
Y339869D01*
Y347294D02*
Y354908D01*
Y357137D02*
Y364751D01*
X498500Y337058D02*
Y339621D01*
Y347294D02*
Y354908D01*
Y357137D02*
Y364751D01*
X498600Y337058D02*
Y339372D01*
Y347294D02*
Y354908D01*
Y357137D02*
Y364751D01*
X498700Y337058D02*
Y339124D01*
Y347294D02*
Y354908D01*
Y357137D02*
Y364751D01*
X498800Y337058D02*
Y338876D01*
Y347294D02*
Y354908D01*
Y357137D02*
Y364751D01*
X498900Y337058D02*
Y338628D01*
Y347294D02*
Y354908D01*
Y357137D02*
Y364751D01*
X499000Y337058D02*
Y338379D01*
Y347294D02*
Y354908D01*
Y357137D02*
Y364751D01*
X499100Y337058D02*
Y338131D01*
X499200Y337058D02*
Y337883D01*
X499300Y337058D02*
Y337635D01*
X499400Y337058D02*
Y337386D01*
X499500Y337058D02*
Y337138D01*
X508200Y456946D02*
Y457560D01*
X508300Y456946D02*
Y457560D01*
X508400Y456946D02*
Y457560D01*
X508500Y456946D02*
Y457560D01*
X508600Y456946D02*
Y457560D01*
X508700Y456946D02*
Y457560D01*
X508800Y456946D02*
Y457560D01*
X508900Y456946D02*
Y457560D01*
X509000Y456946D02*
Y457560D01*
X509100Y456946D02*
Y457560D01*
X509200Y456946D02*
Y457560D01*
X509300Y456946D02*
Y457560D01*
X509400Y456946D02*
Y457560D01*
X509500Y456946D02*
Y457560D01*
X509600Y456946D02*
Y457560D01*
X509700Y456946D02*
Y457560D01*
X509800Y456946D02*
Y457560D01*
X509900Y456946D02*
Y457560D01*
X510000Y455160D02*
Y459346D01*
X510100Y455160D02*
Y459346D01*
X510200Y455160D02*
Y459346D01*
X510300Y455160D02*
Y459346D01*
X510400Y455160D02*
Y459346D01*
X510500Y455160D02*
Y459346D01*
X510600Y456943D02*
Y457564D01*
X510700Y456946D02*
Y457560D01*
X510800Y456946D02*
Y457560D01*
X510900Y456946D02*
Y457560D01*
X511000Y456946D02*
Y457560D01*
X511100Y456946D02*
Y457560D01*
X511200Y456946D02*
Y457560D01*
X511300Y456946D02*
Y457560D01*
X511400Y456946D02*
Y457560D01*
X511500Y456946D02*
Y457560D01*
X511600Y456946D02*
Y457560D01*
X511700Y456946D02*
Y457560D01*
X511800Y456946D02*
Y457560D01*
X511900Y456946D02*
Y457560D01*
X512000Y456946D02*
Y457560D01*
X512100Y456946D02*
Y457560D01*
X512200Y456946D02*
Y457560D01*
X512300Y456946D02*
Y457560D01*
X530600Y481022D02*
Y481637D01*
X530700Y481022D02*
Y481637D01*
X530800Y481022D02*
Y481637D01*
X530900Y481022D02*
Y481637D01*
X531000Y481022D02*
Y481637D01*
X531100Y481022D02*
Y481637D01*
X531200Y481022D02*
Y481637D01*
X531300Y481022D02*
Y481637D01*
X531400Y481022D02*
Y481637D01*
X531500Y481022D02*
Y481637D01*
X531600Y481022D02*
Y481637D01*
X531700Y481022D02*
Y481637D01*
X531800Y481022D02*
Y481637D01*
X531900Y481022D02*
Y481637D01*
X532000Y481022D02*
Y481637D01*
X532100Y481022D02*
Y481637D01*
X532200Y481022D02*
Y481637D01*
X532300Y481022D02*
Y481637D01*
X532400Y479237D02*
Y483422D01*
X532500Y479237D02*
Y483422D01*
X532600Y479237D02*
Y483422D01*
X532700Y479237D02*
Y483422D01*
X532800Y479237D02*
Y483422D01*
X532900Y479237D02*
Y483422D01*
X533000Y481021D02*
Y481638D01*
X533100Y481022D02*
Y481637D01*
X533200Y481022D02*
Y481637D01*
X533300Y481022D02*
Y481637D01*
X533400Y481022D02*
Y481637D01*
X533500Y481022D02*
Y481637D01*
X533600Y481022D02*
Y481637D01*
X533700Y481022D02*
Y481637D01*
X533800Y481022D02*
Y481637D01*
X533900Y481022D02*
Y481637D01*
X534000Y481022D02*
Y481637D01*
X534100Y481022D02*
Y481637D01*
X534200Y481022D02*
Y481637D01*
X534300Y481022D02*
Y481637D01*
X534400Y481022D02*
Y481637D01*
X534500Y481022D02*
Y481637D01*
X534600Y481022D02*
Y481637D01*
X534700Y481022D02*
Y481637D01*
*
G04 PC Custom Flashes*
G04 Layer Name L9.pcb - flashes*
%LPD*%
*
*
G04 PC Circuitry*
G04 Layer Name L9.pcb - circuitry*
%LPD*%
*
G54D10*
X300000Y548031D02*
X300003D01*
X654331D02*
X654333D01*
X300000Y300000D02*
X300003D01*
X300000Y548031D02*
X300003D01*
G54D11*
X432028Y361437D02*
X429272Y358681D01*
X420898Y369929D02*
Y366929D01*
Y363929*
Y366929D02*
X416898Y369929D01*
Y363929*
X420898Y366929*
X429921Y372835D02*
X407874D01*
Y361024*
X429921*
Y372835*
X426772Y348819D02*
X413386D01*
Y341732*
X426772*
Y348819*
X434646Y468898D02*
X421260D01*
Y461811*
X434646*
Y468898*
X432028Y485453D02*
X429272Y482697D01*
X420898Y493945D02*
Y490945D01*
Y487945*
Y490945D02*
X416898Y493945D01*
Y487945*
X420898Y490945*
X429921Y496850D02*
X407874D01*
Y485039*
X429921*
Y496850*
X406161Y484626D02*
X408917Y487382D01*
X417291Y476134D02*
Y479134D01*
Y482134*
Y479134D02*
X421291Y476134D01*
Y482134*
X417291Y479134*
X408268Y473228D02*
X430315D01*
Y485039*
X408268*
Y473228*
X501575Y477559D02*
X496457D01*
Y464567*
X500000Y461024*
X507874Y477559D02*
X512992D01*
Y464567*
X509449Y461024*
Y469291D02*
G75*
G03X509449I-4725J0D01*
G01X493701Y458661D02*
Y479921D01*
X484252*
Y458661*
X493701*
X492520Y466535D02*
X485433D01*
X492520Y472047D02*
X485433D01*
X488976Y467323*
X492520Y472047*
X607150Y387551D02*
Y385051D01*
X603150*
X607150Y393551D02*
Y396051D01*
X603150*
X598150Y390051D02*
Y391051D01*
X602756Y368110D02*
Y381496D01*
X595669*
Y368110*
X602756*
X580965Y449606D02*
G03X583465I1250J0D01*
G01X585965D02*
G03X583465I-1250J0D01*
G01X573228Y444882D02*
X593701D01*
Y454331*
X573228*
Y444882*
X541339Y461024D02*
X546457D01*
Y474016*
X542913Y477559*
X535039Y461024D02*
X529921D01*
Y474016*
X533465Y477559*
X542913Y469291D02*
G03X542913I-4724J0D01*
G01X515748Y479921D02*
Y458661D01*
X525197*
Y479921*
X515748*
X516929Y472047D02*
X524016D01*
X516929Y466535D02*
X524016D01*
X520472Y471260*
X516929Y466535*
X420366Y359031D02*
Y354437D01*
X418184*
X416548Y358156D02*
X416184Y358375D01*
X415639Y359031*
Y354437*
X437295Y348401D02*
Y343807D01*
Y348401D02*
X435659D01*
X435113Y348182*
X434932Y347963*
X434750Y347526*
Y347088*
X434932Y346651*
X435113Y346432*
X435659Y346213*
X437295*
X436023D02*
X434750Y343807D01*
X432932Y347307D02*
Y347526D01*
X432750Y347963*
X432568Y348182*
X432204Y348401*
X431477*
X431113Y348182*
X430932Y347963*
X430750Y347526*
Y347088*
X430932Y346651*
X431295Y345995*
X433113Y343807*
X430568*
X443201Y468480D02*
Y463886D01*
Y468480D02*
X441564D01*
X441019Y468261*
X440837Y468042*
X440655Y467605*
Y467167*
X440837Y466730*
X441019Y466511*
X441564Y466292*
X443201*
X441928D02*
X440655Y463886D01*
X438655Y468480D02*
X436655D01*
X437746Y466730*
X437201*
X436837Y466511*
X436655Y466292*
X436474Y465636*
Y465198*
X436655Y464542*
X437019Y464105*
X437564Y463886*
X438110*
X438655Y464105*
X438837Y464323*
X439019Y464761*
X421547Y504306D02*
Y499713D01*
X419365*
X417365Y504306D02*
X415365D01*
X416456Y502556*
X415911*
X415547Y502338*
X415365Y502119*
X415184Y501463*
Y501025*
X415365Y500369*
X415729Y499931*
X416275Y499713*
X416820*
X417365Y499931*
X417547Y500150*
X417729Y500588*
X416035Y471235D02*
Y466642D01*
X413854*
X410399Y471235D02*
X412217Y468173D01*
X409490*
X410399Y471235D02*
Y466642D01*
X504253Y489039D02*
X504435Y489477D01*
X504798Y489914*
X505162Y490133*
X505889*
X506253Y489914*
X506617Y489477*
X506798Y489039*
X506980Y488383*
Y487289*
X506798Y486633*
X506617Y486196*
X506253Y485758*
X505889Y485539*
X505162*
X504798Y485758*
X504435Y486196*
X504253Y486633*
X502435Y489039D02*
Y489258D01*
X502253Y489696*
X502071Y489914*
X501708Y490133*
X500980*
X500617Y489914*
X500435Y489696*
X500253Y489258*
Y488821*
X500435Y488383*
X500798Y487727*
X502617Y485539*
X500071*
X491232Y487771D02*
Y483177D01*
Y487771D02*
X489960D01*
X489414Y487552*
X489050Y487115*
X488869Y486677*
X488687Y486021*
Y484927*
X488869Y484271*
X489050Y483833*
X489414Y483396*
X489960Y483177*
X491232*
X487050Y486896D02*
X486687Y487115D01*
X486141Y487771*
Y483177*
X603527Y403913D02*
X603891Y403694D01*
X604254Y403256*
X604436Y402819*
X604618Y402163*
Y401069*
X604436Y400413*
X604254Y399975*
X603891Y399538*
X603527Y399319*
X602800*
X602436Y399538*
X602073Y399975*
X601891Y400413*
X601709Y401069*
Y402163*
X601891Y402819*
X602073Y403256*
X602436Y403694*
X602800Y403913*
X603527*
X602982Y400194D02*
X601891Y398881D01*
X600073Y403038D02*
X599709Y403256D01*
X599164Y403913*
Y399319*
X608949Y377535D02*
Y372941D01*
Y377535D02*
X607312D01*
X606767Y377316*
X606585Y377097*
X606403Y376660*
Y376222*
X606585Y375785*
X606767Y375566*
X607312Y375347*
X608949*
X607676D02*
X606403Y372941D01*
X604767Y376660D02*
X604403Y376878D01*
X603858Y377535*
Y372941*
X585720Y442495D02*
Y437902D01*
Y442495D02*
X583357D01*
X585720Y440308D02*
X584266D01*
X581720Y441620D02*
X581357Y441839D01*
X580811Y442495*
Y437902*
X552272Y468854D02*
X552454Y469292D01*
X552817Y469729*
X553181Y469948*
X553908*
X554272Y469729*
X554636Y469292*
X554817Y468854*
X554999Y468198*
Y467104*
X554817Y466448*
X554636Y466010*
X554272Y465573*
X553908Y465354*
X553181*
X552817Y465573*
X552454Y466010*
X552272Y466448*
X550272Y469948D02*
X548272D01*
X549363Y468198*
X548817*
X548454Y467979*
X548272Y467760*
X548090Y467104*
Y466667*
X548272Y466010*
X548636Y465573*
X549181Y465354*
X549727*
X550272Y465573*
X550454Y465792*
X550636Y466229*
X530893Y456956D02*
Y452362D01*
Y456956D02*
X529620D01*
X529074Y456737*
X528711Y456299*
X528529Y455862*
X528347Y455206*
Y454112*
X528529Y453456*
X528711Y453018*
X529074Y452581*
X529620Y452362*
X530893*
X526529Y455862D02*
Y456081D01*
X526347Y456518*
X526165Y456737*
X525802Y456956*
X525074*
X524711Y456737*
X524529Y456518*
X524347Y456081*
Y455643*
X524529Y455206*
X524893Y454549*
X526711Y452362*
X524165*
X434933Y369267D02*
Y364673D01*
X432388Y369267D02*
X434933Y366204D01*
X434024Y367298D02*
X432388Y364673D01*
X434539Y497220D02*
Y492626D01*
X431994Y497220D02*
X434539Y494157D01*
X433630Y495251D02*
X431994Y492626D01*
X405406Y478322D02*
Y473728D01*
X402860Y478322D02*
X405406Y475260D01*
X404496Y476353D02*
X402860Y473728D01*
X489657Y456275D02*
Y451681D01*
X487112Y456275D02*
X489657Y453212D01*
X488748Y454306D02*
X487112Y451681D01*
X516035Y486196D02*
Y481602D01*
X513490Y486196D02*
X516035Y483134D01*
X515126Y484227D02*
X513490Y481602D01*
X300000Y555906D02*
X316685D01*
X300000D02*
X310000Y558406D01*
Y553406*
X300000Y555906*
X654331D02*
X364049D01*
X654331D02*
X644331Y553406D01*
Y558406*
X654331Y555906*
X300000Y553031D02*
Y560906D01*
X654331Y553031D02*
Y560906D01*
X322640Y558312D02*
X322412Y557375D01*
X321958Y556750*
X321276Y556437*
X321049*
X320367Y556750*
X319912Y557375*
X319685Y558312*
Y558625*
X319912Y559562*
X320367Y560187*
X321049Y560500*
X321276*
X321958Y560187*
X322412Y559562*
X322640Y558312*
Y556750*
X322412Y555187*
X321958Y554250*
X321276Y553937*
X320821*
X320140Y554250*
X319912Y554875*
X326049Y560500D02*
X325367Y560187D01*
X324912Y559250*
X324685Y557687*
Y556750*
X324912Y555187*
X325367Y554250*
X326049Y553937*
X326503*
X327185Y554250*
X327640Y555187*
X327867Y556750*
Y557687*
X327640Y559250*
X327185Y560187*
X326503Y560500*
X326049*
X330140Y554562D02*
X329912Y554250D01*
X330140Y553937*
X330367Y554250*
X330140Y554562*
X333776Y560500D02*
X333094Y560187D01*
X332640Y559250*
X332412Y557687*
Y556750*
X332640Y555187*
X333094Y554250*
X333776Y553937*
X334230*
X334912Y554250*
X335367Y555187*
X335594Y556750*
Y557687*
X335367Y559250*
X334912Y560187*
X334230Y560500*
X333776*
X339003D02*
X338321Y560187D01*
X337867Y559250*
X337640Y557687*
Y556750*
X337867Y555187*
X338321Y554250*
X339003Y553937*
X339458*
X340140Y554250*
X340594Y555187*
X340821Y556750*
Y557687*
X340594Y559250*
X340140Y560187*
X339458Y560500*
X339003*
X344230D02*
X343549Y560187D01*
X343094Y559250*
X342867Y557687*
Y556750*
X343094Y555187*
X343549Y554250*
X344230Y553937*
X344685*
X345367Y554250*
X345821Y555187*
X346049Y556750*
Y557687*
X345821Y559250*
X345367Y560187*
X344685Y560500*
X344230*
X348094Y558312D02*
Y553937D01*
Y557062D02*
X348776Y558000D01*
X349230Y558312*
X349912*
X350367Y558000*
X350594Y557062*
Y553937*
Y557062D02*
X351276Y558000D01*
X351730Y558312*
X352412*
X352867Y558000*
X353094Y557062*
Y553937*
X355140Y558312D02*
Y553937D01*
Y557062D02*
X355821Y558000D01*
X356276Y558312*
X356958*
X357412Y558000*
X357640Y557062*
Y553937*
Y557062D02*
X358321Y558000D01*
X358776Y558312*
X359458*
X359912Y558000*
X360140Y557062*
Y553937*
X292126Y300000D02*
Y484008D01*
Y300000D02*
X289626Y310000D01*
X294626*
X292126Y300000*
Y548031D02*
Y531372D01*
Y548031D02*
X294626Y538031D01*
X289626*
X292126Y548031*
X295000Y300000D02*
X287126D01*
X295000Y548031D02*
X287126D01*
X288469Y489735D02*
X287844Y489508D01*
X287532Y488826*
Y488372*
X287844Y487690*
X288782Y487235*
X290344Y487008*
X291907*
X293157Y487235*
X293782Y487690*
X294094Y488372*
Y488599*
X293782Y489281*
X293157Y489735*
X292219Y489962*
X291907*
X290969Y489735*
X290344Y489281*
X290032Y488599*
Y488372*
X290344Y487690*
X290969Y487235*
X291907Y487008*
X287532Y492462D02*
Y494962D01*
X290032Y493599*
Y494281*
X290344Y494735*
X290657Y494962*
X291594Y495190*
X292219*
X293157Y494962*
X293782Y494508*
X294094Y493826*
Y493144*
X293782Y492462*
X293469Y492235*
X292844Y492008*
X293469Y497462D02*
X293782Y497235D01*
X294094Y497462*
X293782Y497690*
X293469Y497462*
X287532Y501099D02*
X287844Y500417D01*
X288782Y499962*
X290344Y499735*
X291282*
X292844Y499962*
X293782Y500417*
X294094Y501099*
Y501553*
X293782Y502235*
X292844Y502690*
X291282Y502917*
X290344*
X288782Y502690*
X287844Y502235*
X287532Y501553*
Y501099*
Y506326D02*
X287844Y505644D01*
X288782Y505190*
X290344Y504962*
X291282*
X292844Y505190*
X293782Y505644*
X294094Y506326*
Y506781*
X293782Y507462*
X292844Y507917*
X291282Y508144*
X290344*
X288782Y507917*
X287844Y507462*
X287532Y506781*
Y506326*
Y511553D02*
X287844Y510872D01*
X288782Y510417*
X290344Y510190*
X291282*
X292844Y510417*
X293782Y510872*
X294094Y511553*
Y512008*
X293782Y512690*
X292844Y513144*
X291282Y513372*
X290344*
X288782Y513144*
X287844Y512690*
X287532Y512008*
Y511553*
X289719Y515417D02*
X294094D01*
X290969D02*
X290032Y516099D01*
X289719Y516553*
Y517235*
X290032Y517690*
X290969Y517917*
X294094*
X290969D02*
X290032Y518599D01*
X289719Y519053*
Y519735*
X290032Y520190*
X290969Y520417*
X294094*
X289719Y522462D02*
X294094D01*
X290969D02*
X290032Y523144D01*
X289719Y523599*
Y524281*
X290032Y524735*
X290969Y524962*
X294094*
X290969D02*
X290032Y525644D01*
X289719Y526099*
Y526781*
X290032Y527235*
X290969Y527462*
X294094*
G54D55*
X300000Y300000D02*
X654331D01*
Y548031*
X300000*
Y300000*
X290157Y548031D02*
X309843D01*
X300000Y557874D02*
Y538189D01*
X290157Y300000D02*
X309843D01*
X300000Y309843D02*
Y290157D01*
X644488Y300000D02*
X664173D01*
X654331Y309843D02*
Y290157D01*
X644488Y548031D02*
X664173D01*
X654331Y557874D02*
Y538189D01*
G74*
X0Y0D02*
M02*
