*
*
G04 PADS VX.2.2 Build Number: 7607494 generated Gerber (RS-274-X) file*
G04 PC Version=2.1*
*
%IN "TEMP 41-L26.pcb"*%
*
%MOIN*%
*
%FSLAX35Y35*%
*
*
*
*
G04 PC Standard Apertures*
*
*
G04 Thermal Relief Aperture macro.*
%AMTER*
1,1,$1,0,0*
1,0,$1-$2,0,0*
21,0,$3,$4,0,0,45*
21,0,$3,$4,0,0,135*
%
*
*
G04 Annular Aperture macro.*
%AMANN*
1,1,$1,0,0*
1,0,$2,0,0*
%
*
*
G04 Odd Aperture macro.*
%AMODD*
1,1,$1,0,0*
1,0,$1-0.005,0,0*
%
*
*
G04 PC Custom Aperture Macros*
*
*
*
*
*
*
G04 PC Aperture Table*
*
%ADD010C,0.001*%
%ADD011C,0.01*%
%ADD014C,0.09*%
%ADD026R,0.09X0.09*%
%ADD043C,0.05*%
%ADD106R,0.09X0.07*%
%ADD107O,0.09X0.07*%
%ADD114C,0.01181*%
%ADD166R,0.04937X0.05331*%
%ADD169C,0.07*%
%ADD173R,0.04937X0.05331*%
%ADD175C,0.1478*%
%ADD176R,0.095X0.03402*%
%ADD179R,0.05331X0.04937*%
%ADD180R,0.04543X0.05724*%
%ADD181R,0.05331X0.04937*%
%ADD182R,0.05331X0.04937*%
%ADD183R,0.06512X0.08087*%
%ADD185O,0.11236X0.08874*%
%ADD188R,0.07X0.09*%
%ADD189O,0.07X0.09*%
%ADD191R,0.05724X0.04543*%
%ADD195C,0.038*%
%ADD214R,0.06906X0.05724*%
%ADD232R,0.05724X0.06906*%
%ADD234R,0.04937X0.05331*%
%ADD258R,0.19898X0.24228*%
%ADD274R,0.09661X0.02575*%
%ADD277C,0.16748*%
*
*
*
*
G04 PC Circuitry*
G04 Layer Name TEMP 41-L26.pcb - circuitry*
%LPD*%
*
*
G04 PC Custom Flashes*
G04 Layer Name TEMP 41-L26.pcb - flashes*
%LPD*%
*
*
G04 PC Circuitry*
G04 Layer Name TEMP 41-L26.pcb - circuitry*
%LPD*%
*
G54D10*
G01X300000Y693701D02*
X300003D01*
X929921D02*
X929924D01*
X300000Y300000D02*
X300003D01*
X300000Y693701D02*
X300003D01*
G54D11*
X354618Y307874D02*
G75*
G03X354618I-3437J0D01*
G01X817217Y685827D02*
G03X817217I-3437J0D01*
G01X882177Y307874D02*
G03X882177I-3437J0D01*
G01X352650Y685827D02*
G03X352650I-3437J0D01*
G01X354618Y307874D02*
G03X354618I-3437J0D01*
G01X817217Y685827D02*
G03X817217I-3437J0D01*
G01X882177Y307874D02*
G03X882177I-3437J0D01*
G01X352650Y685827D02*
G03X352650I-3437J0D01*
G01X347748Y308036D02*
X354614D01*
X347824Y307136D02*
X354538D01*
X347912Y308936D02*
X354450D01*
X348160Y306236D02*
X354203D01*
X348359Y309836D02*
X354003D01*
X348864Y305336D02*
X353498D01*
X349277Y310736D02*
X353085D01*
X810346Y685988D02*
X817213D01*
X810423Y685088D02*
X817136D01*
X810511Y686888D02*
X817048D01*
X810758Y684188D02*
X816801D01*
X810957Y687788D02*
X816602D01*
X811462Y683288D02*
X816097D01*
X811876Y688688D02*
X815683D01*
X875307Y308036D02*
X882173D01*
X875383Y307136D02*
X882097D01*
X875471Y308936D02*
X882009D01*
X875719Y306236D02*
X881762D01*
X875918Y309836D02*
X881562D01*
X876423Y305336D02*
X881057D01*
X876837Y310736D02*
X880644D01*
X345779Y685988D02*
X352646D01*
X345856Y685088D02*
X352569D01*
X345944Y686888D02*
X352482D01*
X346191Y684188D02*
X352234D01*
X346390Y687788D02*
X352035D01*
X346895Y683288D02*
X351530D01*
X347309Y688688D02*
X351116D01*
X300000Y300000D02*
Y693701D01*
X862992*
Y555906*
X929921*
Y420079*
X886614*
Y361024*
X929921*
Y300000*
X300000*
X290157Y693701D02*
X309843D01*
X300000Y683858D02*
Y703543D01*
X290157Y300000D02*
X309843D01*
X300000Y290157D02*
Y309843D01*
X920079Y300000D02*
X939764D01*
X929921Y290157D02*
Y309843D01*
X920079Y693701D02*
X939764D01*
X929921Y683858D02*
Y703543D01*
X300000D02*
X316685D01*
X300000D02*
X310000Y706043D01*
Y701043*
X300000Y703543*
X929921D02*
X356776D01*
X929921D02*
X919921Y701043D01*
Y706043*
X929921Y703543*
X300000Y698701D02*
Y708543D01*
X929921Y698701D02*
Y708543D01*
X319685Y706887D02*
X320140Y707200D01*
X320821Y708137*
Y701575*
X325594Y707200D02*
X325367Y707825D01*
X324685Y708137*
X324230*
X323549Y707825*
X323094Y706887*
X322867Y705325*
Y703762*
X323094Y702512*
X323549Y701887*
X324230Y701575*
X324458*
X325140Y701887*
X325594Y702512*
X325821Y703450*
Y703762*
X325594Y704700*
X325140Y705325*
X324458Y705637*
X324230*
X323549Y705325*
X323094Y704700*
X322867Y703762*
X329230Y708137D02*
X328549Y707825D01*
X328094Y706887*
X327867Y705325*
Y704387*
X328094Y702825*
X328549Y701887*
X329230Y701575*
X329685*
X330367Y701887*
X330821Y702825*
X331049Y704387*
Y705325*
X330821Y706887*
X330367Y707825*
X329685Y708137*
X329230*
X333321Y702200D02*
X333094Y701887D01*
X333321Y701575*
X333549Y701887*
X333321Y702200*
X336958Y708137D02*
X336276Y707825D01*
X335821Y706887*
X335594Y705325*
Y704387*
X335821Y702825*
X336276Y701887*
X336958Y701575*
X337412*
X338094Y701887*
X338549Y702825*
X338776Y704387*
Y705325*
X338549Y706887*
X338094Y707825*
X337412Y708137*
X336958*
X340821Y705950D02*
Y701575D01*
Y704700D02*
X341503Y705637D01*
X341958Y705950*
X342640*
X343094Y705637*
X343321Y704700*
Y701575*
Y704700D02*
X344003Y705637D01*
X344458Y705950*
X345140*
X345594Y705637*
X345821Y704700*
Y701575*
X347867Y705950D02*
Y701575D01*
Y704700D02*
X348549Y705637D01*
X349003Y705950*
X349685*
X350140Y705637*
X350367Y704700*
Y701575*
Y704700D02*
X351049Y705637D01*
X351503Y705950*
X352185*
X352640Y705637*
X352867Y704700*
Y701575*
X280315Y300000D02*
Y637551D01*
Y300000D02*
X277815Y310000D01*
X282815*
X280315Y300000*
Y693701D02*
Y677869D01*
Y693701D02*
X282815Y683701D01*
X277815*
X280315Y693701*
X295000Y300000D02*
X275315D01*
X295000Y693701D02*
X275315D01*
X276971Y640551D02*
X276658Y641006D01*
X275721Y641688*
X282283*
X275721Y645097D02*
X276033Y644415D01*
X276971Y643960*
X278533Y643733*
X279471*
X281033Y643960*
X281971Y644415*
X282283Y645097*
Y645551*
X281971Y646233*
X281033Y646688*
X279471Y646915*
X278533*
X276971Y646688*
X276033Y646233*
X275721Y645551*
Y645097*
Y650324D02*
X276033Y649642D01*
X276971Y649188*
X278533Y648960*
X279471*
X281033Y649188*
X281971Y649642*
X282283Y650324*
Y650778*
X281971Y651460*
X281033Y651915*
X279471Y652142*
X278533*
X276971Y651915*
X276033Y651460*
X275721Y650778*
Y650324*
X281658Y654415D02*
X281971Y654188D01*
X282283Y654415*
X281971Y654642*
X281658Y654415*
X275721Y658051D02*
X276033Y657369D01*
X276971Y656915*
X278533Y656688*
X279471*
X281033Y656915*
X281971Y657369*
X282283Y658051*
Y658506*
X281971Y659188*
X281033Y659642*
X279471Y659869*
X278533*
X276971Y659642*
X276033Y659188*
X275721Y658506*
Y658051*
X277908Y661915D02*
X282283D01*
X279158D02*
X278221Y662597D01*
X277908Y663051*
Y663733*
X278221Y664188*
X279158Y664415*
X282283*
X279158D02*
X278221Y665097D01*
X277908Y665551*
Y666233*
X278221Y666688*
X279158Y666915*
X282283*
X277908Y668960D02*
X282283D01*
X279158D02*
X278221Y669642D01*
X277908Y670097*
Y670778*
X278221Y671233*
X279158Y671460*
X282283*
X279158D02*
X278221Y672142D01*
X277908Y672597*
Y673278*
X278221Y673733*
X279158Y673960*
X282283*
G54D14*
X501181Y639567D03*
X504331Y669094D03*
X654331Y542469D03*
Y561469D03*
X522441Y632677D03*
X701575Y321260D03*
Y331496D03*
Y341732D03*
X508819Y349213D03*
X518819D03*
X560000Y591339D03*
X570000D03*
X597402Y601181D03*
X607402D03*
X597087Y620866D03*
X587087D03*
X514724Y591339D03*
X524724D03*
G54D26*
X522441Y674016D03*
X498819Y349213D03*
X550000Y591339D03*
X587402Y601181D03*
X607087Y620866D03*
X504724Y591339D03*
G54D43*
X351181Y307874D03*
X813780Y685827D03*
X878740Y307874D03*
X349213Y685827D03*
G54D106*
X753780Y506220D03*
X481102Y386614D03*
X809843Y400394D03*
X788189D03*
X481102Y469291D03*
Y427953D03*
G54D107*
X763780Y506220D03*
X753780Y496220D03*
X763780D03*
X753780Y486220D03*
X763780D03*
X753780Y476220D03*
X763780D03*
X753780Y466220D03*
X763780D03*
X753780Y456220D03*
X763780D03*
X753780Y446220D03*
X763661Y446417D03*
X753661Y436417D03*
X763661D03*
X753661Y426417D03*
X763661D03*
X753661Y416417D03*
X763661D03*
X481102Y396614D03*
Y406614D03*
Y416614D03*
X809843Y410394D03*
Y420394D03*
Y430394D03*
Y440394D03*
Y450394D03*
X788189Y410394D03*
Y420394D03*
Y430394D03*
Y440394D03*
Y450394D03*
X481102Y479291D03*
Y489291D03*
Y499291D03*
Y509291D03*
Y437953D03*
Y447953D03*
Y457953D03*
G54D114*
X306496Y295755D02*
Y288780D01*
Y295755D02*
X308644Y288780D01*
X310791Y295755D02*
X308644Y288780D01*
X310791Y295755D02*
Y288780D01*
X315354Y295755D02*
X313207Y288780D01*
X315354Y295755D02*
X317502Y288780D01*
X314012Y291105D02*
X316696D01*
X323676Y294759D02*
X323139Y295423D01*
X322334Y295755*
X321260*
X320455Y295423*
X319918Y294759*
Y294094*
X320186Y293430*
X320455Y293098*
X320991Y292766*
X322602Y292101*
X323139Y291769*
X323407Y291437*
X323676Y290773*
Y289776*
X323139Y289112*
X322334Y288780*
X321260*
X320455Y289112*
X319918Y289776*
X326092Y295755D02*
Y288780D01*
X329850Y295755D02*
X326092Y291105D01*
X327434Y292766D02*
X329850Y288780D01*
X338440Y295755D02*
Y288780D01*
Y295755D02*
X340855D01*
X341661Y295423*
X341929Y295091*
X342198Y294427*
Y293762*
X341929Y293098*
X341661Y292766*
X340855Y292434*
X338440D02*
X340855D01*
X341661Y292101*
X341929Y291769*
X342198Y291105*
Y290108*
X341929Y289444*
X341661Y289112*
X340855Y288780*
X338440*
X346224Y295755D02*
X345687Y295423D01*
X345150Y294759*
X344882Y294094*
X344613Y293098*
Y291437*
X344882Y290440*
X345150Y289776*
X345687Y289112*
X346224Y288780*
X347298*
X347835Y289112*
X348372Y289776*
X348640Y290440*
X348908Y291437*
Y293098*
X348640Y294094*
X348372Y294759*
X347835Y295423*
X347298Y295755*
X346224*
X353203D02*
Y288780D01*
X351324Y295755D02*
X355082D01*
X359377D02*
Y288780D01*
X357498Y295755D02*
X361256D01*
X365283D02*
X364746Y295423D01*
X364209Y294759*
X363941Y294094*
X363672Y293098*
Y291437*
X363941Y290440*
X364209Y289776*
X364746Y289112*
X365283Y288780*
X366356*
X366893Y289112*
X367430Y289776*
X367699Y290440*
X367967Y291437*
Y293098*
X367699Y294094*
X367430Y294759*
X366893Y295423*
X366356Y295755*
X365283*
X370383D02*
Y288780D01*
Y295755D02*
X372530Y288780D01*
X374678Y295755D02*
X372530Y288780D01*
X374678Y295755D02*
Y288780D01*
G54D166*
X672638Y433858D03*
X679330D03*
X672638Y445669D03*
X679330D03*
X645866Y524409D03*
X639174D03*
X672638Y457480D03*
X679330D03*
X672638Y469291D03*
X679330D03*
X580905D03*
X574213D03*
X580905Y457480D03*
X574213D03*
X580905Y445669D03*
X574213D03*
X580905Y433858D03*
X574213D03*
X672638Y422047D03*
X679330D03*
G54D169*
X656299Y608150D03*
Y598150D03*
X641457Y620866D03*
X651457D03*
X636614Y608150D03*
Y598150D03*
G54D173*
X686417Y433858D03*
X693110D03*
X686417Y445669D03*
X693110D03*
X686417Y457480D03*
X693110D03*
X686417Y469291D03*
X693110D03*
X567126D03*
X560433D03*
X567126Y457480D03*
X560433D03*
X567126Y445669D03*
X560433D03*
X567126Y433858D03*
X560433D03*
X686417Y422047D03*
X693110D03*
G54D175*
X327559Y327559D03*
Y666142D03*
X650394Y374803D03*
Y666142D03*
X902362Y327559D03*
X835433Y666142D03*
X786220Y374803D03*
Y666142D03*
G54D176*
X583766Y481319D03*
Y486319D03*
Y491319D03*
Y496319D03*
Y501319D03*
Y506319D03*
Y511319D03*
Y516319D03*
X603557D03*
Y511319D03*
Y506319D03*
Y501319D03*
Y496319D03*
Y491319D03*
Y486319D03*
Y481319D03*
X715656Y333839D03*
Y338839D03*
Y343839D03*
Y348839D03*
X735447D03*
Y343839D03*
Y338839D03*
Y333839D03*
G54D179*
X624803Y486319D03*
Y479823D03*
X752756Y336122D03*
Y342618D03*
X534252Y355807D03*
Y362303D03*
G54D180*
X470669Y579528D03*
X463976D03*
X470669Y591339D03*
X463976D03*
X470669Y603150D03*
X463976D03*
X470669Y614961D03*
X463976D03*
X495472Y579528D03*
X502165D03*
X511220Y571654D03*
X517913D03*
X525000Y579528D03*
X531693D03*
X558465D03*
X565157D03*
X587992Y589370D03*
X594685D03*
X605709D03*
X612402D03*
X542717Y571654D03*
X549409D03*
G54D181*
X567717Y395079D03*
Y401771D03*
Y408859D03*
Y415551D03*
X583465D03*
Y408859D03*
X719291Y490354D03*
Y483662D03*
X711417D03*
Y490354D03*
X719291Y462795D03*
Y456103D03*
X711417D03*
Y462795D03*
X719291Y435236D03*
Y428544D03*
X711417D03*
Y435236D03*
X719291Y407677D03*
Y400985D03*
X711417D03*
Y407677D03*
X593307Y366338D03*
Y359646D03*
X719291Y380118D03*
Y373426D03*
X711417D03*
Y380118D03*
X559843Y366338D03*
Y359646D03*
X567717D03*
Y366338D03*
X540157Y401771D03*
Y395079D03*
X548031D03*
Y401771D03*
X540157Y429330D03*
Y422638D03*
X548031D03*
Y429330D03*
X540157Y458858D03*
Y452166D03*
X548031D03*
Y458858D03*
X540157Y484448D03*
Y477756D03*
X548031D03*
Y484448D03*
G54D182*
X616929Y479724D03*
Y486417D03*
X571654Y512008D03*
Y505315D03*
Y483661D03*
Y490354D03*
X559843Y505315D03*
Y512008D03*
X575591Y408858D03*
Y415551D03*
X559843Y490354D03*
Y483661D03*
X744882Y336024D03*
Y342717D03*
X585433Y359646D03*
Y366339D03*
G54D183*
X722047Y500787D03*
X708661D03*
X722047Y473228D03*
X708661D03*
X722047Y445669D03*
X708661D03*
X722047Y418110D03*
X708661D03*
X722047Y390551D03*
X708661D03*
X557087Y374803D03*
X570472D03*
X537402Y412205D03*
X550787D03*
X537402Y439764D03*
X550787D03*
X537402Y467323D03*
X550787D03*
X537402Y494882D03*
X550787D03*
G54D185*
X396456Y551969D03*
Y563780D03*
Y575591D03*
Y587402D03*
Y599213D03*
Y611024D03*
Y622835D03*
Y634646D03*
Y646457D03*
X410236Y557874D03*
Y569685D03*
Y581496D03*
Y593307D03*
Y605119D03*
Y616930D03*
Y628741D03*
Y640552D03*
X425984Y557874D03*
Y569685D03*
Y581496D03*
Y593307D03*
Y605119D03*
Y616930D03*
Y628741D03*
Y640552D03*
X439764Y551969D03*
Y563780D03*
Y575591D03*
Y587402D03*
Y599213D03*
Y611024D03*
Y622835D03*
Y634646D03*
Y646457D03*
G54D188*
X790157Y469291D03*
Y485039D03*
X498819Y528346D03*
G54D189*
X800157Y469291D03*
X810157D03*
X820157D03*
X830157D03*
X840157D03*
X800157Y485039D03*
X810157D03*
X820157D03*
X830157D03*
X840157D03*
X508819Y528346D03*
X518819D03*
X528819D03*
G54D191*
X579528Y590748D03*
Y584055D03*
X616929Y604528D03*
Y597835D03*
G54D195*
X605118Y313780D03*
X633465Y311811D03*
X598425Y342913D03*
X675197Y332677D03*
X660236Y326378D03*
X793307Y338189D03*
X837008Y329528D03*
X826772Y331102D03*
X451575Y358268D03*
X476772Y350394D03*
X498425Y361024D03*
X514173D03*
X525984Y353937D03*
X712205Y356693D03*
X720079Y357087D03*
X744882Y351575D03*
X752756D03*
X833465Y347244D03*
X488583Y379921D03*
X542520Y377953D03*
Y382283D03*
X577559Y373228D03*
X582677Y375591D03*
X622047Y369291D03*
X622835Y379134D03*
X627953D03*
X627559Y366929D03*
X686614Y373622D03*
X705512Y380315D03*
X724803Y373622D03*
X744882D03*
X380709Y400394D03*
X472047Y391732D03*
X488583Y402362D03*
Y390551D03*
X534646Y398425D03*
X540945Y389370D03*
X548031Y389764D03*
X553150Y401969D03*
X562598Y388583D03*
X580709Y401575D03*
X632677Y394488D03*
X627953D03*
X622835D03*
X679528Y403937D03*
X702362Y390551D03*
X725984Y400787D03*
X448425Y416142D03*
X454724Y406693D03*
X488583Y424016D03*
Y412598D03*
X529528Y422835D03*
X553543Y418898D03*
X562598Y404331D03*
X562205Y415354D03*
X591339Y419291D03*
X614567Y420079D03*
Y412205D03*
X638583Y405118D03*
X658661Y421260D03*
X652756Y411024D03*
X691732Y416535D03*
X697638Y411811D03*
X684252Y416142D03*
X705512Y405906D03*
Y411417D03*
X488583Y437795D03*
X531496Y428740D03*
X531102Y444094D03*
X552756Y432283D03*
X571654Y427953D03*
X560236Y428346D03*
X590945Y433071D03*
X592520Y437402D03*
Y441732D03*
X586614Y428740D03*
X619685Y440157D03*
X629134D03*
X633858D03*
X624409D03*
X698425Y442913D03*
Y433858D03*
X684252Y427953D03*
X705512Y435039D03*
X725984Y428346D03*
X844882Y432283D03*
Y436614D03*
X848425Y429134D03*
X488583Y459449D03*
Y449606D03*
X534646Y455906D03*
X521654D03*
X527165Y461417D03*
X555118Y447638D03*
X553937Y458268D03*
X548031Y446457D03*
X595669Y444882D03*
X619685D03*
Y449606D03*
Y454331D03*
Y459055D03*
X629134Y444882D03*
Y449606D03*
Y454331D03*
X633858Y444882D03*
Y449606D03*
Y454331D03*
Y459055D03*
X629134D03*
X624409D03*
Y454331D03*
Y444882D03*
Y449606D03*
X659449Y463386D03*
Y458661D03*
Y453937D03*
Y449606D03*
X693307Y463386D03*
X705512Y462598D03*
X702362Y445669D03*
X726378Y462598D03*
Y455906D03*
X845276Y449606D03*
X850394D03*
X855512D03*
X862992Y463386D03*
X868110D03*
X885433Y448031D03*
X892126D03*
X488976Y477165D03*
X521654Y467323D03*
Y479528D03*
X531102Y475984D03*
X554331Y474409D03*
X560236Y474803D03*
X609449Y475197D03*
X629921Y473622D03*
X637795D03*
X693307Y475197D03*
X702362Y474803D03*
X727165Y483858D03*
X488583Y501181D03*
Y487402D03*
X523622Y503543D03*
X521654Y490945D03*
X553543Y485827D03*
X559843Y496457D03*
X594882Y487008D03*
X619685Y499213D03*
Y494094D03*
X628346Y502362D03*
X640551Y484646D03*
X646063Y490551D03*
X667323Y502362D03*
X660630Y489764D03*
Y485039D03*
X685827Y488976D03*
X690945Y499213D03*
X705512Y490157D03*
X702362Y500787D03*
X727165Y491339D03*
X850394Y494882D03*
X876772Y485433D03*
X874409Y500000D03*
X472441Y522047D03*
X475984Y516929D03*
X496850Y512598D03*
X507874Y504331D03*
X532283Y512598D03*
X552756Y518898D03*
X556693D03*
X591732Y516535D03*
X587008Y522047D03*
X611024D03*
X615354Y510256D03*
X603937Y521654D03*
X625984Y506299D03*
X626772Y516929D03*
X656299Y513386D03*
X689764Y518898D03*
X685433Y515354D03*
X680709Y522441D03*
X700000Y507480D03*
X705906Y507874D03*
Y511417D03*
X724409D03*
Y516142D03*
X791339Y523228D03*
X784646D03*
X884252Y521654D03*
X888976D03*
Y516929D03*
X884252D03*
X910236Y504331D03*
X901181Y508661D03*
X490157Y535039D03*
X538976Y531890D03*
X540157Y526378D03*
X568504Y528346D03*
X588583Y536220D03*
X587008Y526378D03*
Y531102D03*
X603937Y529528D03*
X618504Y527165D03*
X603937Y525591D03*
X620866Y531102D03*
X628740Y535433D03*
X627165Y542520D03*
X623228Y524409D03*
X631496Y527559D03*
X641339Y540157D03*
X676378Y538189D03*
Y543307D03*
X668110Y535039D03*
X695669Y537402D03*
X681496Y538189D03*
X713386Y525591D03*
X705512Y537402D03*
X700394D03*
X709449Y540945D03*
X745669Y533858D03*
X748031Y527953D03*
X798031Y530315D03*
Y525984D03*
Y534646D03*
X802362Y525984D03*
Y534646D03*
Y530315D03*
X465748Y551969D03*
Y563780D03*
X514173Y561811D03*
X565748Y559055D03*
X561024Y549606D03*
X565748Y553937D03*
X592913Y558661D03*
X597638Y549213D03*
Y553937D03*
Y558661D03*
X592913Y549213D03*
Y553937D03*
X588189Y549213D03*
Y544488D03*
X592913D03*
X597638D03*
X588189Y563386D03*
X592913D03*
X597638D03*
X588189Y553937D03*
Y558661D03*
X602362Y544488D03*
Y549213D03*
Y553937D03*
Y563386D03*
Y558661D03*
X695276Y553937D03*
Y559449D03*
X713780Y545276D03*
X700394Y559449D03*
Y553937D03*
X720472Y545276D03*
X829528Y563780D03*
X835433D03*
X829528Y557874D03*
X835433D03*
X841339Y563780D03*
X847244D03*
X841339Y557874D03*
X847244D03*
X853150D03*
Y563780D03*
X470472Y573622D03*
X490945D03*
X509843Y577559D03*
X520079Y583858D03*
X542520Y577559D03*
X553543Y579528D03*
X598819Y572441D03*
X590945D03*
X632677Y570866D03*
X650000Y579528D03*
X654724Y575984D03*
X668504Y571654D03*
X664961Y568504D03*
X682283Y576378D03*
X679921Y583071D03*
X695276Y564567D03*
X719291Y577953D03*
X700394Y564567D03*
X707480Y580709D03*
X724016Y577953D03*
X727953Y581102D03*
X732283D03*
X791339Y568898D03*
X829528Y569685D03*
Y575591D03*
Y581496D03*
X835433Y569685D03*
Y575591D03*
Y581496D03*
X841339Y569685D03*
X847244D03*
X853150D03*
X841339Y575591D03*
X847244D03*
X853150D03*
Y581496D03*
X847244D03*
X841339D03*
X340157Y585433D03*
X350394D03*
X345276D03*
X475984Y603150D03*
Y591339D03*
X495276Y586220D03*
X579134Y599606D03*
X600787Y589370D03*
X622441Y597638D03*
X650000Y587402D03*
X667323Y594882D03*
X684646Y586220D03*
X688583Y589370D03*
X705906Y585433D03*
X718110Y600000D03*
Y595669D03*
X713780Y596457D03*
X700787Y589764D03*
Y585433D03*
X731102Y601969D03*
X722441D03*
X736220Y595669D03*
Y600000D03*
X755512Y592913D03*
Y597244D03*
X794094Y603543D03*
X798819D03*
X829528Y587402D03*
X835433D03*
Y593307D03*
X829528D03*
X841339Y587402D03*
X847244D03*
Y593307D03*
X841339D03*
X853150D03*
Y587402D03*
X475984Y614961D03*
X569291Y622835D03*
X588189Y611024D03*
X616929Y610630D03*
X671654Y614567D03*
X691732Y614961D03*
X679921Y615354D03*
X715354Y616929D03*
X794094Y608268D03*
Y612992D03*
X798819Y608268D03*
Y612992D03*
X340157Y643701D03*
X345276D03*
X350394D03*
X566142Y631102D03*
X562598Y633465D03*
X566142Y636220D03*
X594882Y633858D03*
Y629528D03*
X599606D03*
Y633858D03*
X623228Y624409D03*
X562598Y659843D03*
Y664173D03*
X574016Y674016D03*
X571654Y670472D03*
X576378D03*
X629134Y682283D03*
X758661Y664567D03*
Y669685D03*
X753937D03*
Y664567D03*
X749213D03*
Y669685D03*
X744488D03*
Y664567D03*
X671654Y687008D03*
G54D214*
X495079Y449606D03*
X506496D03*
X495079Y461417D03*
X506496D03*
X495079Y473228D03*
X506496D03*
X495079Y485039D03*
X506496D03*
X495079Y496850D03*
X506496D03*
X530118Y518504D03*
X518701D03*
X497047D03*
X508465D03*
X477362Y528346D03*
X488780D03*
G54D232*
X546063Y528150D03*
Y516732D03*
X492913Y361220D03*
Y372638D03*
X508661Y361220D03*
Y372638D03*
X524409Y361220D03*
Y372638D03*
G54D234*
X592028Y526378D03*
X598524D03*
X521752Y449606D03*
X515256D03*
X521752Y473228D03*
X515256D03*
X521752Y496850D03*
X515256D03*
X521752Y461417D03*
X515256D03*
X521752Y485039D03*
X515256D03*
X519783Y382677D03*
X513287D03*
X504035D03*
X497539D03*
X481791Y520472D03*
X488287D03*
X503445Y510630D03*
X509941D03*
X525689D03*
X519193D03*
X540846Y506693D03*
X547342D03*
G54D258*
X595276Y553937D03*
G54D274*
X577756Y534744D03*
Y537303D03*
Y539862D03*
Y542421D03*
Y544980D03*
Y547539D03*
Y550098D03*
Y552657D03*
Y555217D03*
Y557776D03*
Y560335D03*
Y562894D03*
Y565453D03*
Y568012D03*
Y570571D03*
Y573130D03*
X612795D03*
Y570571D03*
Y568012D03*
Y565453D03*
Y562894D03*
Y560335D03*
Y557776D03*
Y555217D03*
Y552657D03*
Y550098D03*
Y547539D03*
Y544980D03*
Y542421D03*
Y539862D03*
Y537303D03*
Y534744D03*
G54D277*
X429921Y469291D03*
Y446063D03*
X406299Y469291D03*
Y446063D03*
X429921Y370866D03*
Y347638D03*
X406299Y370866D03*
Y347638D03*
G74*
X0Y0D02*
M02*
