*
*
G04 PADS VX.2.2 Build Number: 7607494 generated Gerber (RS-274-X) file*
G04 PC Version=2.1*
*
%IN "TEMP 41-L26.pcb"*%
*
%MOIN*%
*
%FSLAX35Y35*%
*
*
*
*
G04 PC Standard Apertures*
*
*
G04 Thermal Relief Aperture macro.*
%AMTER*
1,1,$1,0,0*
1,0,$1-$2,0,0*
21,0,$3,$4,0,0,45*
21,0,$3,$4,0,0,135*
%
*
*
G04 Annular Aperture macro.*
%AMANN*
1,1,$1,0,0*
1,0,$2,0,0*
%
*
*
G04 Odd Aperture macro.*
%AMODD*
1,1,$1,0,0*
1,0,$1-0.005,0,0*
%
*
*
G04 PC Custom Aperture Macros*
*
*
*
*
*
*
G04 PC Aperture Table*
*
%ADD010C,0.001*%
%ADD011C,0.01*%
%ADD050C,0.04*%
%ADD114C,0.01181*%
%ADD118R,0.03937X0.04331*%
%ADD125R,0.03937X0.04331*%
%ADD128R,0.085X0.02402*%
%ADD131R,0.04331X0.03937*%
%ADD132R,0.03543X0.04724*%
%ADD133R,0.04331X0.03937*%
%ADD134R,0.04331X0.03937*%
%ADD135R,0.05512X0.07087*%
%ADD143R,0.04724X0.03543*%
%ADD212R,0.05906X0.04724*%
%ADD226R,0.04724X0.05906*%
%ADD228R,0.03937X0.04331*%
%ADD244R,0.18898X0.23228*%
%ADD266R,0.08661X0.01575*%
*
*
*
*
G04 PC Circuitry*
G04 Layer Name TEMP 41-L26.pcb - circuitry*
%LPD*%
*
*
G04 PC Custom Flashes*
G04 Layer Name TEMP 41-L26.pcb - flashes*
%LPD*%
*
*
G04 PC Circuitry*
G04 Layer Name TEMP 41-L26.pcb - circuitry*
%LPD*%
*
G54D10*
G01X300000Y693701D02*
X300003D01*
X929921D02*
X929924D01*
X300000Y300000D02*
X300003D01*
X300000Y693701D02*
X300003D01*
G54D11*
X300000Y300000D02*
Y693701D01*
X862992*
Y555906*
X929921*
Y420079*
X886614*
Y361024*
X929921*
Y300000*
X300000*
X290157Y693701D02*
X309843D01*
X300000Y683858D02*
Y703543D01*
X290157Y300000D02*
X309843D01*
X300000Y290157D02*
Y309843D01*
X920079Y300000D02*
X939764D01*
X929921Y290157D02*
Y309843D01*
X920079Y693701D02*
X939764D01*
X929921Y683858D02*
Y703543D01*
X300000D02*
X316685D01*
X300000D02*
X310000Y706043D01*
Y701043*
X300000Y703543*
X929921D02*
X356776D01*
X929921D02*
X919921Y701043D01*
Y706043*
X929921Y703543*
X300000Y698701D02*
Y708543D01*
X929921Y698701D02*
Y708543D01*
X319685Y706887D02*
X320140Y707200D01*
X320821Y708137*
Y701575*
X325594Y707200D02*
X325367Y707825D01*
X324685Y708137*
X324230*
X323549Y707825*
X323094Y706887*
X322867Y705325*
Y703762*
X323094Y702512*
X323549Y701887*
X324230Y701575*
X324458*
X325140Y701887*
X325594Y702512*
X325821Y703450*
Y703762*
X325594Y704700*
X325140Y705325*
X324458Y705637*
X324230*
X323549Y705325*
X323094Y704700*
X322867Y703762*
X329230Y708137D02*
X328549Y707825D01*
X328094Y706887*
X327867Y705325*
Y704387*
X328094Y702825*
X328549Y701887*
X329230Y701575*
X329685*
X330367Y701887*
X330821Y702825*
X331049Y704387*
Y705325*
X330821Y706887*
X330367Y707825*
X329685Y708137*
X329230*
X333321Y702200D02*
X333094Y701887D01*
X333321Y701575*
X333549Y701887*
X333321Y702200*
X336958Y708137D02*
X336276Y707825D01*
X335821Y706887*
X335594Y705325*
Y704387*
X335821Y702825*
X336276Y701887*
X336958Y701575*
X337412*
X338094Y701887*
X338549Y702825*
X338776Y704387*
Y705325*
X338549Y706887*
X338094Y707825*
X337412Y708137*
X336958*
X340821Y705950D02*
Y701575D01*
Y704700D02*
X341503Y705637D01*
X341958Y705950*
X342640*
X343094Y705637*
X343321Y704700*
Y701575*
Y704700D02*
X344003Y705637D01*
X344458Y705950*
X345140*
X345594Y705637*
X345821Y704700*
Y701575*
X347867Y705950D02*
Y701575D01*
Y704700D02*
X348549Y705637D01*
X349003Y705950*
X349685*
X350140Y705637*
X350367Y704700*
Y701575*
Y704700D02*
X351049Y705637D01*
X351503Y705950*
X352185*
X352640Y705637*
X352867Y704700*
Y701575*
X280315Y300000D02*
Y637551D01*
Y300000D02*
X277815Y310000D01*
X282815*
X280315Y300000*
Y693701D02*
Y677869D01*
Y693701D02*
X282815Y683701D01*
X277815*
X280315Y693701*
X295000Y300000D02*
X275315D01*
X295000Y693701D02*
X275315D01*
X276971Y640551D02*
X276658Y641006D01*
X275721Y641688*
X282283*
X275721Y645097D02*
X276033Y644415D01*
X276971Y643960*
X278533Y643733*
X279471*
X281033Y643960*
X281971Y644415*
X282283Y645097*
Y645551*
X281971Y646233*
X281033Y646688*
X279471Y646915*
X278533*
X276971Y646688*
X276033Y646233*
X275721Y645551*
Y645097*
Y650324D02*
X276033Y649642D01*
X276971Y649188*
X278533Y648960*
X279471*
X281033Y649188*
X281971Y649642*
X282283Y650324*
Y650778*
X281971Y651460*
X281033Y651915*
X279471Y652142*
X278533*
X276971Y651915*
X276033Y651460*
X275721Y650778*
Y650324*
X281658Y654415D02*
X281971Y654188D01*
X282283Y654415*
X281971Y654642*
X281658Y654415*
X275721Y658051D02*
X276033Y657369D01*
X276971Y656915*
X278533Y656688*
X279471*
X281033Y656915*
X281971Y657369*
X282283Y658051*
Y658506*
X281971Y659188*
X281033Y659642*
X279471Y659869*
X278533*
X276971Y659642*
X276033Y659188*
X275721Y658506*
Y658051*
X277908Y661915D02*
X282283D01*
X279158D02*
X278221Y662597D01*
X277908Y663051*
Y663733*
X278221Y664188*
X279158Y664415*
X282283*
X279158D02*
X278221Y665097D01*
X277908Y665551*
Y666233*
X278221Y666688*
X279158Y666915*
X282283*
X277908Y668960D02*
X282283D01*
X279158D02*
X278221Y669642D01*
X277908Y670097*
Y670778*
X278221Y671233*
X279158Y671460*
X282283*
X279158D02*
X278221Y672142D01*
X277908Y672597*
Y673278*
X278221Y673733*
X279158Y673960*
X282283*
G54D50*
X351181Y307874D03*
X813780Y685827D03*
X878740Y307874D03*
X349213Y685827D03*
G54D114*
X306496Y295755D02*
Y288780D01*
Y295755D02*
X308912D01*
X309717Y295423*
X309986Y295091*
X310254Y294427*
Y293430*
X309986Y292766*
X309717Y292434*
X308912Y292101*
X306496*
X314817Y295755D02*
X312670Y288780D01*
X314817Y295755D02*
X316965Y288780D01*
X313475Y291105D02*
X316160D01*
X323139Y294759D02*
X322602Y295423D01*
X321797Y295755*
X320723*
X319918Y295423*
X319381Y294759*
Y294094*
X319649Y293430*
X319918Y293098*
X320455Y292766*
X322065Y292101*
X322602Y291769*
X322870Y291437*
X323139Y290773*
Y289776*
X322602Y289112*
X321797Y288780*
X320723*
X319918Y289112*
X319381Y289776*
X327434Y295755D02*
Y288780D01*
X325555Y295755D02*
X329313D01*
X331729D02*
Y288780D01*
Y295755D02*
X335218D01*
X331729Y292434D02*
X333876D01*
X331729Y288780D02*
X335218D01*
X343808Y295755D02*
Y288780D01*
Y295755D02*
X346224D01*
X347029Y295423*
X347298Y295091*
X347566Y294427*
Y293762*
X347298Y293098*
X347029Y292766*
X346224Y292434*
X343808D02*
X346224D01*
X347029Y292101*
X347298Y291769*
X347566Y291105*
Y290108*
X347298Y289444*
X347029Y289112*
X346224Y288780*
X343808*
X351593Y295755D02*
X351056Y295423D01*
X350519Y294759*
X350251Y294094*
X349982Y293098*
Y291437*
X350251Y290440*
X350519Y289776*
X351056Y289112*
X351593Y288780*
X352666*
X353203Y289112*
X353740Y289776*
X354009Y290440*
X354277Y291437*
Y293098*
X354009Y294094*
X353740Y294759*
X353203Y295423*
X352666Y295755*
X351593*
X358572D02*
Y288780D01*
X356693Y295755D02*
X360451D01*
X364746D02*
Y288780D01*
X362867Y295755D02*
X366625D01*
X370651D02*
X370115Y295423D01*
X369578Y294759*
X369309Y294094*
X369041Y293098*
Y291437*
X369309Y290440*
X369578Y289776*
X370115Y289112*
X370651Y288780*
X371725*
X372262Y289112*
X372799Y289776*
X373067Y290440*
X373336Y291437*
Y293098*
X373067Y294094*
X372799Y294759*
X372262Y295423*
X371725Y295755*
X370651*
X375752D02*
Y288780D01*
Y295755D02*
X377899Y288780D01*
X380047Y295755D02*
X377899Y288780D01*
X380047Y295755D02*
Y288780D01*
G54D118*
X672638Y433858D03*
X679330D03*
X672638Y445669D03*
X679330D03*
X645866Y524409D03*
X639174D03*
X672638Y457480D03*
X679330D03*
X672638Y469291D03*
X679330D03*
X580905D03*
X574213D03*
X580905Y457480D03*
X574213D03*
X580905Y445669D03*
X574213D03*
X580905Y433858D03*
X574213D03*
X672638Y422047D03*
X679330D03*
G54D125*
X686417Y433858D03*
X693110D03*
X686417Y445669D03*
X693110D03*
X686417Y457480D03*
X693110D03*
X686417Y469291D03*
X693110D03*
X567126D03*
X560433D03*
X567126Y457480D03*
X560433D03*
X567126Y445669D03*
X560433D03*
X567126Y433858D03*
X560433D03*
X686417Y422047D03*
X693110D03*
G54D128*
X583766Y481319D03*
Y486319D03*
Y491319D03*
Y496319D03*
Y501319D03*
Y506319D03*
Y511319D03*
Y516319D03*
X603557D03*
Y511319D03*
Y506319D03*
Y501319D03*
Y496319D03*
Y491319D03*
Y486319D03*
Y481319D03*
X715656Y333839D03*
Y338839D03*
Y343839D03*
Y348839D03*
X735447D03*
Y343839D03*
Y338839D03*
Y333839D03*
G54D131*
X624803Y486319D03*
Y479823D03*
X752756Y336122D03*
Y342618D03*
X534252Y355807D03*
Y362303D03*
G54D132*
X470669Y579528D03*
X463976D03*
X470669Y591339D03*
X463976D03*
X470669Y603150D03*
X463976D03*
X470669Y614961D03*
X463976D03*
X495472Y579528D03*
X502165D03*
X511220Y571654D03*
X517913D03*
X525000Y579528D03*
X531693D03*
X558465D03*
X565157D03*
X587992Y589370D03*
X594685D03*
X605709D03*
X612402D03*
X542717Y571654D03*
X549409D03*
G54D133*
X567717Y395079D03*
Y401771D03*
Y408859D03*
Y415551D03*
X583465D03*
Y408859D03*
X719291Y490354D03*
Y483662D03*
X711417D03*
Y490354D03*
X719291Y462795D03*
Y456103D03*
X711417D03*
Y462795D03*
X719291Y435236D03*
Y428544D03*
X711417D03*
Y435236D03*
X719291Y407677D03*
Y400985D03*
X711417D03*
Y407677D03*
X593307Y366338D03*
Y359646D03*
X719291Y380118D03*
Y373426D03*
X711417D03*
Y380118D03*
X559843Y366338D03*
Y359646D03*
X567717D03*
Y366338D03*
X540157Y401771D03*
Y395079D03*
X548031D03*
Y401771D03*
X540157Y429330D03*
Y422638D03*
X548031D03*
Y429330D03*
X540157Y458858D03*
Y452166D03*
X548031D03*
Y458858D03*
X540157Y484448D03*
Y477756D03*
X548031D03*
Y484448D03*
G54D134*
X616929Y479724D03*
Y486417D03*
X571654Y512008D03*
Y505315D03*
Y483661D03*
Y490354D03*
X559843Y505315D03*
Y512008D03*
X575591Y408858D03*
Y415551D03*
X559843Y490354D03*
Y483661D03*
X744882Y336024D03*
Y342717D03*
X585433Y359646D03*
Y366339D03*
G54D135*
X722047Y500787D03*
X708661D03*
X722047Y473228D03*
X708661D03*
X722047Y445669D03*
X708661D03*
X722047Y418110D03*
X708661D03*
X722047Y390551D03*
X708661D03*
X557087Y374803D03*
X570472D03*
X537402Y412205D03*
X550787D03*
X537402Y439764D03*
X550787D03*
X537402Y467323D03*
X550787D03*
X537402Y494882D03*
X550787D03*
G54D143*
X579528Y590748D03*
Y584055D03*
X616929Y604528D03*
Y597835D03*
G54D212*
X495079Y449606D03*
X506496D03*
X495079Y461417D03*
X506496D03*
X495079Y473228D03*
X506496D03*
X495079Y485039D03*
X506496D03*
X495079Y496850D03*
X506496D03*
X530118Y518504D03*
X518701D03*
X497047D03*
X508465D03*
X477362Y528346D03*
X488780D03*
G54D226*
X546063Y528150D03*
Y516732D03*
X492913Y361220D03*
Y372638D03*
X508661Y361220D03*
Y372638D03*
X524409Y361220D03*
Y372638D03*
G54D228*
X592028Y526378D03*
X598524D03*
X521752Y449606D03*
X515256D03*
X521752Y473228D03*
X515256D03*
X521752Y496850D03*
X515256D03*
X521752Y461417D03*
X515256D03*
X521752Y485039D03*
X515256D03*
X519783Y382677D03*
X513287D03*
X504035D03*
X497539D03*
X481791Y520472D03*
X488287D03*
X503445Y510630D03*
X509941D03*
X525689D03*
X519193D03*
X540846Y506693D03*
X547342D03*
G54D244*
X595276Y553937D03*
G54D266*
X577756Y534744D03*
Y537303D03*
Y539862D03*
Y542421D03*
Y544980D03*
Y547539D03*
Y550098D03*
Y552657D03*
Y555217D03*
Y557776D03*
Y560335D03*
Y562894D03*
Y565453D03*
Y568012D03*
Y570571D03*
Y573130D03*
X612795D03*
Y570571D03*
Y568012D03*
Y565453D03*
Y562894D03*
Y560335D03*
Y557776D03*
Y555217D03*
Y552657D03*
Y550098D03*
Y547539D03*
Y544980D03*
Y542421D03*
Y539862D03*
Y537303D03*
Y534744D03*
X0Y0D02*
M02*
