*
*
G04 PADS VX.2.2 Build Number: 7607494 generated Gerber (RS-274-X) file*
G04 PC Version=2.1*
*
%IN "TEMP 41-L26.pcb"*%
*
%MOIN*%
*
%FSLAX35Y35*%
*
*
*
*
G04 PC Standard Apertures*
*
*
G04 Thermal Relief Aperture macro.*
%AMTER*
1,1,$1,0,0*
1,0,$1-$2,0,0*
21,0,$3,$4,0,0,45*
21,0,$3,$4,0,0,135*
%
*
*
G04 Annular Aperture macro.*
%AMANN*
1,1,$1,0,0*
1,0,$2,0,0*
%
*
*
G04 Odd Aperture macro.*
%AMODD*
1,1,$1,0,0*
1,0,$1-0.005,0,0*
%
*
*
G04 PC Custom Aperture Macros*
*
*
*
*
*
*
G04 PC Aperture Table*
*
%ADD010C,0.001*%
%ADD011C,0.01*%
%ADD050C,0.04*%
%ADD114C,0.01181*%
%ADD118R,0.03937X0.04331*%
%ADD120R,0.076X0.15*%
%ADD121C,0.06*%
%ADD124R,0.09449X0.09449*%
%ADD125R,0.03937X0.04331*%
%ADD126R,0.09449X0.07087*%
%ADD128R,0.085X0.02402*%
%ADD131R,0.04331X0.03937*%
%ADD132R,0.03543X0.04724*%
%ADD133R,0.04331X0.03937*%
%ADD134R,0.04331X0.03937*%
%ADD135R,0.05512X0.07087*%
%ADD142R,0.15X0.076*%
%ADD143R,0.04724X0.03543*%
%ADD146R,0.07874X0.20866*%
%ADD150R,0.17717X0.09843*%
%ADD153R,0.05906X0.01457*%
%ADD154R,0.01457X0.05906*%
%ADD157R,0.07087X0.05512*%
%ADD158R,0.09449X0.06299*%
%ADD161R,0.05X0.036*%
%ADD164R,0.1063X0.1063*%
%ADD211R,0.12992X0.09055*%
%ADD212R,0.05906X0.04724*%
%ADD215R,0.07087X0.03937*%
%ADD226R,0.04724X0.05906*%
%ADD228R,0.03937X0.04331*%
%ADD237C,0.02362*%
%ADD238R,0.05906X0.05906*%
%ADD239R,0.048X0.088*%
%ADD240R,0.14173X0.08661*%
%ADD241R,0.07087X0.09449*%
%ADD242R,0.07087X0.08661*%
%ADD244R,0.18898X0.23228*%
%ADD247R,0.09843X0.06693*%
%ADD248R,0.04134X0.05118*%
%ADD262R,0.20866X0.11024*%
%ADD263R,0.085X0.042*%
%ADD264R,0.45276X0.4252*%
%ADD265R,0.16732X0.16732*%
%ADD266R,0.08661X0.01575*%
%ADD267R,0.04724X0.13386*%
%ADD268R,0.02756X0.07874*%
*
*
*
*
G04 PC Circuitry*
G04 Layer Name TEMP 41-L26.pcb - circuitry*
%LPD*%
*
*
G04 PC Custom Flashes*
G04 Layer Name TEMP 41-L26.pcb - flashes*
%LPD*%
*
*
G04 PC Circuitry*
G04 Layer Name TEMP 41-L26.pcb - circuitry*
%LPD*%
*
G54D10*
G01X300000Y693701D02*
X300003D01*
X929921D02*
X929924D01*
X300000Y300000D02*
X300003D01*
X300000Y693701D02*
X300003D01*
G54D11*
X694579Y560933D02*
X688492D01*
Y567020*
X694579*
Y560933*
X702846D02*
X696760D01*
Y567020*
X702846*
Y560933*
Y552665D02*
X696760D01*
Y558752*
X702846*
Y552665*
X694579D02*
X688492D01*
Y558752*
X694579*
Y552665*
X688492Y566332D02*
X694579D01*
X688492Y565432D02*
X694579D01*
X688492Y564532D02*
X694579D01*
X688492Y563632D02*
X694579D01*
X688492Y562732D02*
X694579D01*
X688492Y561832D02*
X694579D01*
X696760Y566332D02*
X702846D01*
X696760Y565432D02*
X702846D01*
X696760Y564532D02*
X702846D01*
X696760Y563632D02*
X702846D01*
X696760Y562732D02*
X702846D01*
X696760Y561832D02*
X702846D01*
X696760Y558064D02*
X702846D01*
X696760Y557164D02*
X702846D01*
X696760Y556264D02*
X702846D01*
X696760Y555364D02*
X702846D01*
X696760Y554464D02*
X702846D01*
X696760Y553564D02*
X702846D01*
X688492Y558064D02*
X694579D01*
X688492Y557164D02*
X694579D01*
X688492Y556264D02*
X694579D01*
X688492Y555364D02*
X694579D01*
X688492Y554464D02*
X694579D01*
X688492Y553564D02*
X694579D01*
X300000Y300000D02*
Y693701D01*
X862992*
Y555906*
X929921*
Y420079*
X886614*
Y361024*
X929921*
Y300000*
X300000*
X290157Y693701D02*
X309843D01*
X300000Y683858D02*
Y703543D01*
X290157Y300000D02*
X309843D01*
X300000Y290157D02*
Y309843D01*
X920079Y300000D02*
X939764D01*
X929921Y290157D02*
Y309843D01*
X920079Y693701D02*
X939764D01*
X929921Y683858D02*
Y703543D01*
X300000D02*
X316685D01*
X300000D02*
X310000Y706043D01*
Y701043*
X300000Y703543*
X929921D02*
X356776D01*
X929921D02*
X919921Y701043D01*
Y706043*
X929921Y703543*
X300000Y698701D02*
Y708543D01*
X929921Y698701D02*
Y708543D01*
X319685Y706887D02*
X320140Y707200D01*
X320821Y708137*
Y701575*
X325594Y707200D02*
X325367Y707825D01*
X324685Y708137*
X324230*
X323549Y707825*
X323094Y706887*
X322867Y705325*
Y703762*
X323094Y702512*
X323549Y701887*
X324230Y701575*
X324458*
X325140Y701887*
X325594Y702512*
X325821Y703450*
Y703762*
X325594Y704700*
X325140Y705325*
X324458Y705637*
X324230*
X323549Y705325*
X323094Y704700*
X322867Y703762*
X329230Y708137D02*
X328549Y707825D01*
X328094Y706887*
X327867Y705325*
Y704387*
X328094Y702825*
X328549Y701887*
X329230Y701575*
X329685*
X330367Y701887*
X330821Y702825*
X331049Y704387*
Y705325*
X330821Y706887*
X330367Y707825*
X329685Y708137*
X329230*
X333321Y702200D02*
X333094Y701887D01*
X333321Y701575*
X333549Y701887*
X333321Y702200*
X336958Y708137D02*
X336276Y707825D01*
X335821Y706887*
X335594Y705325*
Y704387*
X335821Y702825*
X336276Y701887*
X336958Y701575*
X337412*
X338094Y701887*
X338549Y702825*
X338776Y704387*
Y705325*
X338549Y706887*
X338094Y707825*
X337412Y708137*
X336958*
X340821Y705950D02*
Y701575D01*
Y704700D02*
X341503Y705637D01*
X341958Y705950*
X342640*
X343094Y705637*
X343321Y704700*
Y701575*
Y704700D02*
X344003Y705637D01*
X344458Y705950*
X345140*
X345594Y705637*
X345821Y704700*
Y701575*
X347867Y705950D02*
Y701575D01*
Y704700D02*
X348549Y705637D01*
X349003Y705950*
X349685*
X350140Y705637*
X350367Y704700*
Y701575*
Y704700D02*
X351049Y705637D01*
X351503Y705950*
X352185*
X352640Y705637*
X352867Y704700*
Y701575*
X280315Y300000D02*
Y637551D01*
Y300000D02*
X277815Y310000D01*
X282815*
X280315Y300000*
Y693701D02*
Y677869D01*
Y693701D02*
X282815Y683701D01*
X277815*
X280315Y693701*
X295000Y300000D02*
X275315D01*
X295000Y693701D02*
X275315D01*
X276971Y640551D02*
X276658Y641006D01*
X275721Y641688*
X282283*
X275721Y645097D02*
X276033Y644415D01*
X276971Y643960*
X278533Y643733*
X279471*
X281033Y643960*
X281971Y644415*
X282283Y645097*
Y645551*
X281971Y646233*
X281033Y646688*
X279471Y646915*
X278533*
X276971Y646688*
X276033Y646233*
X275721Y645551*
Y645097*
Y650324D02*
X276033Y649642D01*
X276971Y649188*
X278533Y648960*
X279471*
X281033Y649188*
X281971Y649642*
X282283Y650324*
Y650778*
X281971Y651460*
X281033Y651915*
X279471Y652142*
X278533*
X276971Y651915*
X276033Y651460*
X275721Y650778*
Y650324*
X281658Y654415D02*
X281971Y654188D01*
X282283Y654415*
X281971Y654642*
X281658Y654415*
X275721Y658051D02*
X276033Y657369D01*
X276971Y656915*
X278533Y656688*
X279471*
X281033Y656915*
X281971Y657369*
X282283Y658051*
Y658506*
X281971Y659188*
X281033Y659642*
X279471Y659869*
X278533*
X276971Y659642*
X276033Y659188*
X275721Y658506*
Y658051*
X277908Y661915D02*
X282283D01*
X279158D02*
X278221Y662597D01*
X277908Y663051*
Y663733*
X278221Y664188*
X279158Y664415*
X282283*
X279158D02*
X278221Y665097D01*
X277908Y665551*
Y666233*
X278221Y666688*
X279158Y666915*
X282283*
X277908Y668960D02*
X282283D01*
X279158D02*
X278221Y669642D01*
X277908Y670097*
Y670778*
X278221Y671233*
X279158Y671460*
X282283*
X279158D02*
X278221Y672142D01*
X277908Y672597*
Y673278*
X278221Y673733*
X279158Y673960*
X282283*
G54D50*
X351181Y307874D03*
X813780Y685827D03*
X878740Y307874D03*
X349213Y685827D03*
G54D114*
X306496Y295755D02*
Y288780D01*
Y295755D02*
X308912D01*
X309717Y295423*
X309986Y295091*
X310254Y294427*
Y293430*
X309986Y292766*
X309717Y292434*
X308912Y292101*
X306496*
X314817Y295755D02*
X312670Y288780D01*
X314817Y295755D02*
X316965Y288780D01*
X313475Y291105D02*
X316160D01*
X323139Y294759D02*
X322602Y295423D01*
X321797Y295755*
X320723*
X319918Y295423*
X319381Y294759*
Y294094*
X319649Y293430*
X319918Y293098*
X320455Y292766*
X322065Y292101*
X322602Y291769*
X322870Y291437*
X323139Y290773*
Y289776*
X322602Y289112*
X321797Y288780*
X320723*
X319918Y289112*
X319381Y289776*
X327434Y295755D02*
Y288780D01*
X325555Y295755D02*
X329313D01*
X331729D02*
Y288780D01*
Y295755D02*
X335218D01*
X331729Y292434D02*
X333876D01*
X331729Y288780D02*
X335218D01*
X345687Y295755D02*
Y288780D01*
X343808Y295755D02*
X347566D01*
X351593D02*
X351056Y295423D01*
X350519Y294759*
X350251Y294094*
X349982Y293098*
Y291437*
X350251Y290440*
X350519Y289776*
X351056Y289112*
X351593Y288780*
X352666*
X353203Y289112*
X353740Y289776*
X354009Y290440*
X354277Y291437*
Y293098*
X354009Y294094*
X353740Y294759*
X353203Y295423*
X352666Y295755*
X351593*
X356693D02*
Y288780D01*
Y295755D02*
X359109D01*
X359914Y295423*
X360183Y295091*
X360451Y294427*
Y293430*
X360183Y292766*
X359914Y292434*
X359109Y292101*
X356693*
G54D118*
X572245Y634646D03*
X578937D03*
X891929Y455512D03*
X885237D03*
X800591Y516535D03*
X807283D03*
X784843D03*
X791535D03*
X826968Y502756D03*
X820276D03*
X580905Y469291D03*
X574213D03*
X580905Y457480D03*
X574213D03*
X580905Y445669D03*
X574213D03*
X580905Y433858D03*
X574213D03*
X722637Y611024D03*
X715945D03*
X488385Y565748D03*
X481693D03*
X637205Y587402D03*
X643897D03*
Y579528D03*
X637205D03*
X626181Y319685D03*
X619489D03*
Y311811D03*
X626181D03*
X633268Y319685D03*
X639960D03*
X791535Y345276D03*
X784843D03*
X850590Y329528D03*
X843898D03*
X679330Y481102D03*
X672638D03*
Y469291D03*
X679330D03*
X672638Y457480D03*
X679330D03*
X672638Y445669D03*
X679330D03*
X672638Y433858D03*
X679330D03*
X672638Y422047D03*
X679330D03*
Y488976D03*
X672638D03*
Y498819D03*
X679330D03*
X515158Y550000D03*
X521850D03*
X515158Y567717D03*
X521850D03*
X672638Y410236D03*
X679330D03*
X660827Y587402D03*
X667519D03*
X664764Y620866D03*
X671456D03*
X580905Y422047D03*
X574213D03*
X696260Y620866D03*
X702952D03*
X680512D03*
X687204D03*
G54D120*
X752756Y611024D03*
Y650394D03*
X609055Y638583D03*
Y677953D03*
G54D121*
X660236Y638583D03*
X520472Y687795D03*
X701575Y516535D03*
Y526378D03*
X516535Y577559D03*
X487402Y545669D03*
X555906Y313780D03*
Y349213D03*
X719291Y626772D03*
X784252Y611024D03*
G54D124*
X781102Y597244D03*
X763780D03*
G54D125*
X887205Y508661D03*
X893898D03*
X469882Y357087D03*
X476575D03*
X580906Y536220D03*
X574213D03*
Y548031D03*
X580906D03*
X574213Y555906D03*
X580906D03*
X820276Y347244D03*
X826969D03*
X567126Y469291D03*
X560433D03*
X743504Y387795D03*
X750197D03*
X686417Y469291D03*
X693110D03*
X686417Y457480D03*
X693110D03*
X686417Y445669D03*
X693110D03*
X686417Y433858D03*
X693110D03*
X686417Y422047D03*
X693110D03*
X601772Y420079D03*
X608465D03*
X601772Y412205D03*
X608465D03*
X743504Y379921D03*
X750197D03*
X567126Y457480D03*
X560433D03*
X567126Y445669D03*
X560433D03*
X567126Y433858D03*
X560433D03*
X679331Y506693D03*
X672638D03*
X582087Y487008D03*
X588780D03*
X567126Y422047D03*
X560433D03*
G54D126*
X636614Y596930D03*
Y609331D03*
X864961Y499881D03*
Y487480D03*
X656299Y596930D03*
Y609331D03*
G54D128*
X644187Y329902D03*
Y334902D03*
Y339902D03*
Y344902D03*
X624396D03*
Y339902D03*
Y334902D03*
Y329902D03*
X604817Y495256D03*
Y500256D03*
Y505256D03*
Y510256D03*
X585026D03*
Y505256D03*
Y500256D03*
Y495256D03*
G54D131*
X563780Y643209D03*
Y649705D03*
X731102Y566437D03*
Y572933D03*
X506693Y544783D03*
Y551279D03*
Y560532D03*
Y567028D03*
X851181Y443012D03*
Y436516D03*
X654331Y477854D03*
Y484350D03*
G54D132*
X593898Y611024D03*
X600591D03*
G54D133*
X876772Y456103D03*
Y462795D03*
X461417Y345867D03*
Y352559D03*
Y363583D03*
Y370275D03*
X679921Y610433D03*
Y603741D03*
X866929Y478543D03*
Y471851D03*
X800000Y337993D03*
Y344685D03*
X809843Y337993D03*
Y344685D03*
X646457Y410827D03*
Y417519D03*
X540157Y401771D03*
Y395079D03*
X548031D03*
Y401771D03*
X719291Y462795D03*
Y456103D03*
X711417D03*
Y462795D03*
X719291Y435236D03*
Y428544D03*
X711417D03*
Y435236D03*
X719291Y407677D03*
Y400985D03*
X711417D03*
Y407677D03*
X719291Y380118D03*
Y373426D03*
X711417D03*
Y380118D03*
X719291Y490354D03*
Y483662D03*
X711417D03*
Y490354D03*
X638583Y410827D03*
Y417519D03*
X540157Y429330D03*
Y422638D03*
X548031D03*
Y429330D03*
X540157Y458858D03*
Y452166D03*
X548031D03*
Y458858D03*
X540157Y484448D03*
Y477756D03*
X548031D03*
Y484448D03*
X530315Y551377D03*
Y544685D03*
Y573031D03*
Y566339D03*
X571654Y406890D03*
Y413582D03*
X579528D03*
Y406890D03*
G54D134*
X876772Y471850D03*
Y478543D03*
X723228Y559252D03*
Y552559D03*
X731102Y559252D03*
Y552559D03*
X668110Y540748D03*
Y547441D03*
Y563189D03*
Y556496D03*
X660236Y338780D03*
Y332087D03*
X646457Y477756D03*
Y484449D03*
G54D135*
X722047Y473228D03*
X708661D03*
X722047Y445669D03*
X708661D03*
X722047Y418110D03*
X708661D03*
X722047Y390551D03*
X708661D03*
X722047Y500787D03*
X708661D03*
X537402Y439764D03*
X550787D03*
X537402Y467323D03*
X550787D03*
X537402Y494882D03*
X550787D03*
X537402Y412205D03*
X550787D03*
X574409Y396457D03*
X561024D03*
G54D142*
X813780Y530315D03*
X853150D03*
X585433Y386614D03*
X624803D03*
X803937Y620866D03*
X843307D03*
G54D143*
X451575Y363583D03*
Y370276D03*
Y352559D03*
Y345866D03*
X605118Y320276D03*
Y326969D03*
Y336024D03*
Y342717D03*
X616929Y624213D03*
Y617520D03*
X575591Y624213D03*
Y617520D03*
G54D146*
X523228Y612992D03*
X549213D03*
G54D150*
X678346Y665158D03*
Y651378D03*
X720866D03*
Y665158D03*
G54D153*
X683465Y567520D03*
Y564961D03*
Y562402D03*
Y559843D03*
Y557283D03*
Y554724D03*
Y552165D03*
X707874D03*
Y554724D03*
Y557283D03*
Y559843D03*
Y562402D03*
Y564961D03*
Y567520D03*
G54D154*
X687992Y547638D03*
X690551D03*
X693110D03*
X695669D03*
X698228D03*
X700787D03*
X703346D03*
Y572047D03*
X700787D03*
X698228D03*
X695669D03*
X693110D03*
X690551D03*
X687992D03*
G54D157*
X705512Y596457D03*
Y609843D03*
G54D158*
X691732Y597244D03*
Y609055D03*
G54D161*
X581459Y642707D03*
Y650207D03*
X573459Y646457D03*
G54D164*
X684606Y670512D03*
X714606D03*
Y646024D03*
X684606D03*
G54D211*
X546063Y636614D03*
Y664173D03*
G54D212*
X495079Y390551D03*
X506496D03*
X495079Y402362D03*
X506496D03*
X495079Y414173D03*
X506496D03*
X495079Y425984D03*
X506496D03*
X495079Y437795D03*
X506496D03*
X495079Y449606D03*
X506496D03*
X495079Y378740D03*
X506496D03*
X495079Y461417D03*
X506496D03*
G54D215*
X345276Y636220D03*
Y625197D03*
Y577165D03*
Y566142D03*
G54D226*
X496850Y577362D03*
Y565945D03*
Y540354D03*
Y551772D03*
G54D228*
X515256Y390551D03*
X521752D03*
X570374Y662205D03*
X576870D03*
X718602Y512598D03*
X712106D03*
X515256Y402362D03*
X521752D03*
X515256Y414173D03*
X521752D03*
X515256Y425984D03*
X521752D03*
X515256Y437795D03*
X521752D03*
X730413Y595276D03*
X723917D03*
X660925Y577559D03*
X667421D03*
X580807Y528346D03*
X574311D03*
X820374Y337402D03*
X826870D03*
X668799Y339370D03*
X675295D03*
X693012Y506693D03*
X686516D03*
X572933Y487008D03*
X566437D03*
X515256Y378740D03*
X521752D03*
X515256Y449606D03*
X521752D03*
X515256Y461417D03*
X521752D03*
G54D237*
X851181Y397441D03*
X846457D03*
X841732D03*
X837008D03*
X832283D03*
X827559D03*
X851181Y391535D03*
Y385630D03*
Y379724D03*
X846457Y391535D03*
X841732D03*
X837008D03*
X832283D03*
X827559D03*
X846457Y385630D03*
X841732D03*
X837008D03*
X832283D03*
X827559D03*
X846457Y379724D03*
X841732D03*
X837008D03*
X832283D03*
X827559D03*
G54D238*
X859055Y401870D03*
Y393012D03*
Y384154D03*
Y375295D03*
G54D239*
X905557Y495271D03*
X896457D03*
X887357D03*
G54D240*
X896457Y470870D03*
G54D241*
X850275Y502756D03*
X837874D03*
X853464Y339370D03*
X841063D03*
X652677Y620866D03*
X640276D03*
G54D242*
X569882Y378740D03*
X549803D03*
G54D244*
X626772Y449606D03*
G54D247*
X556299Y336417D03*
Y326417D03*
X587008D03*
Y336417D03*
G54D248*
X647244Y546850D03*
Y555905D03*
X639764D03*
Y546850D03*
G54D262*
X764567Y581693D03*
Y541929D03*
G54D263*
X800633Y588991D03*
Y582291D03*
Y575591D03*
Y568891D03*
Y562191D03*
G54D264*
X835433Y575591D03*
G54D265*
X695669Y559843D03*
G54D266*
X609252Y468799D03*
Y466240D03*
Y463681D03*
Y461122D03*
Y458563D03*
Y456004D03*
Y453445D03*
Y450886D03*
Y448327D03*
Y445768D03*
Y443209D03*
Y440650D03*
Y438091D03*
Y435531D03*
Y432972D03*
Y430413D03*
X644291D03*
Y432972D03*
Y435531D03*
Y438091D03*
Y440650D03*
Y443209D03*
Y445768D03*
Y448327D03*
Y450886D03*
Y453445D03*
Y456004D03*
Y458563D03*
Y461122D03*
Y463681D03*
Y466240D03*
Y468799D03*
G54D267*
X535281Y681890D03*
X560781D03*
G54D268*
X854331Y417126D03*
X850000D03*
X845669D03*
X841339D03*
X837008D03*
X832677D03*
X828346D03*
X824016D03*
Y360039D03*
X828346D03*
X832677D03*
X837008D03*
X841339D03*
X845669D03*
X850000D03*
X854331D03*
X0Y0D02*
M02*
