*
*
G04 PADS VX.2.2 Build Number: 7607494 generated Gerber (RS-274-X) file*
G04 PC Version=2.1*
*
%IN "L9.pcb"*%
*
%MOIN*%
*
%FSLAX35Y35*%
*
*
*
*
G04 PC Standard Apertures*
*
*
G04 Thermal Relief Aperture macro.*
%AMTER*
1,1,$1,0,0*
1,0,$1-$2,0,0*
21,0,$3,$4,0,0,45*
21,0,$3,$4,0,0,135*
%
*
*
G04 Annular Aperture macro.*
%AMANN*
1,1,$1,0,0*
1,0,$2,0,0*
%
*
*
G04 Odd Aperture macro.*
%AMODD*
1,1,$1,0,0*
1,0,$1-0.005,0,0*
%
*
*
G04 PC Custom Aperture Macros*
*
*
*
*
*
*
G04 PC Aperture Table*
*
%ADD010C,0.001*%
%ADD011C,0.01*%
%ADD014C,0.09*%
%ADD015C,0.13*%
%ADD024C,0.11*%
%ADD026R,0.09X0.09*%
%ADD027R,0.13X0.13*%
%ADD043C,0.05*%
%ADD055C,0.008*%
%ADD124R,0.08087X0.10449*%
%ADD125R,0.04937X0.05331*%
%ADD126C,0.1478*%
%ADD127R,0.04937X0.08874*%
%ADD128R,0.08087X0.06512*%
%ADD129R,0.06X0.046*%
%ADD130R,0.05331X0.04937*%
%ADD131R,0.05724X0.08087*%
*
*
*
*
G04 PC Circuitry*
G04 Layer Name L9.pcb - circuitry*
%LPD*%
*
*
G04 PC Custom Flashes*
G04 Layer Name L9.pcb - flashes*
%LPD*%
*
*
G04 PC Circuitry*
G04 Layer Name L9.pcb - circuitry*
%LPD*%
*
G54D10*
G01X300000Y548031D02*
X300003D01*
X654331D02*
X654333D01*
X300000Y300000D02*
X300003D01*
X300000Y548031D02*
X300003D01*
G54D11*
X311311Y349606D02*
G75*
G03X311311I-3437J0D01*
G01X634933Y313780D02*
G03X634933I-3437J0D01*
G01X643594Y530315D02*
G03X643594I-3437J0D01*
G01X310917Y507480D02*
G03X310917I-3437J0D01*
G01X311311Y349606D02*
G03X311311I-3437J0D01*
G01X634933Y313780D02*
G03X634933I-3437J0D01*
G01X643594Y530315D02*
G03X643594I-3437J0D01*
G01X310917Y507480D02*
G03X310917I-3437J0D01*
G01X304441Y349768D02*
X311307D01*
X304517Y348868D02*
X311231D01*
X304605Y350668D02*
X311143D01*
X304853Y347968D02*
X310895D01*
X305052Y351568D02*
X310696D01*
X305557Y347068D02*
X310191D01*
X305970Y352468D02*
X309778D01*
X628063Y313941D02*
X634929D01*
X628139Y313041D02*
X634853D01*
X628227Y314841D02*
X634765D01*
X628475Y312141D02*
X634517D01*
X628674Y315741D02*
X634318D01*
X629179Y311241D02*
X633813D01*
X629592Y316641D02*
X633400D01*
X636724Y530477D02*
X643591D01*
X636801Y529577D02*
X643514D01*
X636889Y531377D02*
X643426D01*
X637136Y528677D02*
X643179D01*
X637335Y532277D02*
X642980D01*
X637840Y527777D02*
X642475D01*
X638254Y533177D02*
X642061D01*
X304047Y507642D02*
X310914D01*
X304124Y506742D02*
X310837D01*
X304211Y508542D02*
X310749D01*
X304459Y505842D02*
X310502D01*
X304658Y509442D02*
X310303D01*
X305163Y504942D02*
X309798D01*
X305577Y510342D02*
X309384D01*
X300000Y555906D02*
X316685D01*
X300000D02*
X310000Y558406D01*
Y553406*
X300000Y555906*
X654331D02*
X364049D01*
X654331D02*
X644331Y553406D01*
Y558406*
X654331Y555906*
X300000Y553031D02*
Y560906D01*
X654331Y553031D02*
Y560906D01*
X322640Y558312D02*
X322412Y557375D01*
X321958Y556750*
X321276Y556437*
X321049*
X320367Y556750*
X319912Y557375*
X319685Y558312*
Y558625*
X319912Y559562*
X320367Y560187*
X321049Y560500*
X321276*
X321958Y560187*
X322412Y559562*
X322640Y558312*
Y556750*
X322412Y555187*
X321958Y554250*
X321276Y553937*
X320821*
X320140Y554250*
X319912Y554875*
X326049Y560500D02*
X325367Y560187D01*
X324912Y559250*
X324685Y557687*
Y556750*
X324912Y555187*
X325367Y554250*
X326049Y553937*
X326503*
X327185Y554250*
X327640Y555187*
X327867Y556750*
Y557687*
X327640Y559250*
X327185Y560187*
X326503Y560500*
X326049*
X330140Y554562D02*
X329912Y554250D01*
X330140Y553937*
X330367Y554250*
X330140Y554562*
X333776Y560500D02*
X333094Y560187D01*
X332640Y559250*
X332412Y557687*
Y556750*
X332640Y555187*
X333094Y554250*
X333776Y553937*
X334230*
X334912Y554250*
X335367Y555187*
X335594Y556750*
Y557687*
X335367Y559250*
X334912Y560187*
X334230Y560500*
X333776*
X339003D02*
X338321Y560187D01*
X337867Y559250*
X337640Y557687*
Y556750*
X337867Y555187*
X338321Y554250*
X339003Y553937*
X339458*
X340140Y554250*
X340594Y555187*
X340821Y556750*
Y557687*
X340594Y559250*
X340140Y560187*
X339458Y560500*
X339003*
X344230D02*
X343549Y560187D01*
X343094Y559250*
X342867Y557687*
Y556750*
X343094Y555187*
X343549Y554250*
X344230Y553937*
X344685*
X345367Y554250*
X345821Y555187*
X346049Y556750*
Y557687*
X345821Y559250*
X345367Y560187*
X344685Y560500*
X344230*
X348094Y558312D02*
Y553937D01*
Y557062D02*
X348776Y558000D01*
X349230Y558312*
X349912*
X350367Y558000*
X350594Y557062*
Y553937*
Y557062D02*
X351276Y558000D01*
X351730Y558312*
X352412*
X352867Y558000*
X353094Y557062*
Y553937*
X355140Y558312D02*
Y553937D01*
Y557062D02*
X355821Y558000D01*
X356276Y558312*
X356958*
X357412Y558000*
X357640Y557062*
Y553937*
Y557062D02*
X358321Y558000D01*
X358776Y558312*
X359458*
X359912Y558000*
X360140Y557062*
Y553937*
X292126Y300000D02*
Y484008D01*
Y300000D02*
X289626Y310000D01*
X294626*
X292126Y300000*
Y548031D02*
Y531372D01*
Y548031D02*
X294626Y538031D01*
X289626*
X292126Y548031*
X295000Y300000D02*
X287126D01*
X295000Y548031D02*
X287126D01*
X288469Y489735D02*
X287844Y489508D01*
X287532Y488826*
Y488372*
X287844Y487690*
X288782Y487235*
X290344Y487008*
X291907*
X293157Y487235*
X293782Y487690*
X294094Y488372*
Y488599*
X293782Y489281*
X293157Y489735*
X292219Y489962*
X291907*
X290969Y489735*
X290344Y489281*
X290032Y488599*
Y488372*
X290344Y487690*
X290969Y487235*
X291907Y487008*
X287532Y492462D02*
Y494962D01*
X290032Y493599*
Y494281*
X290344Y494735*
X290657Y494962*
X291594Y495190*
X292219*
X293157Y494962*
X293782Y494508*
X294094Y493826*
Y493144*
X293782Y492462*
X293469Y492235*
X292844Y492008*
X293469Y497462D02*
X293782Y497235D01*
X294094Y497462*
X293782Y497690*
X293469Y497462*
X287532Y501099D02*
X287844Y500417D01*
X288782Y499962*
X290344Y499735*
X291282*
X292844Y499962*
X293782Y500417*
X294094Y501099*
Y501553*
X293782Y502235*
X292844Y502690*
X291282Y502917*
X290344*
X288782Y502690*
X287844Y502235*
X287532Y501553*
Y501099*
Y506326D02*
X287844Y505644D01*
X288782Y505190*
X290344Y504962*
X291282*
X292844Y505190*
X293782Y505644*
X294094Y506326*
Y506781*
X293782Y507462*
X292844Y507917*
X291282Y508144*
X290344*
X288782Y507917*
X287844Y507462*
X287532Y506781*
Y506326*
Y511553D02*
X287844Y510872D01*
X288782Y510417*
X290344Y510190*
X291282*
X292844Y510417*
X293782Y510872*
X294094Y511553*
Y512008*
X293782Y512690*
X292844Y513144*
X291282Y513372*
X290344*
X288782Y513144*
X287844Y512690*
X287532Y512008*
Y511553*
X289719Y515417D02*
X294094D01*
X290969D02*
X290032Y516099D01*
X289719Y516553*
Y517235*
X290032Y517690*
X290969Y517917*
X294094*
X290969D02*
X290032Y518599D01*
X289719Y519053*
Y519735*
X290032Y520190*
X290969Y520417*
X294094*
X289719Y522462D02*
X294094D01*
X290969D02*
X290032Y523144D01*
X289719Y523599*
Y524281*
X290032Y524735*
X290969Y524962*
X294094*
X290969D02*
X290032Y525644D01*
X289719Y526099*
Y526781*
X290032Y527235*
X290969Y527462*
X294094*
G54D14*
X557874Y439606D03*
Y429606D03*
X569685Y363898D03*
G54D15*
X325000Y385000D03*
Y445000D03*
Y425000D03*
X472835Y445669D03*
Y492913D03*
X464961Y469291D03*
X520866Y445669D03*
Y492913D03*
X630709Y475512D03*
Y495512D03*
Y373150D03*
G54D24*
X530315Y353150D03*
Y321654D03*
X378740D03*
Y364173D03*
G54D26*
X557874Y449606D03*
X569685Y373898D03*
G54D27*
X325000Y405000D03*
Y465000D03*
X630709Y455512D03*
Y353150D03*
G54D43*
X307874Y349606D03*
X631496Y313780D03*
X640157Y530315D03*
X307480Y507480D03*
G54D55*
X300000Y300000D02*
X654331D01*
Y548031*
X300000*
Y300000*
X290157Y548031D02*
X309843D01*
X300000Y557874D02*
Y538189D01*
X290157Y300000D02*
X309843D01*
X300000Y309843D02*
Y290157D01*
X644488Y300000D02*
X664173D01*
X654331Y309843D02*
Y290157D01*
X644488Y548031D02*
X664173D01*
X654331Y557874D02*
Y538189D01*
G54D124*
X425078Y366929D03*
X412677D03*
X425078Y490945D03*
X412677D03*
X413111Y479134D03*
X425512D03*
G54D125*
X423425Y345276D03*
X416733D03*
X431299Y465354D03*
X424607D03*
G54D126*
X325591Y323622D03*
X595276D03*
Y528346D03*
X325984D03*
G54D127*
X504724Y459291D03*
Y479291D03*
X538189D03*
Y459291D03*
G54D128*
X488976Y462598D03*
Y475984D03*
X520472D03*
Y462598D03*
G54D129*
X599250Y386801D03*
Y394301D03*
X607250Y390551D03*
G54D130*
X599213Y371457D03*
Y378149D03*
G54D131*
X576969Y449606D03*
X589961D03*
G74*
X0Y0D02*
M02*
